<svg width="18" height="18" viewBox="0 0 18 18" fill="none" xmlns="http://www.w3.org/2000/svg">
<path d="M8.99303 0C11.4764 0 13.7249 1.00983 15.3571 2.6355C16.9828 4.26814 17.9926 6.51661 17.9926 9C17.9926 11.4834 16.9828 13.7319 15.3571 15.3645C13.7245 16.9902 11.4764 18 8.99303 18C6.50964 18 4.2616 16.9902 2.63593 15.3645C1.00329 13.7319 0 11.4838 0 9C0 6.51661 1.00286 4.26814 2.6355 2.6355C4.2616 1.00983 6.50964 0 8.99303 0ZM13.5798 8.50881C13.8495 8.50881 14.064 8.73022 14.064 9C14.064 9.26978 13.8495 9.49119 13.5798 9.49119H9.00697H8.99303C8.81303 9.49119 8.65395 9.38746 8.57114 9.24232L8.56417 9.23535L8.55719 9.22141V9.21443L8.55022 9.20048L8.54324 9.18654V9.17956L8.53627 9.16562L8.5293 9.15864V9.1447L8.52232 9.13075V9.12378L8.51535 9.10983V9.09588V9.08891V9.08194L8.50838 9.07496V9.06102V9.04707V9.03487V9.02789V9.01395V9V3.14063C8.50838 2.87085 8.72281 2.65642 8.99259 2.65642C9.26237 2.65642 9.48378 2.87085 9.48378 3.14063V8.50881H13.5798ZM14.6654 3.3276C13.2128 1.87496 11.2066 0.982373 8.99303 0.982373C6.77942 0.982373 4.77327 1.87453 3.32063 3.3276C1.87496 4.78024 0.9754 6.78639 0.9754 9C0.9754 11.2136 1.87453 13.2198 3.32063 14.6728C4.77327 16.1255 6.77942 17.0181 8.99303 17.0181C11.2066 17.0181 13.2128 16.1255 14.6654 14.6728C16.1181 13.2202 17.0176 11.214 17.0176 9C17.0176 6.78639 16.1185 4.78024 14.6654 3.3276Z" fill="#FFAA00"/>
</svg>
