<svg width="161" height="161" viewBox="0 0 161 161" fill="none" xmlns="http://www.w3.org/2000/svg">
<g clip-path="url(#clip0_9365_10038)">
<path d="M71.0997 89.0958C74.1192 83.8241 78.5256 78.0114 84.313 71.6457C88.5556 66.9932 91.6746 63.08 93.67 59.9001C95.6596 56.7203 96.6603 53.1197 96.6603 49.0802C96.6603 43.3457 94.7643 38.8073 90.9723 35.4712C87.1804 32.1411 82.1303 30.47 75.8279 30.47C69.5256 30.47 64.417 31.9848 59.7238 35.0084C55.0307 38.0319 51.0749 42.2577 47.8623 47.6857L24.5254 31.1673C29.9266 21.2431 37.2238 13.5669 46.4169 8.13896C55.6042 2.717 66.5002 0 79.1049 0C93.8924 0 105.754 3.805 114.695 11.397C123.631 18.9949 128.102 29.5443 128.102 43.0331C128.102 49.3928 127.236 54.9771 125.498 59.7799C123.76 64.5887 121.642 68.6582 119.131 71.9944C116.621 75.3305 113.373 79.1716 109.388 83.5115C104.63 88.6269 101.154 92.9309 98.9717 96.4233C96.7832 99.9157 95.6889 104.141 95.6889 109.101H66.5646C66.5646 101.04 68.0743 94.3675 71.0997 89.0958ZM68.0158 155.518C64.4755 151.869 62.7141 147.421 62.7141 142.185C62.7141 136.95 64.4521 132.574 67.9222 129.057C71.3923 125.541 75.8279 123.786 81.2291 123.786C86.6303 123.786 91.066 125.541 94.5361 129.057C98.0062 132.574 99.7442 136.95 99.7442 142.185C99.7442 147.421 97.9769 151.869 94.4366 155.518C90.9021 159.173 86.4957 161 81.2233 161C75.9508 161 71.5444 159.173 68.01 155.518H68.0158Z" fill="#1B2651"/>
<path d="M9.0293 52.9146C9.61448 51.8927 10.4688 50.7686 11.5924 49.5304C12.4175 48.6287 13.0202 47.8713 13.4064 47.2522C13.7927 46.6391 13.9858 45.9358 13.9858 45.1543C13.9858 44.0423 13.6171 43.1647 12.8856 42.5155C12.1483 41.8723 11.1711 41.5477 9.94803 41.5477C8.72501 41.5477 7.73606 41.8422 6.82903 42.4253C5.91616 43.0144 5.15543 43.8319 4.52928 44.8838L0.00585938 41.6799C1.05333 39.7564 2.46946 38.2657 4.2484 37.2137C6.02734 36.1618 8.13983 35.6328 10.5859 35.6328C13.4532 35.6328 15.753 36.3722 17.4851 37.8449C19.2173 39.3176 20.0833 41.3613 20.0833 43.9762C20.0833 45.2084 19.9136 46.2904 19.5801 47.2221C19.2407 48.1538 18.831 48.9413 18.3453 49.5905C17.8596 50.2397 17.2276 50.979 16.4552 51.8206C15.5306 52.8124 14.8577 53.6479 14.4363 54.3212C14.015 55.0004 13.7985 55.8179 13.7985 56.7797H8.15154C8.15154 55.2168 8.44413 53.9244 9.0293 52.9026V52.9146ZM8.43242 65.7903C7.74776 65.081 7.40251 64.2214 7.40251 63.2055C7.40251 62.1896 7.73606 61.3421 8.40901 60.6628C9.08197 59.9836 9.94218 59.641 10.9896 59.641C12.0371 59.641 12.8973 59.9836 13.5703 60.6628C14.2432 61.3421 14.5768 62.1896 14.5768 63.2055C14.5768 64.2214 14.2315 65.081 13.5469 65.7903C12.8622 66.4996 12.0079 66.8542 10.9838 66.8542C9.95974 66.8542 9.10538 66.4996 8.42072 65.7903H8.43242Z" fill="#CD2028"/>
<path d="M149.951 42.4068C150.536 41.3849 151.391 40.2608 152.514 39.0226C153.339 38.1209 153.942 37.3635 154.328 36.7444C154.715 36.1312 154.908 35.4279 154.908 34.6465C154.908 33.5345 154.539 32.6568 153.807 32.0077C153.07 31.3645 152.093 31.0399 150.87 31.0399C149.647 31.0399 148.658 31.3344 147.751 31.9175C146.838 32.5066 146.077 33.3241 145.451 34.376L140.928 31.1721C141.975 29.2486 143.391 27.7639 145.17 26.7059C146.949 25.654 149.062 25.125 151.508 25.125C154.375 25.125 156.675 25.8644 158.407 27.3371C160.139 28.8098 161.005 30.8535 161.005 33.4683C161.005 34.7006 160.835 35.7826 160.502 36.7143C160.168 37.646 159.753 38.4335 159.267 39.0827C158.782 39.7319 158.15 40.4712 157.377 41.3128C156.453 42.3046 155.78 43.1401 155.358 43.8134C154.937 44.4926 154.72 45.3101 154.72 46.2719H149.073C149.073 44.709 149.366 43.4166 149.951 42.3948V42.4068ZM149.354 55.2824C148.67 54.5731 148.324 53.7136 148.324 52.6977C148.324 51.6818 148.658 50.8343 149.337 50.155C150.01 49.4758 150.87 49.1331 151.917 49.1331C152.965 49.1331 153.825 49.4758 154.498 50.155C155.171 50.8343 155.505 51.6818 155.505 52.6977C155.505 53.7136 155.159 54.5731 154.475 55.2824C153.79 55.9918 152.936 56.3464 151.912 56.3464C150.887 56.3464 150.033 55.9918 149.348 55.2824H149.354Z" fill="#FFAA00"/>
</g>
<defs>
<clipPath id="clip0_9365_10038">
<rect width="161" height="161" fill="white"/>
</clipPath>
</defs>
</svg>
