<svg width="62" height="62" viewBox="0 0 62 62" fill="none" xmlns="http://www.w3.org/2000/svg">
<circle cx="31" cy="31" r="28" fill="#1B2651" stroke="#F1F3F7" stroke-width="5"/>
<g clip-path="url(#clip0_8728_9434)">
<path fill-rule="evenodd" clip-rule="evenodd" d="M40.1466 28.9853L33.5374 22.3752C31.8343 20.677 29.0783 20.677 27.3752 22.3752L20.7659 28.9853C20.2739 29.4742 19.998 30.1397 20 30.8334V39.3875C20 40.8312 21.1704 42.0016 22.6141 42.0016H38.2985C39.7422 42.0016 40.9125 40.8312 40.9125 39.3875V30.8334C40.9145 30.1397 40.6387 29.4742 40.1466 28.9853ZM27.8421 40.2654V36.8375C27.8421 35.3938 29.0125 34.2234 30.4562 34.2234C31.8999 34.2234 33.0703 35.3938 33.0703 36.8375V40.2654H27.8421ZM38.299 40.2599C38.7802 40.2599 39.1703 39.8698 39.1703 39.3885V30.831C39.1679 30.6022 39.0763 30.3833 38.915 30.221L32.3058 23.6109C31.2832 22.5931 29.6303 22.5931 28.6077 23.6109L21.9985 30.2184C21.8357 30.3822 21.744 30.6035 21.7432 30.8345V39.3885C21.7432 39.8698 22.1333 40.2599 22.6146 40.2599H26.1V36.832C26.1 34.4258 28.0506 32.4752 30.4568 32.4752C32.8629 32.4752 34.8135 34.4258 34.8135 36.832V40.2599H38.299Z" fill="white"/>
</g>
<defs>
<clipPath id="clip0_8728_9434">
<rect width="22" height="22" fill="white" transform="translate(20 20)"/>
</clipPath>
</defs>
</svg>
