<svg width="45" height="44" viewBox="0 0 45 44" fill="none" xmlns="http://www.w3.org/2000/svg">
<path d="M41.7897 16.4502V15.0294C41.7902 14.7351 41.7313 14.4437 41.6165 14.1727C41.5018 13.9017 41.3336 13.6567 41.1219 13.4522C40.9081 13.2496 40.6559 13.0918 40.3801 12.9881C40.1044 12.8844 39.8107 12.8369 39.5164 12.8483C36.8953 12.9193 34.2832 13.1853 31.7017 13.644L30.7639 13.8287C30.5626 11.8351 29.6393 9.98386 28.168 8.62362C26.6966 7.26337 24.7787 6.48797 22.7755 6.44344C20.7722 6.3989 18.8217 7.0883 17.2914 8.38181C15.7611 9.67532 14.7564 11.4837 14.4667 13.4664C14.4667 13.5943 14.4667 13.7151 14.4667 13.8358C11.5774 13.2609 8.64482 12.9306 5.70003 12.8483C5.40515 12.8398 5.11154 12.8904 4.83653 12.9972C4.56151 13.1039 4.31067 13.2647 4.09878 13.4699C3.88689 13.6752 3.71826 13.9208 3.60282 14.1923C3.48739 14.4638 3.42749 14.7557 3.42667 15.0507V16.4715C2.62434 16.6353 1.90323 17.0712 1.38539 17.7056C0.867557 18.3399 0.584794 19.1337 0.584961 19.9526V39.8446C0.584961 40.7866 0.959203 41.6901 1.62536 42.3563C1.9552 42.6861 2.34679 42.9478 2.77775 43.1263C3.20872 43.3048 3.67062 43.3967 4.1371 43.3967H41.0793C42.0214 43.3967 42.9249 43.0225 43.591 42.3563C44.2572 41.6901 44.6314 40.7866 44.6314 39.8446V19.9526C44.6365 19.1301 44.356 18.3313 43.8378 17.6925C43.3195 17.0538 42.5956 16.6147 41.7897 16.4502ZM15.8876 13.6653C16.1135 12.1888 16.8174 10.827 17.8915 9.78889C18.9655 8.75076 20.3504 8.09354 21.8338 7.91798C22.091 7.88968 22.3495 7.87545 22.6082 7.87535C24.2774 7.87136 25.8883 8.48936 27.1265 9.60879C27.8718 10.2749 28.461 11.0973 28.8518 12.0173C29.2427 12.9373 29.4256 13.9322 29.3876 14.9311C29.3496 15.93 29.0916 16.9082 28.632 17.7958C28.1724 18.6835 27.5225 19.4587 26.7287 20.0663C26.1267 20.5126 25.6368 21.0928 25.2977 21.7611C24.9586 22.4294 24.7797 23.1674 24.775 23.9168C24.7731 24.1838 24.6663 24.4393 24.4775 24.6281C24.2887 24.8169 24.0332 24.9237 23.7662 24.9256H23.3186V19.9526C23.3189 19.7866 23.2611 19.6258 23.1552 19.4979L20.5693 16.4005H24.4411L23.1694 17.6721C23.053 17.808 22.9922 17.9829 22.9991 18.1617C23.006 18.3405 23.0802 18.5101 23.2067 18.6366C23.3332 18.7631 23.5028 18.8372 23.6816 18.8441C23.8604 18.851 24.0352 18.7902 24.1711 18.6738L26.6576 16.1873C26.755 16.088 26.8211 15.9624 26.8477 15.8259C26.8743 15.6894 26.8602 15.5481 26.8073 15.4195C26.7543 15.2909 26.6648 15.1807 26.5498 15.1025C26.4348 15.0243 26.2994 14.9816 26.1603 14.9796H19.0561C18.9209 14.9794 18.7886 15.0177 18.6745 15.0901C18.5604 15.1624 18.4693 15.2658 18.4118 15.3881C18.3544 15.5104 18.3331 15.6466 18.3503 15.7806C18.3675 15.9146 18.4226 16.0409 18.509 16.1447L21.8978 20.2084V24.9256H21.4502C21.3162 24.9256 21.1835 24.8991 21.0598 24.8476C20.9361 24.7961 20.8237 24.7206 20.7293 24.6255C20.6349 24.5304 20.5602 24.4176 20.5096 24.2935C20.4589 24.1695 20.4334 24.0366 20.4343 23.9026C20.426 23.1541 20.2448 22.4177 19.9046 21.7509C19.5644 21.0842 19.0746 20.5052 18.4735 20.0592C17.5079 19.3239 16.7582 18.3422 16.3032 17.2171C15.8482 16.092 15.7046 14.8651 15.8876 13.6653ZM4.84752 15.0507C4.8484 14.9453 4.8704 14.8411 4.91222 14.7444C4.95404 14.6476 5.01482 14.5603 5.09099 14.4874C5.16715 14.4145 5.25715 14.3577 5.35566 14.3202C5.45416 14.2827 5.55919 14.2654 5.66451 14.2692C8.61043 14.351 11.5437 14.6886 14.4312 15.278C14.5127 16.4338 14.8409 17.5587 15.3935 18.577C15.9462 19.5953 16.7106 20.4835 17.6352 21.1816C18.0672 21.4952 18.4204 21.9049 18.6669 22.3783C18.9135 22.8517 19.0467 23.376 19.0561 23.9097C19.056 24.5486 19.3068 25.1621 19.7546 25.6178C20.2024 26.0736 20.8113 26.3353 21.4502 26.3465H23.7662C24.0877 26.3455 24.4059 26.2812 24.7025 26.157C24.9991 26.0329 25.2683 25.8515 25.4947 25.6231C25.7211 25.3948 25.9002 25.124 26.0217 24.8263C26.1432 24.5286 26.2048 24.2099 26.203 23.8884C26.2145 23.3591 26.3488 22.8397 26.5954 22.3712C26.842 21.9027 27.194 21.4979 27.6238 21.1888C28.544 20.4864 29.3039 19.5959 29.8527 18.5767C30.4016 17.5574 30.7267 16.4329 30.8065 15.278L31.9858 15.0436C34.4853 14.599 37.0142 14.3402 39.5519 14.2692C39.6585 14.2637 39.765 14.2812 39.8643 14.3204C39.9636 14.3596 40.0533 14.4197 40.1273 14.4965C40.2023 14.5694 40.2617 14.6567 40.302 14.7532C40.3422 14.8496 40.3626 14.9532 40.3618 15.0578V37.6422C40.362 37.8435 40.2845 38.0371 40.1456 38.1826C40.0066 38.3282 39.8169 38.4146 39.6158 38.4237C34.0398 38.4983 28.5215 39.5639 23.3186 41.5709V29.1882H24.029C24.2175 29.1882 24.3982 29.1133 24.5314 28.9801C24.6646 28.8468 24.7395 28.6661 24.7395 28.4777C24.7395 28.2893 24.6646 28.1086 24.5314 27.9754C24.3982 27.8422 24.2175 27.7673 24.029 27.7673H21.1873C20.9989 27.7673 20.8182 27.8422 20.685 27.9754C20.5518 28.1086 20.4769 28.2893 20.4769 28.4777C20.4769 28.6661 20.5518 28.8468 20.685 28.9801C20.8182 29.1133 20.9989 29.1882 21.1873 29.1882H21.8978V41.578C16.6962 39.5657 11.1773 38.4975 5.60058 38.4237C5.39828 38.4163 5.20674 38.3308 5.06627 38.185C4.92581 38.0392 4.84739 37.8447 4.84752 37.6422V15.0507ZM2.00581 39.8446V19.9526C2.00705 19.5129 2.14426 19.0843 2.39864 18.7257C2.65301 18.367 3.0121 18.0958 3.42667 17.9492V37.6422C3.42991 38.2132 3.65332 38.7608 4.05036 39.1711C4.4474 39.5814 4.98744 39.8226 5.55795 39.8446C10.0181 39.9504 14.4427 40.6675 18.708 41.9758H4.1371C3.57184 41.9758 3.02975 41.7513 2.63005 41.3516C2.23036 40.9519 2.00581 40.4098 2.00581 39.8446ZM43.2106 39.8446C43.2106 40.4098 42.986 40.9519 42.5863 41.3516C42.1866 41.7513 41.6445 41.9758 41.0793 41.9758H26.5013C30.7689 40.6668 35.1959 39.9497 39.6584 39.8446C40.229 39.8226 40.769 39.5814 41.166 39.1711C41.5631 38.7608 41.7865 38.2132 41.7897 37.6422V17.9279C42.2077 18.0757 42.5692 18.3501 42.8239 18.713C43.0786 19.076 43.2138 19.5093 43.2106 19.9526V39.8446Z" fill="#868B9F"/>
<path d="M7.63911 18.531C8.57688 18.595 9.52175 18.6802 10.4453 18.7939H10.5306C10.719 18.8052 10.9042 18.7412 11.0454 18.6159C11.1866 18.4907 11.2723 18.3145 11.2836 18.1261C11.2949 17.9377 11.2309 17.7525 11.1057 17.6112C10.9804 17.47 10.8042 17.3843 10.6158 17.373C9.67094 17.2594 8.69765 17.167 7.73857 17.1031C7.55016 17.0908 7.36459 17.1539 7.2227 17.2785C7.08081 17.4031 6.99422 17.5789 6.98197 17.7673C6.96972 17.9557 7.03282 18.1413 7.1574 18.2832C7.28197 18.4251 7.4578 18.5117 7.64622 18.5239L7.63911 18.531Z" fill="#868B9F"/>
<path d="M7.63911 21.4632C9.37224 21.5763 11.0985 21.7778 12.811 22.0671H12.9318C13.0251 22.075 13.119 22.0645 13.2083 22.0361C13.2975 22.0077 13.3803 21.962 13.4518 21.9017C13.5234 21.8413 13.5824 21.7675 13.6254 21.6843C13.6685 21.6011 13.6947 21.5103 13.7026 21.417C13.7105 21.3237 13.7 21.2298 13.6716 21.1406C13.6433 21.0513 13.5976 20.9686 13.5372 20.897C13.4769 20.8254 13.403 20.7664 13.3198 20.7234C13.2367 20.6804 13.1459 20.6541 13.0526 20.6462C11.293 20.3477 9.51938 20.139 7.73857 20.021C7.55016 20.0088 7.36459 20.0719 7.2227 20.1965C7.08081 20.321 6.99422 20.4969 6.98197 20.6853C6.96972 20.8737 7.03282 21.0593 7.1574 21.2012C7.28197 21.343 7.4578 21.4296 7.64622 21.4419L7.63911 21.4632Z" fill="#868B9F"/>
<path d="M6.97794 25.6819C6.96625 25.8692 7.02917 26.0536 7.15296 26.1947C7.27676 26.3358 7.45137 26.4222 7.63864 26.4349C11.4385 26.6677 15.197 27.3522 18.835 28.4739C19.0149 28.5304 19.2099 28.5131 19.3771 28.4258C19.5443 28.3386 19.67 28.1885 19.7266 28.0085C19.7831 27.8286 19.7658 27.6336 19.6785 27.4664C19.5913 27.2992 19.4412 27.1735 19.2612 27.1169C15.516 25.9516 11.6453 25.2362 7.731 24.9857C7.63536 24.9799 7.53955 24.9935 7.44933 25.0258C7.3591 25.058 7.27632 25.1081 7.20598 25.1732C7.13563 25.2382 7.07916 25.3168 7.03997 25.4042C7.00079 25.4916 6.97969 25.5861 6.97794 25.6819Z" fill="#868B9F"/>
<path d="M19.2688 30.6093C15.5235 29.4441 11.6529 28.7286 7.73857 28.4781C7.64528 28.472 7.5517 28.4844 7.46319 28.5145C7.37468 28.5446 7.29296 28.5918 7.2227 28.6535C7.08081 28.7781 6.99422 28.9539 6.98197 29.1423C6.96972 29.3307 7.03282 29.5163 7.1574 29.6582C7.28197 29.8001 7.4578 29.8867 7.64622 29.8989C11.4463 30.1341 15.2049 30.8209 18.8425 31.9449C19.0092 31.9694 19.1791 31.9339 19.3219 31.8447C19.4648 31.7555 19.5713 31.6185 19.6225 31.458C19.6737 31.2976 19.6663 31.1242 19.6015 30.9688C19.5367 30.8133 19.4188 30.6859 19.2688 30.6093Z" fill="#868B9F"/>
<path d="M19.2688 34.1601C15.5235 32.9948 11.6529 32.2794 7.73857 32.0288C7.55016 32.0166 7.36459 32.0797 7.2227 32.2043C7.08081 32.3288 6.99422 32.5047 6.98197 32.6931C6.96972 32.8815 7.03282 33.0671 7.1574 33.209C7.28197 33.3509 7.4578 33.4375 7.64622 33.4497C11.4474 33.7131 15.2036 34.4285 18.8354 35.581C19.0239 35.6384 19.2274 35.6187 19.4013 35.5261C19.5751 35.4335 19.7051 35.2756 19.7626 35.0872C19.82 34.8988 19.8003 34.6953 19.7077 34.5214C19.6151 34.3476 19.4572 34.2176 19.2688 34.1601Z" fill="#868B9F"/>
<path d="M26.1609 28.5192C26.2315 28.5299 26.3034 28.5299 26.374 28.5192C30.0117 27.3951 33.7702 26.7083 37.5703 26.4731C37.7588 26.4609 37.9346 26.3743 38.0592 26.2324C38.1837 26.0905 38.2468 25.9049 38.2346 25.7165C38.2223 25.5281 38.1357 25.3523 37.9939 25.2277C37.852 25.1031 37.6664 25.04 37.478 25.0523C33.5636 25.3028 29.693 26.0183 25.9478 27.1836C25.8545 27.1976 25.7648 27.2298 25.684 27.2784C25.6032 27.3271 25.5327 27.3911 25.4766 27.467C25.3634 27.6202 25.3156 27.8121 25.3439 28.0006C25.3722 28.189 25.4741 28.3584 25.6273 28.4717C25.7805 28.5849 25.9725 28.6327 26.1609 28.6044V28.5192Z" fill="#868B9F"/>
<path d="M26.1609 31.9805C26.2315 31.9912 26.3034 31.9912 26.374 31.9805C30.0102 30.8444 33.7688 30.1456 37.5703 29.8989C37.6636 29.8929 37.7548 29.8685 37.8387 29.8272C37.9226 29.7859 37.9975 29.7284 38.0592 29.6582C38.1208 29.5879 38.1681 29.5062 38.1982 29.4177C38.2283 29.3292 38.2407 29.2356 38.2346 29.1423C38.2285 29.049 38.2041 28.9578 38.1628 28.874C38.1215 28.7901 38.0641 28.7152 37.9939 28.6535C37.9236 28.5918 37.8419 28.5446 37.7534 28.5145C37.6649 28.4844 37.5713 28.472 37.478 28.4781C33.5636 28.7286 29.693 29.4441 25.9478 30.6093C25.7593 30.6376 25.5899 30.7396 25.4766 30.8928C25.3634 31.046 25.3156 31.2379 25.3439 31.4263C25.3722 31.6148 25.4741 31.7842 25.6273 31.8975C25.7805 32.0107 25.9725 32.0585 26.1609 32.0302V31.9805Z" fill="#868B9F"/>
<path d="M26.1609 35.5778C26.2315 35.5885 26.3034 35.5885 26.374 35.5778C30.0117 34.4537 33.7702 33.7668 37.5703 33.5317C37.7588 33.5195 37.9346 33.4329 38.0592 33.291C38.1837 33.1491 38.2468 32.9635 38.2346 32.7751C38.2223 32.5867 38.1357 32.4109 37.9939 32.2863C37.852 32.1617 37.6664 32.0986 37.478 32.1109C33.5671 32.3337 29.6965 33.0205 25.9478 34.1569C25.7593 34.1852 25.5899 34.2871 25.4766 34.4403C25.3634 34.5936 25.3156 34.7855 25.3439 34.9739C25.3722 35.1623 25.4741 35.3318 25.6273 35.445C25.7805 35.5583 25.9725 35.606 26.1609 35.5778Z" fill="#868B9F"/>
<path d="M22.6079 4.32116C22.7963 4.32116 22.977 4.24631 23.1102 4.11308C23.2435 3.97985 23.3183 3.79915 23.3183 3.61073V0.769021C23.3183 0.580604 23.2435 0.399904 23.1102 0.266673C22.977 0.133442 22.7963 0.0585938 22.6079 0.0585938C22.4195 0.0585938 22.2388 0.133442 22.1055 0.266673C21.9723 0.399904 21.8975 0.580604 21.8975 0.769021V3.61073C21.8975 3.79915 21.9723 3.97985 22.1055 4.11308C22.2388 4.24631 22.4195 4.32116 22.6079 4.32116Z" fill="#868B9F"/>
<path d="M27.6306 6.40078C27.7241 6.40132 27.8168 6.3834 27.9033 6.34805C27.9899 6.31269 28.0686 6.2606 28.135 6.19476L30.1455 4.18425C30.2619 4.04834 30.3227 3.87352 30.3158 3.69473C30.3089 3.51593 30.2348 3.34632 30.1082 3.2198C29.9817 3.09328 29.8121 3.01915 29.6333 3.01225C29.4545 3.00534 29.2797 3.06616 29.1438 3.18255L27.1262 5.18595C27.026 5.28532 26.9577 5.41227 26.9299 5.55063C26.9021 5.68898 26.9162 5.83246 26.9703 5.96279C27.0244 6.09311 27.1161 6.20437 27.2337 6.28237C27.3513 6.36038 27.4895 6.4016 27.6306 6.40078Z" fill="#868B9F"/>
<path d="M17.0815 6.19795C17.2174 6.31434 17.3922 6.37516 17.571 6.36825C17.7498 6.36135 17.9194 6.28723 18.0459 6.1607C18.1724 6.03418 18.2466 5.86457 18.2535 5.68577C18.2604 5.50698 18.1995 5.33216 18.0832 5.19625L16.0798 3.17864C15.9439 3.06225 15.769 3.00144 15.5902 3.00834C15.4114 3.01525 15.2418 3.08937 15.1153 3.21589C14.9888 3.34242 14.9147 3.51202 14.9078 3.69082C14.9009 3.86962 14.9617 4.04444 15.0781 4.18034L17.0815 6.19795Z" fill="#868B9F"/>
</svg>
