<svg width="44" height="44" viewBox="0 0 44 44" fill="none" xmlns="http://www.w3.org/2000/svg">
<path d="M42.5428 19.231C42.3174 19.231 42.092 19.1356 41.9272 18.9796C41.7712 18.8148 41.6758 18.5894 41.6758 18.364C41.6758 18.1386 41.7712 17.9131 41.9272 17.7484C42.2567 17.4276 42.8376 17.4276 43.1584 17.7484C43.3144 17.9131 43.4098 18.1386 43.4098 18.364C43.4098 18.5981 43.3144 18.8148 43.1584 18.9796C42.9936 19.1356 42.7682 19.231 42.5428 19.231Z" fill="#868B9F"/>
<path d="M13.0672 34.8365C12.8418 34.8365 12.6164 34.7411 12.4516 34.585C12.2956 34.4203 12.2002 34.1949 12.2002 33.9695C12.2002 33.744 12.2956 33.5186 12.4516 33.3539C12.7811 33.0331 13.3533 33.0331 13.6828 33.3539C13.8389 33.5186 13.9342 33.744 13.9342 33.9695C13.9342 34.1949 13.8389 34.4203 13.6828 34.585C13.5181 34.7411 13.2926 34.8365 13.0672 34.8365Z" fill="#868B9F"/>
<path d="M42.5428 26.1709C42.0642 26.1709 41.6758 25.7824 41.6758 25.3038V21.8358C41.6758 21.3572 42.0642 20.9688 42.5428 20.9688C43.0214 20.9688 43.4098 21.3572 43.4098 21.8358V25.3038C43.4098 25.7824 43.0214 26.1709 42.5428 26.1709Z" fill="#868B9F"/>
<path d="M42.5428 15.7633C42.0642 15.7633 41.6758 15.3749 41.6758 14.8963V4.92561C41.6758 4.44702 42.0642 4.05859 42.5428 4.05859C43.0214 4.05859 43.4098 4.44702 43.4098 4.92561V14.8963C43.4098 15.3749 43.0214 15.7633 42.5428 15.7633Z" fill="#868B9F"/>
<path d="M13.0672 31.3663C12.5886 31.3663 12.2002 30.9779 12.2002 30.4993V20.2616C12.2002 19.783 12.5886 19.3945 13.0672 19.3945C13.5458 19.3945 13.9342 19.783 13.9342 20.2616V30.4993C13.9342 30.9779 13.5458 31.3663 13.0672 31.3663Z" fill="#868B9F"/>
<path d="M13.0672 41.7685C12.5886 41.7685 12.2002 41.3801 12.2002 40.9015V37.4334C12.2002 36.9548 12.5886 36.5664 13.0672 36.5664C13.5458 36.5664 13.9342 36.9548 13.9342 37.4334V40.9015C13.9342 41.3801 13.5458 41.7685 13.0672 41.7685Z" fill="#868B9F"/>
<path d="M24.4491 41.3399C23.9705 41.3399 23.582 40.9515 23.582 40.4729V27.0272C23.582 26.5486 23.9705 26.1602 24.4491 26.1602C24.9276 26.1602 25.3161 26.5486 25.3161 27.0272V40.4729C25.3161 40.9515 24.9285 41.3399 24.4491 41.3399Z" fill="#868B9F"/>
<path d="M40.8104 27.8978C40.3318 27.8978 39.9434 27.5093 39.9434 27.0307C39.9434 26.5521 40.3318 26.1637 40.8104 26.1637C41.2881 26.1637 41.6774 25.7744 41.6774 25.2967C41.6774 24.8181 42.0658 24.4297 42.5444 24.4297C43.023 24.4297 43.4114 24.8181 43.4114 25.2967C43.4114 26.7308 42.2444 27.8978 40.8104 27.8978Z" fill="#868B9F"/>
<path d="M40.8118 27.8942H13.0672C12.5886 27.8942 12.2002 27.5058 12.2002 27.0272C12.2002 26.5486 12.5886 26.1602 13.0672 26.1602H40.8118C41.2904 26.1602 41.6788 26.5486 41.6788 27.0272C41.6788 27.5058 41.2904 27.8942 40.8118 27.8942Z" fill="#868B9F"/>
<path d="M37.3419 12.7301H24.6522C24.1736 12.7301 23.7852 12.3417 23.7852 11.8631C23.7852 11.3845 24.1736 10.9961 24.6522 10.9961H37.3419C37.8205 10.9961 38.2089 11.3845 38.2089 11.8631C38.2089 12.3417 37.8205 12.7301 37.3419 12.7301Z" fill="#868B9F"/>
<path d="M37.3426 16.1989H25.6248C25.1462 16.1989 24.7578 15.8105 24.7578 15.3319C24.7578 14.8533 25.1462 14.4648 25.6248 14.4648H37.3426C37.8212 14.4648 38.2096 14.8533 38.2096 15.3319C38.2096 15.8105 37.8212 16.1989 37.3426 16.1989Z" fill="#868B9F"/>
<path d="M37.3424 19.6637H23.8992C23.4207 19.6637 23.0322 19.2753 23.0322 18.7967C23.0322 18.3181 23.4207 17.9297 23.8992 17.9297H37.3424C37.821 17.9297 38.2094 18.3181 38.2094 18.7967C38.2094 19.2753 37.821 19.6637 37.3424 19.6637Z" fill="#868B9F"/>
<path d="M33.8746 9.26138H17.4012C16.9226 9.26138 16.5342 8.87296 16.5342 8.39436C16.5342 7.91577 16.9226 7.52734 17.4012 7.52734H33.8746C34.3532 7.52734 34.7416 7.91577 34.7416 8.39436C34.7416 8.87296 34.3532 9.26138 33.8746 9.26138Z" fill="#868B9F"/>
<path d="M25.6375 4.05792C25.1589 4.05792 24.7705 3.66949 24.7705 3.1909V1.45686C24.7705 0.978268 25.1589 0.589844 25.6375 0.589844C26.1161 0.589844 26.5045 0.978268 26.5045 1.45686V3.1909C26.5045 3.66949 26.1161 4.05792 25.6375 4.05792Z" fill="#868B9F"/>
<path d="M8.7303 9.25724C8.25171 9.25724 7.86328 8.86882 7.86328 8.39022V4.92561C7.86328 4.44702 8.25171 4.05859 8.7303 4.05859C9.20889 4.05859 9.59732 4.44702 9.59732 4.92561V8.39022C9.59732 8.86882 9.20889 9.25724 8.7303 9.25724Z" fill="#868B9F"/>
<path d="M8.7303 5.78839C8.25171 5.78839 7.86328 5.39996 7.86328 4.92137C7.86328 3.48732 9.03029 2.32031 10.4643 2.32031C10.9429 2.32031 11.3314 2.70874 11.3314 3.18733C11.3314 3.66593 10.9429 4.05435 10.4643 4.05435C9.98661 4.05435 9.59732 4.44364 9.59732 4.92137C9.59732 5.39996 9.20889 5.78839 8.7303 5.78839Z" fill="#868B9F"/>
<path d="M40.8103 4.05435H10.4647C9.98608 4.05435 9.59766 3.66593 9.59766 3.18733C9.59766 2.70874 9.98608 2.32031 10.4647 2.32031H40.8103C41.2889 2.32031 41.6774 2.70874 41.6774 3.18733C41.6774 3.66593 41.2889 4.05435 40.8103 4.05435Z" fill="#868B9F"/>
<path d="M42.5444 5.78839C42.0658 5.78839 41.6774 5.39996 41.6774 4.92137C41.6774 4.44364 41.2881 4.05435 40.8104 4.05435C40.3318 4.05435 39.9434 3.66593 39.9434 3.18733C39.9434 2.70874 40.3318 2.32031 40.8104 2.32031C42.2444 2.32031 43.4114 3.48732 43.4114 4.92137C43.4114 5.39996 43.023 5.78839 42.5444 5.78839Z" fill="#868B9F"/>
<path d="M3.38913 18.4518C3.02238 18.4518 2.68077 18.2168 2.56372 17.8475C2.41806 17.3914 2.67037 16.9033 3.12642 16.7585C5.92255 15.8663 8.92331 15.6903 11.8053 16.2504C12.2752 16.3415 12.5821 16.7966 12.492 17.2666C12.4009 17.7365 11.9475 18.04 11.4758 17.9532C8.87736 17.4478 6.17312 17.6073 3.65357 18.411C3.56513 18.4379 3.4767 18.4518 3.38913 18.4518Z" fill="#868B9F"/>
<path d="M11.6421 17.9603C11.3161 17.9603 11.0031 17.7757 10.8557 17.4592C10.6537 17.0257 10.841 16.5098 11.2754 16.3069L19.3404 12.5467C19.7721 12.3438 20.2906 12.5311 20.4926 12.9663C20.6946 13.3998 20.5074 13.9157 20.073 14.1186L12.008 17.8788C11.8901 17.9352 11.7652 17.9603 11.6421 17.9603Z" fill="#868B9F"/>
<path d="M21.1736 17.3551C20.8476 17.3551 20.5346 17.1705 20.3872 16.8549C20.1852 16.4214 20.3724 15.9046 20.8059 15.7026C21.5048 15.3766 21.2351 14.7055 21.1736 14.5746C21.1129 14.4437 20.7756 13.8073 20.0724 14.1316C19.6398 14.3344 19.1222 14.1472 18.9202 13.7119C18.7182 13.2784 18.9054 12.7625 19.3398 12.5597C20.8519 11.853 22.1984 12.6698 22.7446 13.842C23.2908 15.0133 23.0515 16.5688 21.5386 17.2745C21.4215 17.3291 21.2967 17.3551 21.1736 17.3551Z" fill="#868B9F"/>
<path d="M13.0679 21.132C12.7419 21.132 12.4289 20.9473 12.2815 20.6317C12.0795 20.1974 12.2668 19.6815 12.7003 19.4795L20.8069 15.6993C21.2404 15.4955 21.7572 15.6845 21.9592 16.118C22.1612 16.5524 21.9739 17.0683 21.5404 17.2703L13.4338 21.0505C13.3159 21.106 13.191 21.132 13.0679 21.132Z" fill="#868B9F"/>
<path d="M16.3338 43.9404C16.0919 43.9404 15.8509 43.8399 15.6801 43.6431C15.3654 43.2815 15.4035 42.7344 15.7642 42.4197L23.8804 35.35C24.2419 35.0353 24.789 35.0734 25.1037 35.4341C25.4185 35.7957 25.3803 36.3428 25.0196 36.6575L16.9035 43.7272C16.7387 43.8702 16.5358 43.9404 16.3338 43.9404Z" fill="#868B9F"/>
<path d="M32.5647 43.9404C32.3626 43.9404 32.1598 43.8702 31.9959 43.7272L23.8797 36.6575C23.5182 36.3428 23.4809 35.7957 23.7956 35.4341C24.1095 35.0734 24.6574 35.0353 25.019 35.35L33.1351 42.4197C33.4967 42.7344 33.534 43.2815 33.2193 43.6431C33.0476 43.8399 32.8074 43.9404 32.5647 43.9404Z" fill="#868B9F"/>
<path d="M0.928542 30.7134C0.449948 30.7134 0.0615234 30.3249 0.0615234 29.8463V20.9022C0.0615234 20.4236 0.449948 20.0352 0.928542 20.0352C1.40714 20.0352 1.79556 20.4236 1.79556 20.9022V29.8463C1.79556 30.3249 1.40714 30.7134 0.928542 30.7134Z" fill="#868B9F"/>
<path d="M0.928542 21.773C0.449948 21.773 0.0615234 21.3846 0.0615234 20.906C0.0615234 18.9821 1.29876 17.3148 3.14031 16.7565C3.59809 16.6169 4.08276 16.877 4.22148 17.3348C4.3602 17.7934 4.10096 18.2772 3.64318 18.4159C2.53773 18.7515 1.79556 19.752 1.79556 20.906C1.79556 21.3846 1.40714 21.773 0.928542 21.773Z" fill="#868B9F"/>
<path d="M4.39632 41.7681C3.91772 41.7681 3.5293 41.3797 3.5293 40.9011V21.8397C3.5293 21.3611 3.91772 20.9727 4.39632 20.9727C4.87491 20.9727 5.26333 21.3611 5.26333 21.8397V40.9011C5.26333 41.3797 4.87491 41.7681 4.39632 41.7681Z" fill="#868B9F"/>
<path d="M8.73157 17.6545C5.98399 17.6545 3.66211 15.3327 3.66211 12.5851C3.66211 9.8375 5.98399 7.51562 8.73157 7.51562C11.4792 7.51562 13.801 9.83663 13.801 12.5851C13.801 15.3335 11.4792 17.6545 8.73157 17.6545ZM8.73157 9.25053C6.92383 9.25053 5.39615 10.7782 5.39615 12.586C5.39615 14.3937 6.92383 15.9214 8.73157 15.9214C10.5393 15.9214 12.067 14.3937 12.067 12.586C12.067 10.7774 10.5393 9.25053 8.73157 9.25053Z" fill="#868B9F"/>
<path d="M8.73128 41.7764C8.25268 41.7764 7.86426 41.3879 7.86426 40.9094V29.8514C7.86426 29.3728 8.25268 28.9844 8.73128 28.9844C9.20987 28.9844 9.5983 29.3728 9.5983 29.8514V40.9094C9.5983 41.3879 9.20987 41.7764 8.73128 41.7764Z" fill="#868B9F"/>
<path d="M2.66258 32.3961C1.36985 32.3961 0.0615234 31.5221 0.0615234 29.8514C0.0615234 29.3728 0.449948 28.9844 0.928542 28.9844C1.40714 28.9844 1.79556 29.3728 1.79556 29.8514C1.79556 30.623 2.51779 30.6621 2.66258 30.6621C2.80737 30.6621 3.5296 30.623 3.5296 29.8514C3.5296 29.3728 3.91802 28.9844 4.39662 28.9844C4.87521 28.9844 5.26364 29.3728 5.26364 29.8514C5.26364 31.5221 3.95531 32.3961 2.66258 32.3961Z" fill="#868B9F"/>
<path d="M10.8978 43.8735C10.1227 43.8735 9.3927 43.6134 8.84215 43.14C8.21096 42.5972 7.86328 41.8048 7.86328 40.91C7.86328 40.4314 8.25171 40.043 8.7303 40.043C9.20889 40.043 9.59732 40.4314 9.59732 40.91C9.59732 42.1047 10.7652 42.1394 10.8978 42.1394C11.0305 42.1394 12.1984 42.1047 12.1984 40.91C12.1984 40.4314 12.5868 40.043 13.0654 40.043C13.544 40.043 13.9324 40.4314 13.9324 40.91C13.9324 42.8556 12.4056 43.8735 10.8978 43.8735Z" fill="#868B9F"/>
<path d="M6.56386 43.8735C5.78875 43.8735 5.05872 43.6134 4.50816 43.14C3.87697 42.5972 3.5293 41.8048 3.5293 40.91C3.5293 40.4314 3.91772 40.043 4.39632 40.043C4.87491 40.043 5.26333 40.4314 5.26333 40.91C5.26333 42.1047 6.43121 42.1394 6.56386 42.1394C6.69652 42.1394 7.86439 42.1047 7.86439 40.91C7.86439 40.4314 8.25282 40.043 8.73141 40.043C9.21 40.043 9.59843 40.4314 9.59843 40.91C9.59843 42.8556 8.07161 43.8735 6.56386 43.8735Z" fill="#868B9F"/>
</svg>
