<svg width="24" height="24" viewBox="0 0 24 24" fill="none" xmlns="http://www.w3.org/2000/svg">
<g clip-path="url(#clip0_7554_11191)">
<g clip-path="url(#clip1_7554_11191)">
<path d="M0 14.3985V21.5985C0 23.1741 2.41523 23.9986 4.79993 23.9986C7.18484 23.9986 9.60007 23.1741 9.60007 21.5985V14.3985C9.60007 11.2474 0 11.2474 0 14.3985ZM8.39993 19.1984C8.39993 19.6214 7.03367 20.3986 4.79993 20.3986C2.56641 20.3986 1.19993 19.6214 1.19993 19.1984V18.421C2.32097 18.9629 3.55518 19.2294 4.79993 19.1984C6.04468 19.2294 7.27888 18.9629 8.39993 18.421V19.1984ZM8.39993 16.7986C8.39993 17.2215 7.03367 17.9985 4.79993 17.9985C2.56641 17.9985 1.19993 17.2215 1.19993 16.7986V16.0209C2.32097 16.563 3.55518 16.8295 4.79993 16.7986C6.04468 16.8295 7.27888 16.563 8.39993 16.0209V16.7986ZM4.79993 13.1986C7.03367 13.1986 8.39993 13.9755 8.39993 14.3985C8.39993 14.8215 7.03367 15.5984 4.79993 15.5984C2.56641 15.5984 1.19993 14.8215 1.19993 14.3985C1.19993 13.9755 2.56641 13.1986 4.79993 13.1986ZM4.79993 22.7984C2.56641 22.7984 1.19993 22.0215 1.19993 21.5985V20.8211C2.32097 21.3629 3.55518 21.6295 4.79993 21.5985C6.04468 21.6295 7.27888 21.3629 8.39993 20.8211V21.5985C8.39993 22.0215 7.03367 22.7984 4.79993 22.7984Z" fill="#1B2651"/>
<path d="M18.2842 4.04956L19.8708 0.867701C19.9635 0.681812 19.9534 0.461206 19.844 0.284546C19.7348 0.107886 19.5419 0.000220062 19.3343 3.3499e-07H12.1343C11.926 -0.000219392 11.7328 0.107666 11.6234 0.284766C11.514 0.461866 11.5041 0.68291 11.5975 0.869019L13.1683 4.00232C10.3764 4.90034 8.20752 7.30569 7.48308 10.5743C7.41145 10.898 7.61535 11.2184 7.93879 11.2904C8.09436 11.3265 8.25784 11.2986 8.39253 11.2129C8.52722 11.127 8.62192 10.9907 8.65488 10.8345C9.45403 7.22527 12.2454 4.79993 15.5993 4.79993C19.7713 4.79993 22.7993 8.33269 22.7993 13.2001V18.6001C22.7976 20.2562 21.4555 21.5982 19.7994 21.6H11.3995C11.0681 21.6 10.7994 21.8687 10.7994 22.2001C10.7994 22.5314 11.0681 22.7999 11.3995 22.7999H19.7994C22.1177 22.7973 23.9966 20.9184 23.9995 18.6001V13.2001C23.9995 8.72556 21.7113 5.2429 18.2842 4.04956ZM14.3649 3.7103L13.1057 1.19993H18.365L17.0968 3.7426C16.6028 3.6501 16.1019 3.60242 15.5993 3.6C15.1856 3.60483 14.7729 3.64175 14.3649 3.7103Z" fill="#1B2651"/>
<path d="M16.1991 15.6014H13.7991C13.4677 15.6014 13.1992 15.8701 13.1992 16.2015C13.1992 16.5328 13.4677 16.8016 13.7991 16.8016H14.9992V17.4014C14.9992 17.7328 15.2677 18.0015 15.5991 18.0015C15.9304 18.0015 16.1991 17.7328 16.1991 17.4014V16.8016C17.1932 16.8016 17.9991 15.9956 17.9991 15.0016C17.9991 14.0073 17.1932 13.2016 16.1991 13.2016H14.9992C14.6679 13.2016 14.3991 12.9328 14.3991 12.6015C14.3991 12.2701 14.6679 12.0014 14.9992 12.0014H17.3991C17.7304 12.0014 17.9991 11.7329 17.9991 11.4016C17.9991 11.0702 17.7304 10.8015 17.3991 10.8015H16.1991V10.2014C16.1991 9.87007 15.9304 9.60156 15.5991 9.60156C15.2677 9.60156 14.9992 9.87007 14.9992 10.2014V10.8015C14.005 10.8015 13.1992 11.6074 13.1992 12.6015C13.1992 13.5955 14.005 14.4015 14.9992 14.4015H16.1991C16.5305 14.4015 16.7992 14.6702 16.7992 15.0016C16.7992 15.3329 16.5305 15.6014 16.1991 15.6014Z" fill="#1B2651"/>
</g>
</g>
<defs>
<clipPath id="clip0_7554_11191">
<rect width="24" height="24" fill="white"/>
</clipPath>
<clipPath id="clip1_7554_11191">
<rect width="24" height="24" fill="white"/>
</clipPath>
</defs>
</svg>
