<svg width="43" height="44" viewBox="0 0 43 44" fill="none" xmlns="http://www.w3.org/2000/svg">
<path d="M38.2604 25.4526C44.5434 19.1555 44.5434 8.96072 38.2604 2.66367C37.9806 2.38391 37.5274 2.38391 37.2477 2.66367L35.6999 4.2111C32.9352 1.71284 29.2423 0.501128 25.5344 0.875307C21.8269 1.24949 18.4509 3.17528 16.2412 6.17571L16.2342 6.18375C12.7449 10.8519 12.7449 17.2602 16.2342 21.9283L16.2412 21.936C16.486 22.2654 16.7454 22.5829 17.0189 22.8879L15.4711 24.4426C15.1917 24.7224 15.1917 25.176 15.4711 25.4554C17.9655 27.9529 21.2171 29.5535 24.7172 30.0067V30.8883H21.8525C21.4569 30.8883 21.1363 31.209 21.1363 31.6045V33.7531H16.8322C15.6453 33.7531 14.6836 34.7151 14.6836 35.9016V37.334C14.6857 37.5788 14.7305 37.8211 14.8151 38.0502H8.40404L16.9661 33.1086C17.4602 32.8239 17.8208 32.3546 17.9683 31.8038C18.1163 31.253 18.039 30.6659 17.7536 30.1721L17.0374 28.931C16.4429 27.9047 15.1298 27.5522 14.1014 28.1432L3.18652 34.4458L1.07608 35.6656C0.581953 35.9502 0.221063 36.4195 0.0734891 36.9703C-0.0744339 37.5211 0.00284974 38.1079 0.288205 38.6016L1.00439 39.8413C1.28905 40.3355 1.75834 40.6963 2.30912 40.8439C2.8599 40.9918 3.44705 40.9146 3.94082 40.6292L5.85018 39.527C5.77465 39.7431 5.73443 39.97 5.73129 40.1987V41.6311C5.73129 42.818 6.69296 43.7797 7.87984 43.7797H33.6625C34.8491 43.7797 35.8111 42.818 35.8111 41.6311V40.1987C35.8072 39.1007 34.9743 38.1827 33.8814 38.0725C33.9713 37.8365 34.0185 37.5865 34.0206 37.334V35.9016C34.0192 35.297 33.7615 34.7214 33.3114 34.3175V31.6045C33.3114 31.209 32.9908 30.8883 32.5952 30.8883H29.7305V29.9008C32.9635 29.3304 35.9419 27.777 38.2604 25.4526ZM12.5858 30.6736L14.0181 33.1544L5.95544 37.8096L4.52307 35.3288L12.5858 30.6736ZM14.8175 29.3846C15.1599 29.1867 15.5981 29.3042 15.7957 29.6465L16.5118 30.8869C16.7098 31.2296 16.5923 31.6674 16.2499 31.8654L15.2585 32.4382L13.8261 29.9574L14.8175 29.3846ZM3.22464 39.3867C2.88228 39.584 2.4448 39.4668 2.24687 39.1244L1.53069 37.8834C1.33241 37.541 1.44956 37.1025 1.79226 36.9045L3.28199 36.045L4.71436 38.5258L3.22464 39.3867ZM17.9736 21.8157C19.1255 21.2988 20.3323 20.9145 21.5709 20.6701C21.9658 22.3836 22.6945 24.0024 23.7153 25.434C21.4891 24.8151 19.4927 23.5572 17.9736 21.8157ZM15.0854 14.7741H20.7939C20.8229 16.2831 20.9758 17.7868 21.251 19.2706C19.805 19.5566 18.4013 20.0252 17.0735 20.6655C15.8932 18.9163 15.2064 16.8811 15.0854 14.7741ZM17.0735 7.45072C18.4013 8.09067 19.805 8.55962 21.251 8.84567C20.9758 10.3294 20.8229 11.8332 20.7939 13.3418H15.0854C15.2064 11.2352 15.8932 9.19992 17.0735 7.45072ZM26.8658 2.24089C28.303 2.24089 29.8431 4.3181 30.7425 7.69131C29.4584 7.87665 28.1631 7.97002 26.8658 7.97037C25.5687 7.97002 24.2731 7.87665 22.989 7.69131C23.8888 4.3181 25.4264 2.24089 26.8658 2.24089ZM35.7579 6.3002C34.606 6.81741 33.3992 7.20208 32.1606 7.44617C31.7658 5.73264 31.0373 4.11388 30.0162 2.68221C32.2427 3.30118 34.2388 4.55905 35.7579 6.3002ZM26.8658 9.40274C28.2715 9.40379 29.6756 9.30168 31.0664 9.0971C31.329 10.4977 31.4759 11.9174 31.5052 13.3418H29.3654C28.9699 13.3418 28.6492 13.6624 28.6492 14.0579C28.6492 14.4535 28.9699 14.7741 29.3654 14.7741H31.5052C31.4759 16.1988 31.329 17.6186 31.0664 19.0191C28.2806 18.6114 25.4509 18.6114 22.6655 19.0191C22.4025 17.6186 22.2557 16.1988 22.2263 14.7741H25.0683C25.4638 14.7741 25.7845 14.4535 25.7845 14.0579C25.7845 13.6624 25.4638 13.3418 25.0683 13.3418H22.2263C22.2557 11.9174 22.4025 10.4977 22.6655 9.0971C24.0563 9.30168 25.46 9.40379 26.8658 9.40274ZM22.9911 20.4249C25.5624 20.0525 28.1736 20.0525 30.7446 20.4249C29.8431 23.7981 28.303 25.875 26.8658 25.875C25.4285 25.875 23.8888 23.7981 22.9911 20.4249ZM32.1627 20.6715C33.4013 20.9156 34.6085 21.3002 35.76 21.8171C34.2413 23.5589 32.2448 24.8175 30.0183 25.4368C31.038 24.0045 31.7651 22.385 32.1585 20.6715H32.1627ZM36.6605 20.6655C35.3327 20.0252 33.929 19.5566 32.483 19.2706C32.7579 17.7868 32.9107 16.2831 32.939 14.7741H38.6485C38.5265 16.8811 37.839 18.9163 36.6581 20.6655H36.6605ZM32.9369 13.3418C32.9086 11.8332 32.7558 10.3294 32.4805 8.84567C33.9265 8.55962 35.3306 8.09067 36.6581 7.45072C37.8379 9.19992 38.5248 11.2352 38.6465 13.3418H32.9369ZM23.7153 2.68081C22.6945 4.11248 21.9658 5.73124 21.5709 7.44477C20.3323 7.20033 19.1255 6.81566 17.9736 6.2988C19.4927 4.55765 21.4891 3.29978 23.7153 2.68081ZM18.0316 23.9048C20.7824 26.3905 24.4521 27.6032 28.1422 27.2462C31.8322 26.8891 35.2016 24.9952 37.4246 22.0287C37.4512 21.9986 37.475 21.9664 37.4963 21.9325V21.929C40.9845 17.2616 40.9845 10.8547 37.4963 6.18725C37.4924 6.18166 37.4875 6.17851 37.484 6.17361C37.2403 5.84594 36.9826 5.53086 36.7105 5.22837L37.7446 4.19536C43.0226 9.99408 42.8124 18.9167 37.2676 24.4605C31.7227 30.0043 22.8001 30.213 17.0025 24.934L18.0316 23.9048ZM13.6093 39.4825V42.3473H10.7446V39.4825H13.6093ZM7.16366 41.6311V40.1987C7.16366 39.8032 7.48433 39.4825 7.87984 39.4825H9.31221V42.3473H7.87984C7.48433 42.3473 7.16366 42.0266 7.16366 41.6311ZM34.3787 40.1987V41.6311C34.3787 42.0266 34.058 42.3473 33.6625 42.3473H22.9197V41.6311C22.9197 41.2356 22.5991 40.9149 22.2036 40.9149C21.808 40.9149 21.4874 41.2356 21.4874 41.6311V42.3473H15.0417V39.4825H22.2036C22.5991 39.4825 22.9197 39.1619 22.9197 38.7664C22.9197 38.3708 22.5991 38.0502 22.2036 38.0502H16.8322C16.4367 38.0502 16.116 37.7295 16.116 37.334V35.9016C16.116 35.5061 16.4367 35.1854 16.8322 35.1854H28.6492V38.0502H25.7845C25.389 38.0502 25.0683 38.3708 25.0683 38.7664C25.0683 39.1619 25.389 39.4825 25.7845 39.4825H33.6625C34.058 39.4825 34.3787 39.8032 34.3787 40.1987ZM31.8721 35.1854C32.2676 35.1854 32.5882 35.5061 32.5882 35.9016V37.334C32.5882 37.7295 32.2676 38.0502 31.8721 38.0502H30.0816V35.1854H31.8721ZM31.8791 33.7531H22.5686V32.3207H31.8791V33.7531ZM28.2981 30.8883H26.1496V30.1302C26.3888 30.1407 26.6252 30.1651 26.8658 30.1651C27.3469 30.1651 27.8232 30.1365 28.2981 30.0934V30.8883Z" fill="#868B9F"/>
<path d="M3.58386 15.8533C3.97937 15.8533 4.30004 15.5326 4.30004 15.1371C4.30004 14.7416 3.97937 14.4209 3.58386 14.4209C2.39698 14.4209 1.4353 13.4592 1.4353 12.2723C1.4353 11.0858 2.39698 10.1238 3.58386 10.1238C4.77039 10.1238 5.73241 11.0858 5.73241 12.2723C5.73241 12.6678 6.05309 12.9885 6.4486 12.9885C6.84411 12.9885 7.16479 12.6678 7.16479 12.2723C7.16479 10.2948 5.56141 8.69141 3.58386 8.69141C1.60595 8.69141 0.00292969 10.2948 0.00292969 12.2723C0.00292969 14.2502 1.60595 15.8533 3.58386 15.8533Z" fill="#868B9F"/>
<path d="M10.0284 8.68383C11.215 8.68383 12.177 7.72216 12.177 6.53528C12.177 5.34874 11.215 4.38672 10.0284 4.38672C8.84156 4.38672 7.87988 5.34874 7.87988 6.53528C7.87988 7.72216 8.84156 8.68383 10.0284 8.68383ZM10.0284 5.81909C10.424 5.81909 10.7446 6.13977 10.7446 6.53528C10.7446 6.93079 10.424 7.25146 10.0284 7.25146C9.63293 7.25146 9.31225 6.93079 9.31225 6.53528C9.31225 6.13977 9.63293 5.81909 10.0284 5.81909Z" fill="#868B9F"/>
</svg>
