<svg width="15" height="15" viewBox="0 0 15 15" fill="none" xmlns="http://www.w3.org/2000/svg">
<path d="M14.3895 4.86617L6.02065 0.0305911C5.98769 0.0114604 5.95043 0.000959866 5.91233 6.27472e-05C5.87422 -0.000834371 5.83651 0.00790091 5.80269 0.0254591L0.143872 2.93109C0.10843 2.94946 0.0784667 2.97687 0.0570119 3.01053C0.0355571 3.04419 0.0233712 3.08292 0.0216864 3.12281C0.0200016 3.16269 0.0288776 3.20231 0.047417 3.23767C0.0659563 3.27302 0.0935017 3.30285 0.127268 3.32415L4.30685 5.96261C4.35765 5.99464 4.4191 6.00517 4.47766 5.9919C4.53623 5.97862 4.58713 5.94262 4.61915 5.89182C4.65118 5.84102 4.66171 5.77958 4.64843 5.72101C4.63516 5.66244 4.59916 5.61155 4.54836 5.57952L0.703866 3.15298L5.9008 0.483417L13.8277 5.06451L8.62017 8.15127L8.50455 8.07821C8.45375 8.04619 8.39231 8.03566 8.33374 8.04893C8.27517 8.06221 8.22428 8.09821 8.19225 8.14901C8.16022 8.19981 8.14969 8.26125 8.16297 8.31982C8.17624 8.37839 8.21224 8.42928 8.26304 8.46131L8.49549 8.60802C8.53075 8.63033 8.57149 8.64245 8.61321 8.64303C8.65493 8.64362 8.696 8.63265 8.73187 8.61134L14.3916 5.25681C14.4256 5.23671 14.4538 5.20805 14.4733 5.17367C14.4928 5.13929 14.5029 5.1004 14.5027 5.06088C14.5025 5.02136 14.4919 4.98258 14.4721 4.94842C14.4522 4.91425 14.4237 4.8859 14.3895 4.86617Z" fill="#FFAA00"/>
<path d="M7.22427 5.33519C7.24439 5.33519 7.26452 5.33519 7.28464 5.33519C8.16192 5.31135 8.83995 4.79422 8.82848 4.15785C8.82415 4.03198 8.79446 3.90828 8.74119 3.79416C8.68791 3.68004 8.61215 3.57785 8.51844 3.4937C8.16388 3.19029 7.7059 3.03543 7.23997 3.0614C6.36299 3.08525 5.68496 3.60238 5.69643 4.23875C5.70072 4.3646 5.73037 4.48828 5.78359 4.6024C5.83681 4.71652 5.91251 4.81873 6.00617 4.9029C6.34391 5.19415 6.77848 5.34838 7.22427 5.33519ZM7.25083 3.51242H7.29853C7.62817 3.49876 7.95106 3.60844 8.20418 3.82004C8.25386 3.8636 8.29446 3.91652 8.32367 3.97578C8.35289 4.03503 8.37014 4.09947 8.37445 4.16539C8.38109 4.53731 7.87573 4.86546 7.27106 4.88207C6.92587 4.90481 6.58502 4.795 6.31801 4.57505C6.2683 4.53148 6.22769 4.47851 6.19852 4.41919C6.16935 4.35987 6.1522 4.29537 6.14805 4.22939C6.14081 3.85717 6.64707 3.52872 7.25083 3.51242Z" fill="#FFAA00"/>
<path d="M2.53077 3.40196C2.50245 3.42446 2.47995 3.45342 2.46514 3.48641C2.45033 3.5194 2.44365 3.55547 2.44566 3.59158C2.44767 3.62768 2.45832 3.66278 2.4767 3.69393C2.49508 3.72507 2.52066 3.75135 2.5513 3.77056L7.8077 7.0774C7.84146 7.09867 7.88024 7.11062 7.92011 7.11206C7.95998 7.11349 7.99953 7.10434 8.03472 7.08555C8.2367 6.97781 8.45842 6.91209 8.68649 6.89235H8.68981C8.9862 6.88371 9.27993 6.95039 9.54354 7.08616C9.5781 7.1064 9.61744 7.11707 9.6575 7.11707C9.69756 7.11707 9.73689 7.1064 9.77146 7.08616L11.9429 5.79953C11.9713 5.78273 11.9957 5.75992 12.0144 5.73269C12.0331 5.70545 12.0456 5.67446 12.051 5.64189C12.0564 5.60932 12.0546 5.57596 12.0457 5.54416C12.0369 5.51235 12.0211 5.48287 11.9997 5.45779C11.9169 5.37236 11.8683 5.25948 11.8632 5.14061C11.8582 5.02173 11.897 4.90514 11.9722 4.81297C11.991 4.78727 12.0042 4.75789 12.0109 4.72674C12.0175 4.6956 12.0175 4.66339 12.0109 4.63224C12.0043 4.60109 11.9911 4.57169 11.9723 4.54597C11.9535 4.52026 11.9295 4.4988 11.9019 4.48301L6.56092 1.39745C6.52981 1.37959 6.49492 1.36932 6.45909 1.36749C6.42326 1.36565 6.38751 1.3723 6.35473 1.38689C6.14422 1.4791 5.91764 1.52906 5.68787 1.53391C5.45177 1.54173 5.21654 1.50136 4.99656 1.41526C4.96632 1.40316 4.93384 1.39766 4.90131 1.39912C4.86877 1.40058 4.83692 1.40896 4.80788 1.42372L2.85831 2.42476C2.80602 2.45169 2.76625 2.4979 2.74743 2.55363C2.72861 2.60935 2.73222 2.67021 2.75748 2.72333C2.787 2.78388 2.80306 2.8501 2.80458 2.91744C2.79923 3.01381 2.77174 3.10765 2.72426 3.19168C2.67677 3.2757 2.61056 3.34766 2.53077 3.40196ZM3.23778 2.73782L4.92592 1.87171C5.17526 1.95522 5.43742 1.99385 5.70025 1.98583C5.94995 1.97981 6.19687 1.93206 6.43081 1.84454L11.4828 4.76376C11.4309 4.88547 11.4062 5.0171 11.4106 5.14936C11.415 5.28163 11.4483 5.41133 11.5082 5.52934L9.64859 6.63122C9.34705 6.50007 9.02101 6.43471 8.69222 6.43952C8.4321 6.44986 8.17692 6.51378 7.94265 6.62729L3.0325 3.53842C3.17867 3.36142 3.25824 3.13883 3.2574 2.90929C3.25631 2.85194 3.24974 2.79482 3.23778 2.73872V2.73782Z" fill="#FFAA00"/>
<path d="M1.80516 5.81787C1.85421 5.81783 1.90192 5.80186 1.94111 5.77236C1.9803 5.74287 2.00885 5.70145 2.02247 5.65433C2.03608 5.60721 2.03403 5.55694 2.01662 5.51108C1.99921 5.46523 1.96738 5.42627 1.92591 5.40007L0.357928 4.40989C0.307127 4.37786 0.245684 4.36733 0.187117 4.3806C0.128549 4.39388 0.0776546 4.42988 0.0456288 4.48068C0.0136029 4.53148 0.00306938 4.59292 0.0163454 4.65149C0.0296215 4.71006 0.0656196 4.76095 0.116421 4.79298L1.68441 5.78286C1.7205 5.80579 1.7624 5.81793 1.80516 5.81787Z" fill="#FFAA00"/>
<path d="M14.4621 6.415C14.4468 6.38946 14.4267 6.36718 14.4028 6.34943C14.379 6.33167 14.3518 6.3188 14.323 6.31154C14.2941 6.30427 14.2641 6.30277 14.2347 6.30711C14.2053 6.31144 14.177 6.32154 14.1515 6.33681L8.61008 9.6186L8.50351 9.55158C8.47838 9.53461 8.45009 9.52286 8.42034 9.51703C8.39058 9.5112 8.35995 9.5114 8.33027 9.51764C8.30059 9.52387 8.27247 9.536 8.24757 9.55331C8.22267 9.57062 8.2015 9.59276 8.18532 9.6184C8.16914 9.64405 8.15827 9.67269 8.15337 9.70261C8.14847 9.73254 8.14963 9.76315 8.15678 9.79262C8.16393 9.82209 8.17693 9.84982 8.19501 9.87417C8.21308 9.89852 8.23587 9.91899 8.26201 9.93437L8.4854 10.0753C8.52147 10.0983 8.56338 10.1105 8.60615 10.1104C8.6467 10.1108 8.68663 10.1004 8.72177 10.0802L14.3815 6.72625C14.4073 6.71122 14.43 6.69121 14.448 6.66739C14.4661 6.64356 14.4793 6.61639 14.4868 6.58745C14.4943 6.5585 14.4959 6.52835 14.4917 6.49875C14.4875 6.46915 14.4774 6.44069 14.4621 6.415Z" fill="#FFAA00"/>
<path d="M0.357928 5.67551C0.307127 5.64349 0.245684 5.63295 0.187117 5.64623C0.128549 5.6595 0.0776546 5.6955 0.0456288 5.7463C0.0136029 5.7971 0.00306938 5.85855 0.0163454 5.91711C0.0296215 5.97568 0.0656196 6.02658 0.116421 6.0586L0.756717 6.46343C0.807518 6.49546 0.86896 6.50599 0.927528 6.49271C0.986095 6.47944 1.03699 6.44344 1.06902 6.39264C1.10104 6.34184 1.11158 6.28039 1.0983 6.22183C1.08502 6.16326 1.04902 6.11236 0.998224 6.08034L0.357928 5.67551Z" fill="#FFAA00"/>
<path d="M14.1515 7.6025L8.61008 10.8855L8.50351 10.8185C8.47838 10.8015 8.45009 10.7898 8.42034 10.7839C8.39058 10.7781 8.35995 10.7783 8.33027 10.7845C8.30059 10.7908 8.27247 10.8029 8.24757 10.8202C8.22267 10.8375 8.2015 10.8597 8.18532 10.8853C8.16914 10.9109 8.15827 10.9396 8.15337 10.9695C8.14847 10.9994 8.14963 11.03 8.15678 11.0595C8.16393 11.089 8.17693 11.1167 8.19501 11.1411C8.21308 11.1654 8.23587 11.1859 8.26201 11.2013L8.4854 11.3422C8.52145 11.3653 8.56335 11.3776 8.60615 11.3776C8.6467 11.378 8.68662 11.3676 8.72177 11.3474L14.3815 7.99344C14.4076 7.97856 14.4305 7.95862 14.4488 7.93479C14.4672 7.91097 14.4806 7.88373 14.4883 7.85467C14.496 7.8256 14.4978 7.7953 14.4937 7.76553C14.4895 7.73575 14.4795 7.7071 14.4641 7.68124C14.4488 7.65538 14.4285 7.63283 14.4043 7.61492C14.3802 7.597 14.3527 7.58407 14.3235 7.57688C14.2943 7.56969 14.264 7.56839 14.2343 7.57305C14.2046 7.5777 14.1761 7.58823 14.1506 7.60401L14.1515 7.6025Z" fill="#FFAA00"/>
<path d="M3.942 14.4925C5.85293 14.4925 7.8843 13.9691 7.8843 12.9991V8.03221C7.88411 8.00096 7.87732 7.9701 7.86438 7.94164C7.66665 7.06799 5.75119 6.59766 3.942 6.59766C2.13281 6.59766 0.217055 7.06799 0.0199243 7.94164C0.00698704 7.9701 0.00019775 8.00096 0 8.03221V12.9991C0 13.9691 2.03108 14.4925 3.942 14.4925ZM3.942 14.0397C1.78021 14.0397 0.452826 13.4335 0.452826 12.9991V12.261C1.15712 12.7664 2.57809 13.0344 3.942 13.0344C5.30591 13.0344 6.72718 12.7664 7.43148 12.261V12.9991C7.43208 13.4335 6.10379 14.0397 3.942 14.0397ZM7.43208 9.81604C7.43208 10.2505 6.10379 10.8566 3.94261 10.8566C1.78142 10.8566 0.452826 10.2505 0.452826 9.81604V8.81137C1.15712 9.31673 2.57809 9.5848 3.942 9.5848C5.30591 9.5848 6.72718 9.31673 7.43148 8.81137L7.43208 9.81604ZM3.942 11.3095C5.30591 11.3095 6.72718 11.0414 7.43148 10.536V11.541C7.43148 11.9754 6.10319 12.5816 3.942 12.5816C1.78081 12.5816 0.452826 11.9754 0.452826 11.541V10.536C1.15712 11.0414 2.57809 11.3095 3.942 11.3095ZM3.942 7.05048C6.10379 7.05048 7.43208 7.65667 7.43208 8.09259C7.43208 8.52851 6.10379 9.13348 3.94261 9.13348C1.78142 9.13348 0.452826 8.52579 0.452826 8.09259C0.452826 7.65938 1.78021 7.05048 3.942 7.05048Z" fill="#FFAA00"/>
</svg>
