<svg width="18" height="18" viewBox="0 0 18 18" fill="none" xmlns="http://www.w3.org/2000/svg">
<g id="person_black_24dp (7) 3">
<g id="presentation_8388427 1">
<path id="Vector" d="M0.300018 16.7166V17.1C0.300018 17.3387 0.394839 17.5676 0.563622 17.7364C0.732405 17.9052 0.961323 18 1.20002 18H1.50002C1.60566 17.9994 1.70922 17.9706 1.80002 17.9166C1.89081 17.9706 1.99438 17.9994 2.10002 18H5.70002C5.85915 18 6.01176 17.9368 6.12428 17.8243C6.2368 17.7117 6.30002 17.5591 6.30002 17.4V13.7964L6.60362 14.3637C6.66829 14.517 6.76888 14.6525 6.8969 14.7588C7.02492 14.8651 7.17663 14.9391 7.33922 14.9745C7.49702 15.0118 7.66143 15.011 7.81886 14.9722C7.97629 14.9334 8.12223 14.8577 8.24462 14.7513L10.2147 13.2867C10.2674 13.2403 10.3105 13.1839 10.3414 13.1207C10.3723 13.0576 10.3904 12.989 10.3947 12.9189C10.6281 12.7251 10.8958 12.577 11.184 12.4824C11.2672 12.4576 11.3462 12.4207 11.4186 12.3729C11.5363 12.2994 11.6377 12.2025 11.7165 12.0882C11.7952 11.9738 11.8497 11.8446 11.8764 11.7084C11.8939 11.6064 11.8952 11.5023 11.88 11.4H17.1C17.3387 11.4 17.5676 11.3052 17.7364 11.1364C17.9052 10.9676 18 10.7387 18 10.5V0.9C18 0.661305 17.9052 0.432387 17.7364 0.263604C17.5676 0.0948212 17.3387 0 17.1 0L4.50002 0C4.26132 0 4.0324 0.0948212 3.86362 0.263604C3.69484 0.432387 3.60002 0.661305 3.60002 0.9V3.3177C2.94044 3.39217 2.33132 3.7067 1.88872 4.20137C1.44612 4.69603 1.20098 5.33624 1.20002 6V6.9C1.20001 7.08888 1.25944 7.27297 1.36987 7.42621C1.4803 7.57944 1.63614 7.69405 1.81532 7.7538C1.85148 8.04666 1.94895 8.32862 2.10139 8.58128C2.25383 8.83395 2.4578 9.05165 2.70002 9.2202V9.66L1.70762 9.8811C1.22238 9.98668 0.78808 10.2556 0.477279 10.6429C0.166478 11.0302 -0.00199301 11.5124 1.77935e-05 12.009V16.2C0.000333977 16.3049 0.0282188 16.4078 0.0808746 16.4985C0.13353 16.5891 0.209106 16.6644 0.300018 16.7166ZM1.20002 17.4C1.12045 17.4 1.04415 17.3684 0.987886 17.3121C0.931625 17.2559 0.900018 17.1796 0.900018 17.1V16.8H1.50002V17.4H1.20002ZM2.10002 16.8H3.60002V17.4H2.10002V16.8ZM4.20002 17.4V16.8H5.70002V17.4H4.20002ZM9.33422 11.73C9.26439 11.7219 9.19363 11.7276 9.12603 11.7469C9.05843 11.7662 8.99531 11.7987 8.94032 11.8425L8.24222 12.4233L7.85792 11.4H9.66632C9.56258 11.5168 9.45167 11.627 9.33422 11.73ZM11.0901 11.8689C11.0667 11.8847 11.0412 11.897 11.0142 11.9055C10.6899 12.0072 10.3859 12.165 10.116 12.3717L9.84332 12.0804C10.106 11.8415 10.3241 11.5578 10.4874 11.2425C10.5059 11.2136 10.5318 11.1902 10.5624 11.1747C10.6668 11.1095 10.7917 11.0853 10.9129 11.1067C11.0341 11.1282 11.1431 11.1937 11.2188 11.2908C11.2501 11.3338 11.2722 11.3828 11.2838 11.4347C11.2954 11.4866 11.2962 11.5404 11.2863 11.5926C11.2745 11.6499 11.251 11.7041 11.2172 11.7519C11.1835 11.7996 11.1402 11.8399 11.0901 11.8701V11.8689ZM4.50002 0.6H17.1C17.1796 0.6 17.2559 0.631607 17.3122 0.687868C17.3684 0.744129 17.4 0.820435 17.4 0.9V10.5C17.4 10.5796 17.3684 10.6559 17.3122 10.7121C17.2559 10.7684 17.1796 10.8 17.1 10.8H11.58C11.445 10.6734 11.2797 10.5836 11.1 10.5393V8.4C11.1 8.32044 11.0684 8.24413 11.0122 8.18787C10.9559 8.13161 10.8796 8.1 10.8 8.1C10.7205 8.1 10.6441 8.13161 10.5879 8.18787C10.5316 8.24413 10.5 8.32044 10.5 8.4V10.5534C10.41 10.5798 10.3239 10.6181 10.2441 10.6674C10.1842 10.7047 10.1291 10.7493 10.08 10.8H7.53362C7.22687 10.3895 6.78349 10.1022 6.28352 9.99L5.10002 9.6702V9.2202C5.34223 9.05165 5.54621 8.83395 5.69865 8.58128C5.85108 8.32862 5.94856 8.04666 5.98472 7.7538C6.1639 7.69405 6.31974 7.57944 6.43017 7.42621C6.5406 7.27297 6.60002 7.08888 6.60002 6.9V6C6.59905 5.33624 6.35391 4.69603 5.91131 4.20137C5.46871 3.7067 4.85959 3.39217 4.20002 3.3177V0.9C4.20002 0.820435 4.23163 0.744129 4.28789 0.687868C4.34415 0.631607 4.42045 0.6 4.50002 0.6ZM4.49552 13.9938L3.90002 14.3898L3.30452 13.9938L3.55832 12.3H4.24172L4.49552 13.9938ZM2.86202 10.2381C2.98752 10.3988 3.14558 10.531 3.32582 10.6263C3.21928 10.779 3.13823 10.948 3.08582 11.1267C3.08046 11.1441 3.0709 11.16 3.05798 11.1728C3.04505 11.1857 3.02917 11.1952 3.01172 11.2005C2.99332 11.207 2.97363 11.209 2.95431 11.2063C2.93499 11.2036 2.91661 11.1962 2.90072 11.1849C2.62672 10.9699 2.41155 10.6891 2.27522 10.3686L2.86202 10.2381ZM3.51632 11.7L3.48152 11.5956C3.56662 11.5123 3.62865 11.4083 3.66152 11.2938C3.70282 11.1326 3.78496 10.9847 3.90002 10.8645C4.01393 10.9836 4.09533 11.13 4.13642 11.2896C4.16974 11.4055 4.23248 11.5108 4.31852 11.5953L4.28372 11.7H3.51632ZM4.89632 11.1858C4.88061 11.197 4.86239 11.2042 4.84325 11.2068C4.82411 11.2094 4.80463 11.2072 4.78652 11.2005C4.76842 11.1948 4.75204 11.1846 4.73888 11.171C4.72573 11.1573 4.71621 11.1405 4.71122 11.1222C4.65932 10.9451 4.57897 10.7776 4.47332 10.6263C4.65036 10.5325 4.80612 10.4031 4.93082 10.2462L5.50712 10.4016C5.37177 10.7093 5.16234 10.9787 4.89752 11.1858H4.89632ZM3.90002 3.9C4.45678 3.90064 4.99055 4.12209 5.38424 4.51578C5.77793 4.90947 5.99938 5.44324 6.00002 6V6.0537C5.98892 6.0498 5.97842 6.0441 5.96702 6.0405C5.9277 5.90165 5.85634 5.77397 5.75868 5.66772C5.66102 5.56147 5.53979 5.47962 5.40475 5.42876C5.26969 5.3779 5.12459 5.35944 4.98111 5.37487C4.83763 5.3903 4.69977 5.43919 4.57862 5.5176C4.37534 5.64396 4.13925 5.70742 3.90002 5.7C3.6607 5.70737 3.42452 5.64392 3.22112 5.5176C3.09995 5.43925 2.9621 5.39042 2.81864 5.37502C2.67517 5.35962 2.53009 5.3781 2.39506 5.42895C2.26003 5.47981 2.13882 5.56163 2.04115 5.66784C1.94348 5.77405 1.8721 5.90169 1.83272 6.0405C1.82162 6.0441 1.81112 6.0495 1.80002 6.0537V6C1.80065 5.44324 2.02211 4.90947 2.4158 4.51578C2.80948 4.12209 3.34326 3.90064 3.90002 3.9ZM2.10002 7.2C2.02045 7.2 1.94415 7.16839 1.88789 7.11213C1.83163 7.05587 1.80002 6.97957 1.80002 6.9C1.80002 6.82044 1.83163 6.74413 1.88789 6.68787C1.94415 6.63161 2.02045 6.6 2.10002 6.6C2.18152 6.59395 2.25772 6.55732 2.31335 6.49746C2.36898 6.4376 2.39994 6.35892 2.40002 6.2772C2.40103 6.22107 2.41732 6.16628 2.44713 6.11871C2.47694 6.07114 2.51915 6.03259 2.56922 6.0072C2.61652 5.98202 2.66924 5.96874 2.72282 5.9685C2.78279 5.96841 2.84144 5.98605 2.89142 6.0192C3.19237 6.21067 3.54342 6.3084 3.90002 6.3C4.25654 6.30825 4.60749 6.21041 4.90832 6.0189C4.9559 5.98776 5.01107 5.97018 5.0679 5.96806C5.12473 5.96595 5.18106 5.97938 5.23082 6.0069C5.28373 6.0349 5.32767 6.07725 5.3576 6.1291C5.38753 6.18094 5.40223 6.24018 5.40002 6.3C5.40002 6.37957 5.43163 6.45587 5.48789 6.51213C5.54415 6.56839 5.62045 6.6 5.70002 6.6C5.77958 6.6 5.85589 6.63161 5.91215 6.68787C5.96841 6.74413 6.00002 6.82044 6.00002 6.9C6.00002 6.97957 5.96841 7.05587 5.91215 7.11213C5.85589 7.16839 5.77958 7.2 5.70002 7.2C5.62045 7.2 5.54415 7.23161 5.48789 7.28787C5.43163 7.34413 5.40002 7.42044 5.40002 7.5C5.40002 7.89783 5.24198 8.27936 4.96068 8.56066C4.67937 8.84196 4.29784 9 3.90002 9C3.50219 9 3.12066 8.84196 2.83936 8.56066C2.55805 8.27936 2.40002 7.89783 2.40002 7.5C2.40002 7.42044 2.36841 7.34413 2.31215 7.28787C2.25589 7.23161 2.17958 7.2 2.10002 7.2ZM3.90002 9.6C4.10325 9.59997 4.30538 9.57026 4.50002 9.5118V9.8229C4.43101 9.92296 4.34212 10.0077 4.23888 10.0719C4.13565 10.136 4.02029 10.1782 3.90002 10.1958C3.77979 10.1783 3.66446 10.1362 3.56122 10.0722C3.45799 10.0081 3.36907 9.92346 3.30002 9.8235V9.5118C3.49466 9.57026 3.69679 9.59997 3.90002 9.6ZM0.600018 12.009C0.599148 11.6771 0.703706 11.3535 0.898615 11.0848C1.09352 10.8161 1.36872 10.6163 1.68452 10.5141C1.86314 10.9689 2.16047 11.3674 2.54552 11.6682C2.65447 11.7468 2.78345 11.7928 2.91752 11.8011L2.99282 12.0267L2.70572 13.9425C2.69143 14.0446 2.7062 14.1487 2.74833 14.2428C2.79045 14.337 2.85824 14.4173 2.94392 14.4747L3.59702 14.91C3.68678 14.9699 3.79227 15.0018 3.90017 15.0018C4.00807 15.0018 4.11355 14.9699 4.20332 14.91L4.85642 14.4759C4.94227 14.4183 5.01011 14.3376 5.05214 14.2431C5.09417 14.1487 5.10869 14.0442 5.09402 13.9419L4.80722 12.0282L4.88192 11.805C5.01601 11.7963 5.14485 11.7496 5.25332 11.6703C5.62647 11.3806 5.91679 10.9978 6.09512 10.5603L6.14042 10.5726C6.39723 10.6291 6.63578 10.7491 6.83429 10.9216C7.0328 11.0941 7.18494 11.3135 7.27682 11.5599L7.68002 12.6351C7.71252 12.7219 7.76512 12.7997 7.8335 12.8622C7.90189 12.9248 7.98412 12.9702 8.07346 12.9948C8.16279 13.0194 8.25669 13.0225 8.34745 13.0039C8.43821 12.9852 8.52326 12.9453 8.59562 12.8874L9.27032 12.3474L9.76412 12.8751L7.86602 14.2851C7.81308 14.3328 7.74942 14.367 7.68043 14.3849C7.61144 14.4028 7.53916 14.4037 7.46972 14.3877C7.39625 14.3705 7.32811 14.3355 7.27126 14.2859C7.21441 14.2363 7.17059 14.1735 7.14362 14.103L6.26432 12.4572C6.23267 12.3983 6.18222 12.3516 6.12099 12.3246C6.05977 12.2976 5.99128 12.2919 5.92642 12.3083C5.86156 12.3247 5.80405 12.3623 5.76302 12.4152C5.722 12.468 5.69983 12.5331 5.70002 12.6V16.2H2.10002V12.6C2.10002 12.5204 2.06841 12.4441 2.01215 12.3879C1.95589 12.3316 1.87958 12.3 1.80002 12.3C1.72045 12.3 1.64415 12.3316 1.58789 12.3879C1.53163 12.4441 1.50002 12.5204 1.50002 12.6V16.2H0.600018V12.009Z" fill="#FFAA00"/>
<path id="Vector_2" d="M7.8 2.70156H15C15.0796 2.70156 15.1559 2.66996 15.2121 2.61369C15.2684 2.55743 15.3 2.48113 15.3 2.40156C15.3 2.322 15.2684 2.24569 15.2121 2.18943C15.1559 2.13317 15.0796 2.10156 15 2.10156H7.8C7.72044 2.10156 7.64413 2.13317 7.58787 2.18943C7.53161 2.24569 7.5 2.322 7.5 2.40156C7.5 2.48113 7.53161 2.55743 7.58787 2.61369C7.64413 2.66996 7.72044 2.70156 7.8 2.70156Z" fill="#FFAA00"/>
<path id="Vector_3" d="M7.8 4.49844H15C15.0796 4.49844 15.1559 4.46683 15.2121 4.41057C15.2684 4.35431 15.3 4.278 15.3 4.19844C15.3 4.11887 15.2684 4.04257 15.2121 3.98631C15.1559 3.93004 15.0796 3.89844 15 3.89844H7.8C7.72044 3.89844 7.64413 3.93004 7.58787 3.98631C7.53161 4.04257 7.5 4.11887 7.5 4.19844C7.5 4.278 7.53161 4.35431 7.58787 4.41057C7.64413 4.46683 7.72044 4.49844 7.8 4.49844Z" fill="#FFAA00"/>
<path id="Vector_4" d="M7.8 6.30313H12.9C12.9796 6.30313 13.0559 6.27152 13.1121 6.21526C13.1684 6.159 13.2 6.08269 13.2 6.00313C13.2 5.92356 13.1684 5.84725 13.1121 5.79099C13.0559 5.73473 12.9796 5.70312 12.9 5.70312H7.8C7.72044 5.70312 7.64413 5.73473 7.58787 5.79099C7.53161 5.84725 7.5 5.92356 7.5 6.00313C7.5 6.08269 7.53161 6.159 7.58787 6.21526C7.64413 6.27152 7.72044 6.30313 7.8 6.30313Z" fill="#FFAA00"/>
</g>
</g>
</svg>
