<svg width="17" height="18" viewBox="0 0 17 18" fill="none" xmlns="http://www.w3.org/2000/svg">
<path d="M15.9345 10.2633C16.0801 10.2633 16.1982 10.1453 16.1982 9.99967V2.52506C16.1982 1.79715 15.606 1.20495 14.8781 1.20495H13.7507V0.801809C13.7507 0.359684 13.391 0 12.9489 0H12.8278C12.3857 0 12.026 0.359684 12.026 0.801809V1.20495H4.17213V0.801809C4.17213 0.359684 3.81245 0 3.37032 0H3.24928C2.80716 0 2.44747 0.359684 2.44747 0.801809V1.20495H1.32012C0.592207 1.20495 0 1.79715 0 2.52506V16.6816C0 17.4086 0.591398 18 1.31836 18H14.8798C15.6068 18 16.1982 17.4086 16.1982 16.6816V11.0544C16.1982 10.9087 16.0801 10.7907 15.9345 10.7907C15.7889 10.7907 15.6708 10.9087 15.6708 11.0544V12.3248C15.6708 12.6567 15.4008 12.9267 15.0689 12.9267H13.3089C12.6862 12.9267 12.1796 13.4333 12.1796 14.056V15.8161C12.1796 16.148 11.9095 16.418 11.5776 16.418H1.32012C0.882984 16.418 0.527344 16.0624 0.527344 15.6252V5.50034H2.46298C2.60859 5.50034 2.72665 5.38228 2.72665 5.23666C2.72665 5.09105 2.60859 4.97299 2.46298 4.97299H0.527344V2.52506C0.527344 2.08793 0.882984 1.73229 1.32012 1.73229H2.44744V2.50755C2.44744 2.94968 2.80712 3.30936 3.24925 3.30936C3.39486 3.30936 3.51292 3.19131 3.51292 3.04569C3.51292 2.90007 3.39486 2.78202 3.24925 2.78202C3.0979 2.78202 2.97478 2.6589 2.97478 2.50755V1.73229H12.026V2.50755C12.026 2.94968 12.3857 3.30936 12.8278 3.30936C12.9735 3.30936 13.0915 3.19131 13.0915 3.04569C13.0915 2.90007 12.9735 2.78202 12.8278 2.78202C12.6765 2.78202 12.5534 2.6589 12.5534 2.50755V1.73229H14.8781C15.3152 1.73229 15.6708 2.08793 15.6708 2.52506V4.97296H3.51766C3.37205 4.97296 3.25399 5.09101 3.25399 5.23663C3.25399 5.38225 3.37205 5.5003 3.51766 5.5003H15.6708V9.99963C15.6708 10.1453 15.7889 10.2633 15.9345 10.2633ZM12.7069 15.816V14.056C12.7069 13.7241 12.9769 13.4541 13.3089 13.4541H15.0689C15.1605 13.4541 15.2494 13.4428 15.3348 13.4221L12.675 16.0819C12.6957 15.9966 12.7069 15.9076 12.7069 15.816ZM1.32012 16.9453H12.0106C12.3632 16.9453 12.6947 16.808 12.944 16.5586L15.6708 13.8318V16.6816C15.6708 17.1178 15.316 17.4726 14.8798 17.4726H1.31836C0.882176 17.4726 0.527344 17.1178 0.527344 16.6816V16.68C0.748266 16.8465 1.02284 16.9453 1.32012 16.9453ZM3.64479 1.20495H2.97482V0.801809C2.97482 0.650461 3.09793 0.527344 3.24928 0.527344H3.37032C3.52167 0.527344 3.64479 0.650461 3.64479 0.801809V1.20495ZM13.2234 1.20495H12.5534V0.801809C12.5534 0.650461 12.6765 0.527344 12.8278 0.527344H12.9489C13.1002 0.527344 13.2234 0.650461 13.2234 0.801809V1.20495ZM8.19749 9.55716C8.19749 8.73327 7.52706 8.06302 6.70296 8.06302C5.99038 8.06302 5.37367 8.56972 5.23652 9.26782C5.20847 9.4107 5.30153 9.54932 5.44444 9.57737C5.58731 9.60539 5.7259 9.51237 5.75399 9.36946C5.84269 8.91802 6.24178 8.59032 6.703 8.59032C7.23628 8.59032 7.67018 9.02401 7.67018 9.55712C7.67018 10.0902 7.23632 10.5239 6.703 10.5239C6.55738 10.5239 6.43932 10.642 6.43932 10.7876C6.43932 10.9332 6.55738 11.0513 6.703 11.0513C7.23628 11.0513 7.67018 11.4849 7.67018 12.0181C7.67018 12.5512 7.23632 12.9849 6.703 12.9849C6.22315 12.9849 5.81136 12.6274 5.7452 12.1532C5.73898 12.1088 5.73585 12.0633 5.73585 12.0181C5.73585 11.8724 5.61779 11.7544 5.47218 11.7544C5.32656 11.7544 5.2085 11.8724 5.2085 12.0181C5.2085 12.0876 5.21336 12.1576 5.22292 12.2261C5.32526 12.9593 5.96155 13.5122 6.70303 13.5122C7.52709 13.5122 8.19756 12.8419 8.19756 12.0181C8.19756 11.5082 7.9406 11.0573 7.54952 10.7876C7.94053 10.5179 8.19749 10.067 8.19749 9.55716ZM10.726 13.409C10.8716 13.409 10.9897 13.2909 10.9897 13.1453V8.33653C10.9897 8.19091 10.8716 8.07286 10.726 8.07286H9.69789C9.55227 8.07286 9.43421 8.19091 9.43421 8.33653C9.43421 8.48215 9.55227 8.6002 9.69789 8.6002H10.4624V13.1453C10.4624 13.2909 10.5804 13.409 10.726 13.409Z" fill="#FFAA00"/>
</svg>
