<svg width="35" height="35" viewBox="0 0 35 35" fill="none" xmlns="http://www.w3.org/2000/svg">
<path d="M26.251 29.2972L27.8796 31.487C28.6686 30.9002 29.4136 30.2418 30.0938 29.5302L28.1209 27.6445C27.5464 28.2456 26.9172 28.8017 26.251 29.2972Z" fill="#FFAA00"/>
<path d="M21.8223 31.5489L22.6278 34.1563C23.5675 33.866 24.4895 33.4926 25.3679 33.0463L24.1317 30.6133C23.3912 30.9895 22.6142 31.3043 21.8223 31.5489Z" fill="#FFAA00"/>
<path d="M29.6875 25.7051L31.9489 27.2326C32.5007 26.4157 32.9857 25.5471 33.3907 24.6508L30.9036 23.5273C30.5622 24.2831 30.153 25.0158 29.6875 25.7051Z" fill="#FFAA00"/>
<path d="M16.1697 16.0998H8.52832V18.8288H18.8987V5.18359H16.1697V16.0998Z" fill="#FFAA00"/>
<path d="M32.271 3.13838V8.19226C30.9878 6.14414 29.2884 4.37876 27.2605 3.00289C24.3649 1.03838 20.978 0 17.4659 0C12.8006 0 8.41456 1.81679 5.11561 5.11561C1.81679 8.41456 0 12.8006 0 17.4659C0 22.1312 1.81679 26.5172 5.11561 29.8162C8.41456 33.115 12.8006 34.9318 17.4659 34.9318C18.2254 34.9318 18.99 34.8824 19.7382 34.7851L19.3864 32.0789C18.7544 32.161 18.1083 32.2027 17.466 32.2027C9.34001 32.2027 2.72911 25.5918 2.72911 17.4659C2.72911 9.33994 9.34001 2.72904 17.466 2.72904C22.7404 2.72904 27.5267 5.511 30.1537 9.96099H25.4484V12.69H35V3.13838H32.271Z" fill="#FFAA00"/>
<path d="M32.1507 18.6953C32.1385 18.8408 32.1241 18.9857 32.1079 19.1301L32.1092 19.1301C32.0315 19.8207 31.9057 20.5071 31.7324 21.1758L34.3742 21.8603C34.6207 20.9093 34.7875 19.9287 34.8699 18.9459L34.8679 18.9457C34.8752 18.8623 34.8824 18.779 34.8882 18.6953H32.1507Z" fill="#FFAA00"/>
</svg>
