<svg width="62" height="62" viewBox="0 0 62 62" fill="none" xmlns="http://www.w3.org/2000/svg">
<circle cx="31" cy="31" r="28" fill="#1B2651" stroke="#F1F3F7" stroke-width="5"/>
<path d="M41.8311 20.5998H39.6646V19.7332C39.6646 19.2735 39.482 18.8327 39.157 18.5076C38.8319 18.1826 38.3911 18 37.9314 18C37.4718 18 37.0309 18.1826 36.7059 18.5076C36.3809 18.8327 36.1983 19.2735 36.1983 19.7332V20.5998H32.7319V19.7332C32.7319 19.2735 32.5493 18.8327 32.2243 18.5076C31.8993 18.1826 31.4584 18 30.9988 18C30.5391 18 30.0983 18.1826 29.7732 18.5076C29.4482 18.8327 29.2656 19.2735 29.2656 19.7332V20.5998H25.7993V19.7332C25.7993 19.2735 25.6167 18.8327 25.2916 18.5076C24.9666 18.1826 24.5258 18 24.0661 18C23.6064 18 23.1656 18.1826 22.8406 18.5076C22.5155 18.8327 22.3329 19.2735 22.3329 19.7332V20.5998H20.1665C19.5919 20.5998 19.0408 20.828 18.6345 21.2343C18.2283 21.6406 18 22.1916 18 22.7662V40.0979C18 40.6725 18.2283 41.2235 18.6345 41.6298C19.0408 42.0361 19.5919 42.2644 20.1665 42.2644H32.2986C32.4136 42.2644 32.5238 42.2187 32.605 42.1375C32.6863 42.0562 32.7319 41.946 32.7319 41.8311C32.7319 41.7162 32.6863 41.6059 32.605 41.5247C32.5238 41.4434 32.4136 41.3978 32.2986 41.3978H20.1665C19.822 41.3968 19.492 41.2595 19.2484 41.0159C19.0049 40.7724 18.8676 40.4423 18.8666 40.0979V26.6658H43.131V34.0318C43.131 34.1467 43.1766 34.2569 43.2579 34.3382C43.3391 34.4195 43.4493 34.4651 43.5642 34.4651C43.6792 34.4651 43.7894 34.4195 43.8706 34.3382C43.9519 34.2569 43.9975 34.1467 43.9975 34.0318V22.7662C43.9975 22.1916 43.7693 21.6406 43.363 21.2343C42.9567 20.828 42.4057 20.5998 41.8311 20.5998ZM37.0649 19.7332C37.0649 19.5033 37.1562 19.2829 37.3187 19.1204C37.4812 18.9579 37.7016 18.8666 37.9314 18.8666C38.1613 18.8666 38.3817 18.9579 38.5442 19.1204C38.7067 19.2829 38.798 19.5033 38.798 19.7332V22.3329C38.798 22.5628 38.7067 22.7832 38.5442 22.9457C38.3817 23.1082 38.1613 23.1995 37.9314 23.1995C37.7016 23.1995 37.4812 23.1082 37.3187 22.9457C37.1562 22.7832 37.0649 22.5628 37.0649 22.3329V19.7332ZM30.1322 19.7332C30.1322 19.5033 30.2235 19.2829 30.386 19.1204C30.5485 18.9579 30.7689 18.8666 30.9988 18.8666C31.2286 18.8666 31.449 18.9579 31.6115 19.1204C31.7741 19.2829 31.8654 19.5033 31.8654 19.7332V22.3329C31.8654 22.5628 31.7741 22.7832 31.6115 22.9457C31.449 23.1082 31.2286 23.1995 30.9988 23.1995C30.7689 23.1995 30.5485 23.1082 30.386 22.9457C30.2235 22.7832 30.1322 22.5628 30.1322 22.3329V19.7332ZM23.1995 19.7332C23.1995 19.5033 23.2908 19.2829 23.4533 19.1204C23.6158 18.9579 23.8363 18.8666 24.0661 18.8666C24.2959 18.8666 24.5163 18.9579 24.6789 19.1204C24.8414 19.2829 24.9327 19.5033 24.9327 19.7332V22.3329C24.9327 22.5628 24.8414 22.7832 24.6789 22.9457C24.5163 23.1082 24.2959 23.1995 24.0661 23.1995C23.8363 23.1995 23.6158 23.1082 23.4533 22.9457C23.2908 22.7832 23.1995 22.5628 23.1995 22.3329V19.7332ZM43.131 25.7993H18.8666V22.7662C18.8676 22.4218 19.0049 22.0918 19.2484 21.8482C19.492 21.6046 19.822 21.4674 20.1665 21.4663H22.3329V22.3329C22.3329 22.7926 22.5155 23.2334 22.8406 23.5585C23.1656 23.8835 23.6064 24.0661 24.0661 24.0661C24.5258 24.0661 24.9666 23.8835 25.2916 23.5585C25.6167 23.2334 25.7993 22.7926 25.7993 22.3329V21.4663H29.2656V22.3329C29.2656 22.7926 29.4482 23.2334 29.7732 23.5585C30.0983 23.8835 30.5391 24.0661 30.9988 24.0661C31.4584 24.0661 31.8993 23.8835 32.2243 23.5585C32.5493 23.2334 32.7319 22.7926 32.7319 22.3329V21.4663H36.1983V22.3329C36.1983 22.7926 36.3809 23.2334 36.7059 23.5585C37.0309 23.8835 37.4718 24.0661 37.9314 24.0661C38.3911 24.0661 38.8319 23.8835 39.157 23.5585C39.482 23.2334 39.6646 22.7926 39.6646 22.3329V21.4663H41.8311C42.1755 21.4674 42.5055 21.6046 42.7491 21.8482C42.9926 22.0918 43.1299 22.4218 43.131 22.7662V25.7993Z" fill="white"/>
<path d="M30.1324 29.6986C30.1324 29.4688 30.0411 29.2484 29.8785 29.0858C29.716 28.9233 29.4956 28.832 29.2658 28.832H27.5326C27.3028 28.832 27.0823 28.9233 26.9198 29.0858C26.7573 29.2484 26.666 29.4688 26.666 29.6986V30.9985C26.666 31.2283 26.7573 31.4487 26.9198 31.6113C27.0823 31.7738 27.3028 31.8651 27.5326 31.8651H29.2658C29.4956 31.8651 29.716 31.7738 29.8785 31.6113C30.0411 31.4487 30.1324 31.2283 30.1324 30.9985V29.6986ZM27.5326 30.9985V29.6986H29.2658V30.9985H27.5326Z" fill="white"/>
<path d="M24.9331 29.6986C24.9331 29.4688 24.8418 29.2484 24.6793 29.0858C24.5168 28.9233 24.2964 28.832 24.0666 28.832H22.3334C22.1035 28.832 21.8831 28.9233 21.7206 29.0858C21.5581 29.2484 21.4668 29.4688 21.4668 29.6986V30.9985C21.4668 31.2283 21.5581 31.4487 21.7206 31.6113C21.8831 31.7738 22.1035 31.8651 22.3334 31.8651H24.0666C24.2964 31.8651 24.5168 31.7738 24.6793 31.6113C24.8418 31.4487 24.9331 31.2283 24.9331 30.9985V29.6986ZM22.3334 30.9985V29.6986H24.0666V30.9985H22.3334Z" fill="white"/>
<path d="M39.6642 31.8651C39.894 31.8651 40.1145 31.7738 40.277 31.6113C40.4395 31.4487 40.5308 31.2283 40.5308 30.9985V29.6986C40.5308 29.4688 40.4395 29.2484 40.277 29.0858C40.1145 28.9233 39.894 28.832 39.6642 28.832H37.931C37.7012 28.832 37.4808 28.9233 37.3183 29.0858C37.1558 29.2484 37.0645 29.4688 37.0645 29.6986V30.9985C37.0645 31.2283 37.1558 31.4487 37.3183 31.6113C37.4808 31.7738 37.7012 31.8651 37.931 31.8651H39.6642ZM37.931 29.6986H39.6642V30.9985H37.931V29.6986Z" fill="white"/>
<path d="M30.1324 33.601C30.1324 33.3711 30.0411 33.1507 29.8785 32.9882C29.716 32.8257 29.4956 32.7344 29.2658 32.7344H27.5326C27.3028 32.7344 27.0823 32.8257 26.9198 32.9882C26.7573 33.1507 26.666 33.3711 26.666 33.601V34.9008C26.666 35.1307 26.7573 35.3511 26.9198 35.5136C27.0823 35.6761 27.3028 35.7674 27.5326 35.7674H29.2658C29.4956 35.7674 29.716 35.6761 29.8785 35.5136C30.0411 35.3511 30.1324 35.1307 30.1324 34.9008V33.601ZM27.5326 34.9008V33.601H29.2658V34.9008H27.5326Z" fill="white"/>
<path d="M24.9331 33.601C24.9331 33.3711 24.8418 33.1507 24.6793 32.9882C24.5168 32.8257 24.2964 32.7344 24.0666 32.7344H22.3334C22.1035 32.7344 21.8831 32.8257 21.7206 32.9882C21.5581 33.1507 21.4668 33.3711 21.4668 33.601V34.9008C21.4668 35.1307 21.5581 35.3511 21.7206 35.5136C21.8831 35.6761 22.1035 35.7674 22.3334 35.7674H24.0666C24.2964 35.7674 24.5168 35.6761 24.6793 35.5136C24.8418 35.3511 24.9331 35.1307 24.9331 34.9008V33.601ZM22.3334 34.9008V33.601H24.0666V34.9008H22.3334Z" fill="white"/>
<path d="M29.2658 36.6289H27.5326C27.3028 36.6289 27.0823 36.7202 26.9198 36.8827C26.7573 37.0452 26.666 37.2657 26.666 37.4955V38.7954C26.666 39.0252 26.7573 39.2456 26.9198 39.4081C27.0823 39.5707 27.3028 39.662 27.5326 39.662H29.2658C29.4956 39.662 29.716 39.5707 29.8785 39.4081C30.0411 39.2456 30.1324 39.0252 30.1324 38.7954V37.4955C30.1324 37.2657 30.0411 37.0452 29.8785 36.8827C29.716 36.7202 29.4956 36.6289 29.2658 36.6289ZM27.5326 38.7954V37.4955H29.2658V38.7954H27.5326Z" fill="white"/>
<path d="M32.7338 31.8651H34.4669C34.6968 31.8651 34.9172 31.7738 35.0797 31.6113C35.2422 31.4487 35.3335 31.2283 35.3335 30.9985V29.6986C35.3335 29.4688 35.2422 29.2484 35.0797 29.0858C34.9172 28.9233 34.6968 28.832 34.4669 28.832H32.7338C32.5039 28.832 32.2835 28.9233 32.121 29.0858C31.9585 29.2484 31.8672 29.4688 31.8672 29.6986V30.9985C31.8672 31.2283 31.9585 31.4487 32.121 31.6113C32.2835 31.7738 32.5039 31.8651 32.7338 31.8651ZM32.7338 29.6986H34.4669V30.9985H32.7338V29.6986Z" fill="white"/>
<path d="M31.8672 34.9008C31.8672 35.1307 31.9585 35.3511 32.121 35.5136C32.2835 35.6761 32.5039 35.7674 32.7338 35.7674C32.8487 35.7674 32.9589 35.7218 33.0402 35.6405C33.1214 35.5593 33.1671 35.449 33.1671 35.3341C33.1671 35.2192 33.1214 35.109 33.0402 35.0277C32.9589 34.9465 32.8487 34.9008 32.7338 34.9008V33.601H34.4669C34.5819 33.601 34.6921 33.5553 34.7733 33.4741C34.8546 33.3928 34.9002 33.2826 34.9002 33.1677C34.9002 33.0528 34.8546 32.9425 34.7733 32.8613C34.6921 32.78 34.5819 32.7344 34.4669 32.7344H32.7338C32.5039 32.7344 32.2835 32.8257 32.121 32.9882C31.9585 33.1507 31.8672 33.3711 31.8672 33.601V34.9008Z" fill="white"/>
<path d="M24.0666 36.6289H22.3334C22.1035 36.6289 21.8831 36.7202 21.7206 36.8827C21.5581 37.0452 21.4668 37.2657 21.4668 37.4955V38.7954C21.4668 39.0252 21.5581 39.2456 21.7206 39.4081C21.8831 39.5707 22.1035 39.662 22.3334 39.662H24.0666C24.2964 39.662 24.5168 39.5707 24.6793 39.4081C24.8418 39.2456 24.9331 39.0252 24.9331 38.7954V37.4955C24.9331 37.2657 24.8418 37.0452 24.6793 36.8827C24.5168 36.7202 24.2964 36.6289 24.0666 36.6289ZM22.3334 38.7954V37.4955H24.0666V38.7954H22.3334Z" fill="white"/>
<path d="M38.3652 32.7344C37.2512 32.7344 36.1621 33.0647 35.2358 33.6837C34.3095 34.3026 33.5875 35.1823 33.1612 36.2116C32.7349 37.2409 32.6233 38.3734 32.8407 39.4661C33.058 40.5587 33.5945 41.5624 34.3822 42.3502C35.17 43.1379 36.1737 43.6744 37.2663 43.8917C38.359 44.1091 39.4915 43.9975 40.5208 43.5712C41.5501 43.1449 42.4298 42.4229 43.0487 41.4966C43.6677 40.5703 43.998 39.4812 43.998 38.3672C43.9963 36.8738 43.4023 35.4421 42.3463 34.3861C41.2903 33.3301 39.8586 32.7361 38.3652 32.7344ZM38.3652 43.1334C37.4226 43.1334 36.5011 42.8539 35.7173 42.3301C34.9335 41.8064 34.3226 41.062 33.9618 40.1911C33.6011 39.3202 33.5067 38.3619 33.6906 37.4373C33.8745 36.5128 34.3284 35.6635 34.995 34.997C35.6616 34.3304 36.5108 33.8764 37.4354 33.6925C38.3599 33.5086 39.3183 33.603 40.1892 33.9638C41.0601 34.3245 41.8045 34.9354 42.3282 35.7192C42.8519 36.503 43.1314 37.4245 43.1314 38.3672C43.1299 39.6308 42.6273 40.8422 41.7338 41.7358C40.8403 42.6293 39.6288 43.1319 38.3652 43.1334Z" fill="white"/>
<path d="M40.8686 36.5474L37.4984 39.9176L35.9667 38.3854C35.885 38.3065 35.7756 38.2628 35.662 38.2638C35.5483 38.2648 35.4397 38.3104 35.3593 38.3907C35.279 38.4711 35.2334 38.5797 35.2324 38.6933C35.2315 38.8069 35.2751 38.9164 35.3541 38.9981L37.1921 40.8366C37.2733 40.9178 37.3835 40.9634 37.4984 40.9634C37.6133 40.9634 37.7235 40.9178 37.8048 40.8366L41.4812 37.1601C41.5602 37.0784 41.6038 36.9689 41.6029 36.8553C41.6019 36.7417 41.5563 36.633 41.476 36.5527C41.3956 36.4724 41.2869 36.4268 41.1733 36.4258C41.0597 36.4248 40.9503 36.4685 40.8686 36.5474Z" fill="white"/>
</svg>
