<svg width="24" height="24" viewBox="0 0 24 24" fill="none" xmlns="http://www.w3.org/2000/svg">
<path d="M19.0781 2.15625H4.92188C2.20789 2.15625 0 4.36414 0 7.07812V14.6799C0 16.8455 1.42181 18.7317 3.48212 19.3354L5.85919 21.7126C5.99121 21.8445 6.16992 21.9186 6.35651 21.9186C6.54291 21.9186 6.7218 21.8445 6.85364 21.7126L9.03424 19.5319H19.0781C21.7921 19.5319 24 17.324 24 14.61V7.07812C24 4.36414 21.7921 2.15625 19.0781 2.15625ZM22.5938 14.61C22.5938 16.5485 21.0167 18.1256 19.0781 18.1256H8.7431C8.5567 18.1256 8.37781 18.1998 8.24597 18.3316L6.35651 20.2211L4.34418 18.2087C4.25391 18.1185 4.14075 18.0544 4.01678 18.0236C2.4798 17.6411 1.40625 16.2662 1.40625 14.6799V7.07812C1.40625 5.13959 2.98334 3.5625 4.92188 3.5625H19.0781C21.0167 3.5625 22.5938 5.13959 22.5938 7.07812V14.61Z" fill="#1B2651"/>
<path d="M16.4641 8.89844H7.53516C7.14679 8.89844 6.83203 9.21338 6.83203 9.60156C6.83203 9.98993 7.14679 10.3047 7.53516 10.3047H16.4641C16.8525 10.3047 17.1672 9.98993 17.1672 9.60156C17.1672 9.21338 16.8525 8.89844 16.4641 8.89844Z" fill="#1B2651"/>
<path d="M16.4641 11.3828H7.53516C7.14679 11.3828 6.83203 11.6976 6.83203 12.0859C6.83203 12.4743 7.14679 12.7891 7.53516 12.7891H16.4641C16.8525 12.7891 17.1672 12.4743 17.1672 12.0859C17.1672 11.6976 16.8525 11.3828 16.4641 11.3828Z" fill="#1B2651"/>
</svg>
