<svg width="35" height="35" viewBox="0 0 35 35" fill="none" xmlns="http://www.w3.org/2000/svg">
<path d="M26.3811 17.5899L24.3407 15.7695L15.5254 25.6499L10.5842 20.9152L8.69238 22.8895L15.6793 29.5846L26.3811 17.5899Z" fill="#FFAA00"/>
<path d="M30.8984 2.73438H29.2578V0H26.5234V2.73438H8.47656V0H5.74219V2.73438H4.10156C1.83996 2.73438 0 4.57434 0 6.83594V30.8984C0 33.16 1.83996 35 4.10156 35H30.8984C33.16 35 35 33.16 35 30.8984V6.83594C35 4.57434 33.16 2.73438 30.8984 2.73438ZM32.2656 30.8984C32.2656 31.6523 31.6523 32.2656 30.8984 32.2656H4.10156C3.3477 32.2656 2.73438 31.6523 2.73438 30.8984V12.8516H32.2656V30.8984ZM32.2656 10.1172H2.73438V6.83594C2.73438 6.08207 3.3477 5.46875 4.10156 5.46875H5.74219V8.20312H8.47656V5.46875H26.5234V8.20312H29.2578V5.46875H30.8984C31.6523 5.46875 32.2656 6.08207 32.2656 6.83594V10.1172Z" fill="#FFAA00"/>
</svg>
