<svg width="20" height="24" viewBox="0 0 20 24" fill="none" xmlns="http://www.w3.org/2000/svg">
<g clip-path="url(#clip0_7559_11718)">
<path d="M14.3909 12.2197C14.6913 12.5125 14.6913 12.9874 14.3909 13.2803L10.5448 17.0303C10.2854 17.2831 9.87922 17.3224 9.57414 17.1241L7.26645 15.6241C6.91296 15.3943 6.81745 14.9286 7.0531 14.584C7.28876 14.2393 7.76637 14.1462 8.11983 14.3759L9.90283 15.5349L13.3031 12.2197C13.6034 11.9268 14.0905 11.9268 14.3909 12.2197Z" fill="#1B2651"/>
<path fill-rule="evenodd" clip-rule="evenodd" d="M3.84615 0C1.72198 0 0 1.67894 0 3.75V21.75C0 22.9927 1.03318 24 2.30769 24H17.6923C18.9668 24 20 22.9927 20 21.75V6.75C20 6.33579 19.6556 6 19.2308 6H3.84615C2.57165 6 1.53846 4.99264 1.53846 3.75C1.53846 2.50736 2.57165 1.5 3.84615 1.5H19.2308C19.6556 1.5 20 1.16421 20 0.75C20 0.335786 19.6556 0 19.2308 0H3.84615ZM1.53846 6.75028V21.75C1.53846 22.1642 1.88286 22.5 2.30769 22.5H17.6923C18.1172 22.5 18.4615 22.1642 18.4615 21.75V7.5H3.84615C2.9803 7.5 2.18128 7.22105 1.53846 6.75028Z" fill="#1B2651"/>
<path d="M8.46064 3C8.03579 3 7.69141 3.33579 7.69141 3.75C7.69141 4.16421 8.03579 4.5 8.46064 4.5H19.2299C19.6547 4.5 19.9991 4.16421 19.9991 3.75C19.9991 3.33579 19.6547 3 19.2299 3H8.46064Z" fill="#1B2651"/>
</g>
<defs>
<clipPath id="clip0_7559_11718">
<rect width="20" height="24" fill="white"/>
</clipPath>
</defs>
</svg>
