<svg width="62" height="62" viewBox="0 0 62 62" fill="none" xmlns="http://www.w3.org/2000/svg">
<circle cx="31" cy="31" r="28" fill="#1B2651" stroke="#F1F3F7" stroke-width="5"/>
<path fill-rule="evenodd" clip-rule="evenodd" d="M31 31C28.2386 31 26 28.7614 26 26C26 23.2386 28.2386 21 31 21C33.7614 21 36 23.2386 36 26C35.9967 28.7601 33.7601 30.9967 31 31ZM39 41C38.4477 41 38 40.5523 38 40V38C38 36.3431 36.6569 35 35 35H27C25.3431 35 24 36.3431 24 38V40C24 40.5523 23.5523 41 23 41C22.4477 41 22 40.5523 22 40V38C22.0033 35.2399 24.2399 33.0033 27 33H35C37.7601 33.0033 39.9967 35.2399 40 38V40C40 40.5523 39.5523 41 39 41ZM28 26C28 24.3431 29.3431 23 31 23C32.6569 23 34 24.3431 34 26C34 27.6569 32.6569 29 31 29C29.3431 29 28 27.6569 28 26Z" fill="black"/>
<mask id="mask0_8728_9432" style="mask-type:luminance" maskUnits="userSpaceOnUse" x="22" y="21" width="18" height="20">
<path fill-rule="evenodd" clip-rule="evenodd" d="M39 41C38.4477 41 38 40.5523 38 40V38C38 36.3431 36.6569 35 35 35H27C25.3431 35 24 36.3431 24 38V40C24 40.5523 23.5523 41 23 41C22.4477 41 22 40.5523 22 40V38C22.0033 35.2399 24.2399 33.0033 27 33H35C37.7601 33.0033 39.9967 35.2399 40 38V40C40 40.5523 39.5523 41 39 41ZM31 31C28.2386 31 26 28.7614 26 26C26 23.2386 28.2386 21 31 21C33.7614 21 36 23.2386 36 26C35.9967 28.7601 33.7601 30.9967 31 31ZM31 23C29.3431 23 28 24.3431 28 26C28 27.6569 29.3431 29 31 29C32.6569 29 34 27.6569 34 26C34 24.3431 32.6569 23 31 23Z" fill="white"/>
</mask>
<g mask="url(#mask0_8728_9432)">
<rect x="19" y="19" width="24" height="24" fill="white"/>
</g>
</svg>
