<svg width="62" height="62" viewBox="0 0 62 62" fill="none" xmlns="http://www.w3.org/2000/svg">
<circle cx="31" cy="31" r="28" fill="#1B2651" stroke="#F1F3F7" stroke-width="5"/>
<g clip-path="url(#clip0_8728_9433)">
<g clip-path="url(#clip1_8728_9433)">
<path d="M19 33.3985V40.5985C19 42.1741 21.4152 42.9986 23.7999 42.9986C26.1848 42.9986 28.6001 42.1741 28.6001 40.5985V33.3985C28.6001 30.2474 19 30.2474 19 33.3985ZM27.3999 38.1984C27.3999 38.6214 26.0337 39.3986 23.7999 39.3986C21.5664 39.3986 20.1999 38.6214 20.1999 38.1984V37.421C21.321 37.9629 22.5552 38.2294 23.7999 38.1984C25.0447 38.2294 26.2789 37.9629 27.3999 37.421V38.1984ZM27.3999 35.7986C27.3999 36.2215 26.0337 36.9985 23.7999 36.9985C21.5664 36.9985 20.1999 36.2215 20.1999 35.7986V35.0209C21.321 35.563 22.5552 35.8295 23.7999 35.7986C25.0447 35.8295 26.2789 35.563 27.3999 35.0209V35.7986ZM23.7999 32.1986C26.0337 32.1986 27.3999 32.9755 27.3999 33.3985C27.3999 33.8215 26.0337 34.5984 23.7999 34.5984C21.5664 34.5984 20.1999 33.8215 20.1999 33.3985C20.1999 32.9755 21.5664 32.1986 23.7999 32.1986ZM23.7999 41.7984C21.5664 41.7984 20.1999 41.0215 20.1999 40.5985V39.8211C21.321 40.3629 22.5552 40.6295 23.7999 40.5985C25.0447 40.6295 26.2789 40.3629 27.3999 39.8211V40.5985C27.3999 41.0215 26.0337 41.7984 23.7999 41.7984Z" fill="white"/>
<path d="M37.2842 23.0496L38.8708 19.8677C38.9635 19.6818 38.9534 19.4612 38.844 19.2845C38.7348 19.1079 38.5419 19.0002 38.3343 19H31.1343C30.926 18.9998 30.7328 19.1077 30.6234 19.2848C30.514 19.4619 30.5041 19.6829 30.5975 19.869L32.1683 23.0023C29.3764 23.9003 27.2075 26.3057 26.4831 29.5743C26.4114 29.898 26.6154 30.2184 26.9388 30.2904C27.0944 30.3265 27.2578 30.2986 27.3925 30.2129C27.5272 30.127 27.6219 29.9907 27.6549 29.8345C28.454 26.2253 31.2454 23.7999 34.5993 23.7999C38.7713 23.7999 41.7993 27.3327 41.7993 32.2001V37.6001C41.7976 39.2562 40.4555 40.5982 38.7994 40.6H30.3995C30.0681 40.6 29.7994 40.8687 29.7994 41.2001C29.7994 41.5314 30.0681 41.7999 30.3995 41.7999H38.7994C41.1177 41.7973 42.9966 39.9184 42.9995 37.6001V32.2001C42.9995 27.7256 40.7113 24.2429 37.2842 23.0496ZM33.3649 22.7103L32.1057 20.1999H37.365L36.0968 22.7426C35.6028 22.6501 35.1019 22.6024 34.5993 22.6C34.1856 22.6048 33.7729 22.6417 33.3649 22.7103Z" fill="white"/>
<path d="M35.1991 34.6014H32.7991C32.4677 34.6014 32.1992 34.8701 32.1992 35.2015C32.1992 35.5328 32.4677 35.8016 32.7991 35.8016H33.9992V36.4014C33.9992 36.7328 34.2677 37.0015 34.5991 37.0015C34.9304 37.0015 35.1991 36.7328 35.1991 36.4014V35.8016C36.1932 35.8016 36.9991 34.9956 36.9991 34.0016C36.9991 33.0073 36.1932 32.2016 35.1991 32.2016H33.9992C33.6679 32.2016 33.3991 31.9328 33.3991 31.6015C33.3991 31.2701 33.6679 31.0014 33.9992 31.0014H36.3991C36.7304 31.0014 36.9991 30.7329 36.9991 30.4016C36.9991 30.0702 36.7304 29.8015 36.3991 29.8015H35.1991V29.2014C35.1991 28.8701 34.9304 28.6016 34.5991 28.6016C34.2677 28.6016 33.9992 28.8701 33.9992 29.2014V29.8015C33.005 29.8015 32.1992 30.6074 32.1992 31.6015C32.1992 32.5955 33.005 33.4015 33.9992 33.4015H35.1991C35.5305 33.4015 35.7992 33.6702 35.7992 34.0016C35.7992 34.3329 35.5305 34.6014 35.1991 34.6014Z" fill="white"/>
</g>
</g>
<defs>
<clipPath id="clip0_8728_9433">
<rect width="24" height="24" fill="white" transform="translate(19 19)"/>
</clipPath>
<clipPath id="clip1_8728_9433">
<rect width="24" height="24" fill="white" transform="translate(19 19)"/>
</clipPath>
</defs>
</svg>
