<svg width="22" height="22" viewBox="0 0 22 22" fill="none" xmlns="http://www.w3.org/2000/svg">
<path d="M20.1667 2.2H18.3333V1.46667C18.3333 1.07768 18.1788 0.70463 17.9038 0.429577C17.6287 0.154523 17.2557 0 16.8667 0C16.4777 0 16.1046 0.154523 15.8296 0.429577C15.5545 0.70463 15.4 1.07768 15.4 1.46667V2.2H12.4667V1.46667C12.4667 1.07768 12.3121 0.70463 12.0371 0.429577C11.762 0.154523 11.389 0 11 0C10.611 0 10.238 0.154523 9.96291 0.429577C9.68786 0.70463 9.53333 1.07768 9.53333 1.46667V2.2H6.6V1.46667C6.6 1.07768 6.44548 0.70463 6.17042 0.429577C5.89537 0.154523 5.52232 0 5.13333 0C4.74435 0 4.3713 0.154523 4.09624 0.429577C3.82119 0.70463 3.66667 1.07768 3.66667 1.46667V2.2H1.83333C1.3471 2.2 0.880788 2.39315 0.536971 2.73697C0.193154 3.08079 0 3.5471 0 4.03333V18.7C0 19.1862 0.193154 19.6525 0.536971 19.9964C0.880788 20.3402 1.3471 20.5333 1.83333 20.5333H12.1C12.1972 20.5333 12.2905 20.4947 12.3593 20.4259C12.428 20.3572 12.4667 20.2639 12.4667 20.1667C12.4667 20.0694 12.428 19.9762 12.3593 19.9074C12.2905 19.8386 12.1972 19.8 12.1 19.8H1.83333C1.54186 19.7991 1.26258 19.683 1.05648 19.4769C0.850376 19.2708 0.734204 18.9915 0.733333 18.7V7.33333H21.2667V13.5667C21.2667 13.6639 21.3053 13.7572 21.3741 13.8259C21.4428 13.8947 21.5361 13.9333 21.6333 13.9333C21.7306 13.9333 21.8238 13.8947 21.8926 13.8259C21.9614 13.7572 22 13.6639 22 13.5667V4.03333C22 3.5471 21.8068 3.08079 21.463 2.73697C21.1192 2.39315 20.6529 2.2 20.1667 2.2ZM16.1333 1.46667C16.1333 1.27217 16.2106 1.08565 16.3481 0.948122C16.4856 0.810595 16.6722 0.733333 16.8667 0.733333C17.0612 0.733333 17.2477 0.810595 17.3852 0.948122C17.5227 1.08565 17.6 1.27217 17.6 1.46667V3.66667C17.6 3.86116 17.5227 4.04768 17.3852 4.18521C17.2477 4.32274 17.0612 4.4 16.8667 4.4C16.6722 4.4 16.4856 4.32274 16.3481 4.18521C16.2106 4.04768 16.1333 3.86116 16.1333 3.66667V1.46667ZM10.2667 1.46667C10.2667 1.27217 10.3439 1.08565 10.4815 0.948122C10.619 0.810595 10.8055 0.733333 11 0.733333C11.1945 0.733333 11.381 0.810595 11.5185 0.948122C11.6561 1.08565 11.7333 1.27217 11.7333 1.46667V3.66667C11.7333 3.86116 11.6561 4.04768 11.5185 4.18521C11.381 4.32274 11.1945 4.4 11 4.4C10.8055 4.4 10.619 4.32274 10.4815 4.18521C10.3439 4.04768 10.2667 3.86116 10.2667 3.66667V1.46667ZM4.4 1.46667C4.4 1.27217 4.47726 1.08565 4.61479 0.948122C4.75232 0.810595 4.93884 0.733333 5.13333 0.733333C5.32783 0.733333 5.51435 0.810595 5.65188 0.948122C5.7894 1.08565 5.86667 1.27217 5.86667 1.46667V3.66667C5.86667 3.86116 5.7894 4.04768 5.65188 4.18521C5.51435 4.32274 5.32783 4.4 5.13333 4.4C4.93884 4.4 4.75232 4.32274 4.61479 4.18521C4.47726 4.04768 4.4 3.86116 4.4 3.66667V1.46667ZM21.2667 6.6H0.733333V4.03333C0.734204 3.74186 0.850376 3.46258 1.05648 3.25648C1.26258 3.05038 1.54186 2.9342 1.83333 2.93333H3.66667V3.66667C3.66667 4.05565 3.82119 4.4287 4.09624 4.70376C4.3713 4.97881 4.74435 5.13333 5.13333 5.13333C5.52232 5.13333 5.89537 4.97881 6.17042 4.70376C6.44548 4.4287 6.6 4.05565 6.6 3.66667V2.93333H9.53333V3.66667C9.53333 4.05565 9.68786 4.4287 9.96291 4.70376C10.238 4.97881 10.611 5.13333 11 5.13333C11.389 5.13333 11.762 4.97881 12.0371 4.70376C12.3121 4.4287 12.4667 4.05565 12.4667 3.66667V2.93333H15.4V3.66667C15.4 4.05565 15.5545 4.4287 15.8296 4.70376C16.1046 4.97881 16.4777 5.13333 16.8667 5.13333C17.2557 5.13333 17.6287 4.97881 17.9038 4.70376C18.1788 4.4287 18.3333 4.05565 18.3333 3.66667V2.93333H20.1667C20.4581 2.9342 20.7374 3.05038 20.9435 3.25648C21.1496 3.46258 21.2658 3.74186 21.2667 4.03333V6.6Z" fill="#1B2651"/>
<path d="M10.2673 9.9013C10.2673 9.70681 10.1901 9.52028 10.0525 9.38276C9.915 9.24523 9.72848 9.16797 9.53398 9.16797H8.06732C7.87283 9.16797 7.6863 9.24523 7.54877 9.38276C7.41125 9.52028 7.33398 9.70681 7.33398 9.9013V11.0013C7.33398 11.1958 7.41125 11.3823 7.54877 11.5198C7.6863 11.6574 7.87283 11.7346 8.06732 11.7346H9.53398C9.72848 11.7346 9.915 11.6574 10.0525 11.5198C10.1901 11.3823 10.2673 11.1958 10.2673 11.0013V9.9013ZM8.06732 11.0013V9.9013H9.53398V11.0013H8.06732Z" fill="#1B2651"/>
<path d="M5.86693 9.9013C5.86693 9.70681 5.78967 9.52028 5.65214 9.38276C5.51461 9.24523 5.32809 9.16797 5.13359 9.16797H3.66693C3.47243 9.16797 3.28591 9.24523 3.14838 9.38276C3.01086 9.52028 2.93359 9.70681 2.93359 9.9013V11.0013C2.93359 11.1958 3.01086 11.3823 3.14838 11.5198C3.28591 11.6574 3.47243 11.7346 3.66693 11.7346H5.13359C5.32809 11.7346 5.51461 11.6574 5.65214 11.5198C5.78967 11.3823 5.86693 11.1958 5.86693 11.0013V9.9013ZM3.66693 11.0013V9.9013H5.13359V11.0013H3.66693Z" fill="#1B2651"/>
<path d="M18.3328 11.7346C18.5273 11.7346 18.7138 11.6574 18.8514 11.5198C18.9889 11.3823 19.0661 11.1958 19.0661 11.0013V9.9013C19.0661 9.70681 18.9889 9.52028 18.8514 9.38276C18.7138 9.24523 18.5273 9.16797 18.3328 9.16797H16.8661C16.6717 9.16797 16.4851 9.24523 16.3476 9.38276C16.2101 9.52028 16.1328 9.70681 16.1328 9.9013V11.0013C16.1328 11.1958 16.2101 11.3823 16.3476 11.5198C16.4851 11.6574 16.6717 11.7346 16.8661 11.7346H18.3328ZM16.8661 9.9013H18.3328V11.0013H16.8661V9.9013Z" fill="#1B2651"/>
<path d="M10.2673 13.2021C10.2673 13.0076 10.1901 12.8211 10.0525 12.6835C9.915 12.546 9.72848 12.4688 9.53398 12.4688H8.06732C7.87283 12.4688 7.6863 12.546 7.54877 12.6835C7.41125 12.8211 7.33398 13.0076 7.33398 13.2021V14.3021C7.33398 14.4966 7.41125 14.6831 7.54877 14.8206C7.6863 14.9582 7.87283 15.0354 8.06732 15.0354H9.53398C9.72848 15.0354 9.915 14.9582 10.0525 14.8206C10.1901 14.6831 10.2673 14.4966 10.2673 14.3021V13.2021ZM8.06732 14.3021V13.2021H9.53398V14.3021H8.06732Z" fill="#1B2651"/>
<path d="M5.86693 13.2021C5.86693 13.0076 5.78967 12.8211 5.65214 12.6835C5.51461 12.546 5.32809 12.4688 5.13359 12.4688H3.66693C3.47243 12.4688 3.28591 12.546 3.14838 12.6835C3.01086 12.8211 2.93359 13.0076 2.93359 13.2021V14.3021C2.93359 14.4966 3.01086 14.6831 3.14838 14.8206C3.28591 14.9582 3.47243 15.0354 3.66693 15.0354H5.13359C5.32809 15.0354 5.51461 14.9582 5.65214 14.8206C5.78967 14.6831 5.86693 14.4966 5.86693 14.3021V13.2021ZM3.66693 14.3021V13.2021H5.13359V14.3021H3.66693Z" fill="#1B2651"/>
<path d="M9.53398 15.7656H8.06732C7.87283 15.7656 7.6863 15.8429 7.54877 15.9804C7.41125 16.1179 7.33398 16.3045 7.33398 16.499V17.599C7.33398 17.7935 7.41125 17.98 7.54877 18.1175C7.6863 18.255 7.87283 18.3323 8.06732 18.3323H9.53398C9.72848 18.3323 9.915 18.255 10.0525 18.1175C10.1901 17.98 10.2673 17.7935 10.2673 17.599V16.499C10.2673 16.3045 10.1901 16.1179 10.0525 15.9804C9.915 15.8429 9.72848 15.7656 9.53398 15.7656ZM8.06732 17.599V16.499H9.53398V17.599H8.06732Z" fill="#1B2651"/>
<path d="M12.4677 11.7346H13.9344C14.1289 11.7346 14.3154 11.6574 14.4529 11.5198C14.5904 11.3823 14.6677 11.1958 14.6677 11.0013V9.9013C14.6677 9.70681 14.5904 9.52028 14.4529 9.38276C14.3154 9.24523 14.1289 9.16797 13.9344 9.16797H12.4677C12.2732 9.16797 12.0867 9.24523 11.9492 9.38276C11.8116 9.52028 11.7344 9.70681 11.7344 9.9013V11.0013C11.7344 11.1958 11.8116 11.3823 11.9492 11.5198C12.0867 11.6574 12.2732 11.7346 12.4677 11.7346ZM12.4677 9.9013H13.9344V11.0013H12.4677V9.9013Z" fill="#1B2651"/>
<path d="M11.7344 14.3021C11.7344 14.4966 11.8116 14.6831 11.9492 14.8206C12.0867 14.9582 12.2732 15.0354 12.4677 15.0354C12.565 15.0354 12.6582 14.9968 12.727 14.928C12.7957 14.8593 12.8344 14.766 12.8344 14.6687C12.8344 14.5715 12.7957 14.4782 12.727 14.4095C12.6582 14.3407 12.565 14.3021 12.4677 14.3021V13.2021H13.9344C14.0316 13.2021 14.1249 13.1635 14.1936 13.0947C14.2624 13.0259 14.301 12.9327 14.301 12.8354C14.301 12.7382 14.2624 12.6449 14.1936 12.5761C14.1249 12.5074 14.0316 12.4688 13.9344 12.4688H12.4677C12.2732 12.4688 12.0867 12.546 11.9492 12.6835C11.8116 12.8211 11.7344 13.0076 11.7344 13.2021V14.3021Z" fill="#1B2651"/>
<path d="M5.13359 15.7656H3.66693C3.47243 15.7656 3.28591 15.8429 3.14838 15.9804C3.01086 16.1179 2.93359 16.3045 2.93359 16.499V17.599C2.93359 17.7935 3.01086 17.98 3.14838 18.1175C3.28591 18.255 3.47243 18.3323 3.66693 18.3323H5.13359C5.32809 18.3323 5.51461 18.255 5.65214 18.1175C5.78967 17.98 5.86693 17.7935 5.86693 17.599V16.499C5.86693 16.3045 5.78967 16.1179 5.65214 15.9804C5.51461 15.8429 5.32809 15.7656 5.13359 15.7656ZM3.66693 17.599V16.499H5.13359V17.599H3.66693Z" fill="#1B2651"/>
<path d="M17.2335 12.4688C16.2907 12.4688 15.3691 12.7483 14.5852 13.2721C13.8014 13.7958 13.1904 14.5403 12.8296 15.4113C12.4689 16.2823 12.3745 17.2407 12.5584 18.1653C12.7423 19.09 13.1963 19.9393 13.8629 20.606C14.5296 21.2726 15.3789 21.7266 16.3035 21.9105C17.2282 22.0944 18.1866 22 19.0576 21.6392C19.9286 21.2785 20.673 20.6675 21.1968 19.8836C21.7206 19.0998 22.0001 18.1782 22.0001 17.2354C21.9987 15.9717 21.496 14.7601 20.6024 13.8665C19.7088 12.9729 18.4972 12.4702 17.2335 12.4688ZM17.2335 21.2688C16.4357 21.2688 15.6559 21.0322 14.9927 20.589C14.3294 20.1458 13.8124 19.5159 13.5072 18.7789C13.2019 18.0419 13.122 17.2309 13.2776 16.4486C13.4333 15.6662 13.8174 14.9475 14.3815 14.3834C14.9455 13.8193 15.6642 13.4352 16.4466 13.2796C17.229 13.124 18.04 13.2038 18.777 13.5091C19.514 13.8144 20.1439 14.3313 20.5871 14.9946C21.0302 15.6579 21.2668 16.4377 21.2668 17.2354C21.2655 18.3047 20.8402 19.3299 20.0841 20.086C19.3279 20.8421 18.3028 21.2675 17.2335 21.2688Z" fill="#1B2651"/>
<path d="M19.3515 15.6967L16.4996 18.5486L15.2034 17.2521C15.1343 17.1853 15.0417 17.1483 14.9455 17.1492C14.8494 17.15 14.7574 17.1886 14.6894 17.2565C14.6214 17.3245 14.5829 17.4165 14.582 17.5126C14.5812 17.6088 14.6182 17.7014 14.685 17.7705L16.2404 19.3263C16.3091 19.3951 16.4024 19.4337 16.4996 19.4337C16.5968 19.4337 16.6901 19.3951 16.7588 19.3263L19.87 16.2151C19.9368 16.146 19.9737 16.0534 19.9729 15.9572C19.9721 15.8611 19.9335 15.7691 19.8655 15.7011C19.7975 15.6332 19.7056 15.5946 19.6094 15.5938C19.5133 15.5929 19.4207 15.6299 19.3515 15.6967Z" fill="#1B2651"/>
</svg>
