<svg width="62" height="62" viewBox="0 0 62 62" fill="none" xmlns="http://www.w3.org/2000/svg">
<circle cx="31" cy="31" r="28" fill="#1B2651" stroke="#F1F3F7" stroke-width="5"/>
<path d="M38.0781 21.1562H23.9219C21.2079 21.1562 19 23.3641 19 26.0781V33.6799C19 35.8455 20.4218 37.7317 22.4821 38.3354L24.8592 40.7126C24.9912 40.8445 25.1699 40.9186 25.3565 40.9186C25.5429 40.9186 25.7218 40.8445 25.8536 40.7126L28.0342 38.5319H38.0781C40.7921 38.5319 43 36.324 43 33.61V26.0781C43 23.3641 40.7921 21.1562 38.0781 21.1562ZM41.5938 33.61C41.5938 35.5485 40.0167 37.1256 38.0781 37.1256H27.7431C27.5567 37.1256 27.3778 37.1998 27.246 37.3316L25.3565 39.2211L23.3442 37.2087C23.2539 37.1185 23.1407 37.0544 23.0168 37.0236C21.4798 36.6411 20.4062 35.2662 20.4062 33.6799V26.0781C20.4062 24.1396 21.9833 22.5625 23.9219 22.5625H38.0781C40.0167 22.5625 41.5938 24.1396 41.5938 26.0781V33.61Z" fill="white"/>
<path d="M35.4641 27.8984H26.5352C26.1468 27.8984 25.832 28.2134 25.832 28.6016C25.832 28.9899 26.1468 29.3047 26.5352 29.3047H35.4641C35.8525 29.3047 36.1672 28.9899 36.1672 28.6016C36.1672 28.2134 35.8525 27.8984 35.4641 27.8984Z" fill="white"/>
<path d="M35.4641 30.3828H26.5352C26.1468 30.3828 25.832 30.6976 25.832 31.0859C25.832 31.4743 26.1468 31.7891 26.5352 31.7891H35.4641C35.8525 31.7891 36.1672 31.4743 36.1672 31.0859C36.1672 30.6976 35.8525 30.3828 35.4641 30.3828Z" fill="white"/>
</svg>
