<svg width="49" height="59" viewBox="0 0 49 59" fill="none" xmlns="http://www.w3.org/2000/svg">
<path d="M29.0733 21.7606L27.7801 46.1787C27.7132 47.4427 28.6836 48.5215 29.9476 48.5886C29.9889 48.5908 30.0299 48.5918 30.0708 48.5918C31.281 48.5918 32.2927 47.6438 32.3575 46.4211L33.6507 22.003C33.7176 20.7391 32.7472 19.6602 31.4832 19.5931C30.22 19.5258 29.1403 20.4967 29.0733 21.7606Z" fill="#FF0000"/>
<path d="M17.6468 19.593C16.3829 19.66 15.4124 20.7389 15.4793 22.0029L16.7725 46.421C16.8372 47.6438 17.849 48.5917 19.0592 48.5917C19.1 48.5917 19.1411 48.5906 19.1824 48.5885C20.4463 48.5215 21.4168 47.4426 21.3499 46.1786L20.0567 21.7605C19.9897 20.4965 18.9109 19.5269 17.6468 19.593Z" fill="#FF0000"/>
<path d="M46.0554 9.50086H33.9237V9.34799C33.9238 4.19346 29.7302 0 24.5758 0H24.5556C19.4012 0 15.2076 4.19346 15.2076 9.34799V9.50086H3.076C1.81023 9.50086 0.78418 10.5269 0.78418 11.7927C0.78418 13.0584 1.81023 14.0845 3.076 14.0845H3.81866L5.72019 49.9882C5.97802 54.8568 9.99901 58.6706 14.8746 58.6706H34.2569C39.1324 58.6706 43.1535 54.8568 43.4112 49.9894L43.4123 49.9696C43.4799 48.7057 42.5101 47.6262 41.2463 47.5586C39.9823 47.4917 38.9029 48.4608 38.8353 49.7246L38.8341 49.7458C38.7052 52.1801 36.6946 54.087 34.2568 54.087H14.8746C12.4369 54.087 10.4263 52.1801 10.2974 49.7458L8.40883 14.0845H40.7227L39.4359 38.3813C39.369 39.6453 40.3394 40.7242 41.6034 40.7912C42.8655 40.8579 43.9463 39.8878 44.0133 38.6237L45.3129 14.0845H46.0555C47.3213 14.0845 48.3473 13.0584 48.3473 11.7927C48.3473 10.5269 47.3212 9.50086 46.0554 9.50086ZM19.7913 9.50086V9.34799C19.7913 6.72099 21.9285 4.58364 24.5556 4.58364H24.5758C27.2028 4.58364 29.3401 6.72088 29.3401 9.34799V9.50086H19.7913Z" fill="#FF0000"/>
</svg>
