<svg width="15" height="15" viewBox="0 0 15 15" fill="none" xmlns="http://www.w3.org/2000/svg">
<path d="M5.7337 7.85329C5.70965 7.73288 4.88107 3.59001 4.85479 3.45873C4.81375 3.25333 4.63337 3.10547 4.42389 3.10547H3.54499C3.33552 3.10547 3.15513 3.25333 3.11409 3.45873C3.0874 3.59224 2.25798 7.73933 2.23518 7.85326C2.18758 8.09127 2.34194 8.32277 2.57992 8.37035C2.8179 8.41796 3.04943 8.26359 3.09701 8.02562L3.37791 6.62109H4.59097L4.87187 8.02564C4.91948 8.26374 5.1511 8.41799 5.38896 8.37038C5.62694 8.32277 5.78131 8.09127 5.7337 7.85329ZM3.55369 5.74219L3.90525 3.98438H4.06363L4.41519 5.74219H3.55369Z" fill="#FFAA00"/>
<path d="M12.7734 6.62109H11.4551V6.18164C11.4551 5.93895 11.2583 5.74219 11.0156 5.74219C10.7729 5.74219 10.5762 5.93895 10.5762 6.18164V6.62109H9.25781C9.01512 6.62109 8.81836 6.81785 8.81836 7.06055C8.81836 7.30324 9.01512 7.5 9.25781 7.5H9.36416C9.61456 8.30895 9.99155 8.92986 10.4064 9.42744C10.0687 9.73629 9.72709 9.98956 9.42275 10.233C9.23323 10.3846 9.2025 10.6612 9.35414 10.8507C9.50584 11.0403 9.7824 11.0708 9.97181 10.9193C10.2778 10.6745 10.6447 10.4024 11.0156 10.062C11.3868 10.4026 11.7543 10.6752 12.0594 10.9193C12.249 11.0709 12.5255 11.0402 12.6771 10.8507C12.8287 10.6612 12.798 10.3846 12.6085 10.233C12.305 9.99012 11.9629 9.73658 11.6249 9.42744C12.0397 8.92986 12.4167 8.30895 12.6671 7.5H12.7734C13.0161 7.5 13.2129 7.30324 13.2129 7.06055C13.2129 6.81785 13.0161 6.62109 12.7734 6.62109ZM11.0156 8.78159C10.7351 8.42944 10.4827 8.00912 10.2925 7.49707H11.7387C11.5485 8.00912 11.2961 8.42944 11.0156 8.78159Z" fill="#FFAA00"/>
<path d="M13.6816 2.66602H7.34177L7.15339 1.15482C7.07109 0.496465 6.50871 0 5.84522 0H1.31836C0.591416 0 0 0.591416 0 1.31836V11.0156C0 11.7426 0.591416 12.334 1.31836 12.334H5.02392L5.20989 13.8452C5.29204 14.5022 5.85442 15 6.51809 15H13.6816C14.4086 15 15 14.4086 15 13.6816V3.98438C15 3.25743 14.4086 2.66602 13.6816 2.66602ZM1.31836 11.4551C1.07604 11.4551 0.878906 11.2579 0.878906 11.0156V1.31836C0.878906 1.07604 1.07604 0.878906 1.31836 0.878906H5.84522C6.06639 0.878906 6.25386 1.04437 6.28125 1.26369C6.34494 1.77451 7.48852 10.9484 7.55168 11.4551H1.31836ZM6.05637 13.5278L5.90944 12.334H7.08847L6.05637 13.5278ZM14.1211 13.6816C14.1211 13.924 13.924 14.1211 13.6816 14.1211H6.70529L8.37826 12.1859C8.4639 12.0894 8.50228 11.9611 8.48458 11.8337L7.45134 3.54492H13.6816C13.924 3.54492 14.1211 3.74206 14.1211 3.98438V13.6816Z" fill="#FFAA00"/>
</svg>
