<svg width="20" height="14" viewBox="0 0 20 14" fill="none" xmlns="http://www.w3.org/2000/svg">
<g id="Arhive_plane_light">
<g id="rating_707681 1">
<g id="Group">
<g id="Group_2">
<path id="Vector" d="M15.0579 7.97107C15.012 7.82967 14.8897 7.72666 14.7426 7.70529L11.7067 7.26498L10.3483 4.51453C10.2825 4.38125 10.1468 4.29688 9.99809 4.29688H9.99798C9.84927 4.29691 9.71352 4.38137 9.64774 4.51473L8.29088 7.26592L5.25527 7.70783C5.10816 7.72924 4.98593 7.83236 4.94 7.97377C4.8941 8.11521 4.93242 8.27045 5.03894 8.3742L7.23619 10.5148L6.71842 13.5385C6.69331 13.685 6.75358 13.8331 6.87389 13.9205C6.94194 13.9698 7.02248 13.995 7.10346 13.995C7.16569 13.995 7.22815 13.9801 7.2853 13.9501L10.0002 12.5218L12.7158 13.9486C12.8475 14.0177 13.0069 14.0062 13.1272 13.9187C13.2475 13.8313 13.3077 13.6832 13.2825 13.5366L12.7631 10.5133L14.9592 8.37154C15.0656 8.26771 15.1039 8.11248 15.0579 7.97107ZM12.0706 10.0974C11.9786 10.1872 11.9366 10.3165 11.9584 10.4432L12.3785 12.8889L10.1818 11.7347C10.068 11.675 9.93208 11.675 9.81821 11.7348L7.62205 12.8901L8.04092 10.4443C8.06264 10.3175 8.02057 10.1882 7.9285 10.0985L6.15104 8.36689L8.60666 8.00943C8.73388 7.99092 8.84384 7.91096 8.90072 7.79564L9.99833 5.57011L11.0972 7.79502C11.1541 7.91029 11.2641 7.99017 11.3913 8.00865L13.8471 8.36486L12.0706 10.0974Z" fill="#FFAA00"/>
</g>
</g>
<g id="Group_3">
<g id="Group_4">
<path id="Vector_2" d="M5.44962 10.7298C5.4036 10.5884 5.28137 10.4854 5.13423 10.4641L3.71791 10.2587L3.08416 8.97547C3.01834 8.84219 2.8826 8.75781 2.73393 8.75781H2.73381C2.58514 8.75785 2.44936 8.8423 2.38358 8.97566L1.75053 10.2591L0.33437 10.4653C0.187261 10.4867 0.0650352 10.5898 0.0190979 10.7312C-0.0268003 10.8727 0.0115198 11.0279 0.118043 11.1317L1.14315 12.1303L0.901593 13.541C0.876476 13.6875 0.936749 13.8356 1.05706 13.9229C1.12511 13.9723 1.20565 13.9975 1.28663 13.9975C1.34886 13.9975 1.41128 13.9826 1.46843 13.9526L2.73502 13.2863L4.00193 13.9519C4.13357 14.021 4.29306 14.0095 4.41329 13.922C4.53361 13.8346 4.5938 13.6865 4.5686 13.5399L4.32634 12.1295L5.3509 11.1303C5.45731 11.0265 5.49559 10.8712 5.44962 10.7298ZM3.63381 11.7136C3.54181 11.8033 3.49978 11.9327 3.52158 12.0594L3.66463 12.8922L2.91662 12.4992C2.80283 12.4394 2.66686 12.4395 2.55307 12.4992L1.80522 12.8927L1.94784 12.0597C1.96956 11.933 1.92749 11.8037 1.83542 11.714L1.23019 11.1244L2.06635 11.0026C2.19358 10.9841 2.30354 10.9042 2.36041 10.7889L2.73416 10.031L3.10834 10.7887C3.16525 10.904 3.27525 10.9839 3.40248 11.0023L4.23872 11.1236L3.63381 11.7136Z" fill="#FFAA00"/>
</g>
</g>
<g id="Group_5">
<g id="Group_6">
<path id="Vector_3" d="M19.98 10.7312C19.9341 10.5898 19.8118 10.4867 19.6647 10.4653L18.2485 10.2591L17.6155 8.97566C17.5497 8.8423 17.4139 8.75785 17.2652 8.75781H17.2651C17.1165 8.75781 16.9807 8.84219 16.9149 8.97547L16.2811 10.2587L14.8648 10.4641C14.7177 10.4854 14.5955 10.5884 14.5494 10.7298C14.5035 10.8712 14.5417 11.0265 14.6481 11.1303L15.6727 12.1295L15.4304 13.5399C15.4053 13.6865 15.4655 13.8346 15.5858 13.922C15.706 14.0095 15.8655 14.0211 15.9971 13.9519L17.264 13.2863L18.5306 13.9526C18.5878 13.9827 18.6502 13.9975 18.7124 13.9975C18.7934 13.9975 18.8739 13.9724 18.942 13.9229C19.0623 13.8356 19.1226 13.6874 19.0975 13.5409L18.8559 12.1303L19.881 11.1317C19.9875 11.0279 20.0259 10.8727 19.98 10.7312ZM18.1637 11.714C18.0716 11.8037 18.0295 11.933 18.0513 12.0597L18.1939 12.8927L17.446 12.4992C17.3891 12.4693 17.3266 12.4544 17.2641 12.4544C17.2017 12.4544 17.1393 12.4693 17.0825 12.4992L16.3345 12.8922L16.4776 12.0594C16.4993 11.9326 16.4573 11.8033 16.3653 11.7136L15.7604 11.1236L16.5967 11.0023C16.7239 10.9839 16.8339 10.904 16.8908 10.7887L17.265 10.031L17.6387 10.7889C17.6956 10.9042 17.8056 10.9841 17.9328 11.0026L18.7689 11.1244L18.1637 11.714Z" fill="#FFAA00"/>
</g>
</g>
<g id="Group_7">
<g id="Group_8">
<path id="Vector_4" d="M15.2753 3.87219C15.1226 3.71969 14.8754 3.71969 14.7228 3.87219L13.4337 5.16124C13.2812 5.31382 13.2812 5.56116 13.4337 5.7137C13.51 5.78995 13.61 5.82811 13.7099 5.82811C13.8099 5.82811 13.9099 5.78999 13.9862 5.7137L15.2753 4.42464C15.4278 4.27207 15.4278 4.02473 15.2753 3.87219Z" fill="#FFAA00"/>
</g>
</g>
<g id="Group_9">
<g id="Group_10">
<path id="Vector_5" d="M16.1994 2.9543C16.1264 2.8816 16.026 2.83984 15.9228 2.83984C15.8201 2.83984 15.7194 2.88164 15.6467 2.9543C15.574 3.02695 15.5322 3.12773 15.5322 3.23047C15.5322 3.33355 15.574 3.43398 15.6467 3.5066C15.7193 3.57964 15.8201 3.62109 15.9228 3.62109C16.0259 3.62109 16.1264 3.57968 16.1994 3.5066C16.272 3.43398 16.3135 3.33359 16.3135 3.23047C16.3135 3.12773 16.272 3.02695 16.1994 2.9543Z" fill="#FFAA00"/>
</g>
</g>
<g id="Group_11">
<g id="Group_12">
<path id="Vector_6" d="M4.35468 2.9543C4.28164 2.8816 4.18125 2.83984 4.07812 2.83984C3.97539 2.83984 3.875 2.88164 3.80195 2.9543C3.72926 3.02695 3.6875 3.12773 3.6875 3.23047C3.6875 3.33355 3.7293 3.43398 3.80195 3.5066C3.875 3.57964 3.97578 3.62109 4.07812 3.62109C4.18082 3.62109 4.28164 3.57968 4.35468 3.5066C4.42734 3.43398 4.46914 3.3332 4.46914 3.23047C4.46914 3.12773 4.4273 3.02695 4.35468 2.9543Z" fill="#FFAA00"/>
</g>
</g>
<g id="Group_13">
<g id="Group_14">
<path id="Vector_7" d="M6.5117 5.10859L5.27526 3.87219C5.12264 3.71969 4.87538 3.71969 4.7228 3.87219C4.57026 4.02476 4.57026 4.27211 4.7228 4.42464L5.95924 5.66104C6.03553 5.73729 6.13545 5.77546 6.23545 5.77546C6.33541 5.77546 6.43537 5.73729 6.5117 5.66104C6.66424 5.50847 6.66424 5.26112 6.5117 5.10859Z" fill="#FFAA00"/>
</g>
</g>
<g id="Group_15">
<g id="Group_16">
<path id="Vector_8" d="M10 0C9.7843 0 9.60938 0.174921 9.60938 0.390623V3.04178C9.60938 3.25748 9.7843 3.4324 10 3.4324C10.2157 3.4324 10.3906 3.25748 10.3906 3.04178V0.390623C10.3906 0.174921 10.2157 0 10 0Z" fill="#FFAA00"/>
</g>
</g>
</g>
</g>
</svg>
