<svg width="30" height="29" viewBox="0 0 30 29" fill="none" xmlns="http://www.w3.org/2000/svg">
<path d="M27.5738 10.9673V10.0165C27.5741 9.81956 27.5347 9.62459 27.4579 9.44324C27.3811 9.2619 27.2685 9.09791 27.1269 8.96108C26.9838 8.8255 26.815 8.7199 26.6305 8.6505C26.446 8.58111 26.2494 8.54931 26.0525 8.55698C24.2985 8.60446 22.5505 8.78244 20.823 9.08944L20.1954 9.21305C20.0607 7.87893 19.4428 6.6401 18.4582 5.72984C17.4736 4.81958 16.1902 4.30069 14.8496 4.27089C13.5091 4.24109 12.2039 4.70242 11.1798 5.56803C10.1557 6.43363 9.4834 7.64378 9.28951 8.97059C9.28951 9.05616 9.28951 9.13698 9.28951 9.2178C7.35603 8.83306 5.39357 8.612 3.42295 8.55698C3.22562 8.55127 3.02914 8.58513 2.8451 8.65657C2.66107 8.72801 2.4932 8.83559 2.35141 8.97295C2.20962 9.11031 2.09677 9.27468 2.01952 9.45635C1.94227 9.63803 1.90219 9.83334 1.90164 10.0308V10.9816C1.36473 11.0912 0.882173 11.3829 0.535641 11.8074C0.18911 12.2319 -0.000111793 12.7631 4.95511e-08 13.3111V26.6226C4.95511e-08 27.253 0.250438 27.8576 0.696222 28.3034C0.916951 28.5241 1.17899 28.6992 1.46739 28.8187C1.75579 28.9381 2.06489 28.9996 2.37705 28.9996H27.0984C27.7288 28.9996 28.3334 28.7492 28.7792 28.3034C29.225 27.8576 29.4754 27.253 29.4754 26.6226V13.3111C29.4788 12.7607 29.2911 12.2261 28.9443 11.7987C28.5975 11.3712 28.1131 11.0774 27.5738 10.9673ZM10.2403 9.1037C10.3915 8.11559 10.8626 7.20434 11.5813 6.50963C12.3001 5.81493 13.2268 5.37512 14.2195 5.25764C14.3916 5.2387 14.5646 5.22918 14.7377 5.22911C15.8547 5.22644 16.9327 5.64 17.7613 6.38911C18.2601 6.83485 18.6543 7.38518 18.9159 8.00085C19.1774 8.61651 19.2999 9.28232 19.2744 9.95076C19.249 10.6192 19.0763 11.2738 18.7688 11.8678C18.4612 12.4618 18.0263 12.9806 17.4951 13.3871C17.0922 13.6858 16.7644 14.0741 16.5375 14.5213C16.3106 14.9685 16.1908 15.4624 16.1877 15.9639C16.1865 16.1425 16.1149 16.3135 15.9886 16.4398C15.8623 16.5662 15.6913 16.6377 15.5126 16.6389H15.2131V13.3111C15.2133 13.2 15.1746 13.0923 15.1038 13.0068L13.3733 10.934H15.9643L15.1133 11.785C15.0354 11.876 14.9947 11.9929 14.9993 12.1126C15.0039 12.2322 15.0535 12.3457 15.1382 12.4304C15.2229 12.5151 15.3364 12.5647 15.456 12.5693C15.5757 12.5739 15.6927 12.5332 15.7836 12.4553L17.4475 10.7914C17.5127 10.725 17.5569 10.6408 17.5747 10.5495C17.5925 10.4582 17.5831 10.3636 17.5477 10.2776C17.5122 10.1915 17.4523 10.1178 17.3754 10.0654C17.2984 10.0131 17.2078 9.98452 17.1148 9.98321H12.3607C12.2702 9.98306 12.1817 10.0087 12.1053 10.0571C12.0289 10.1055 11.968 10.1747 11.9295 10.2566C11.8911 10.3384 11.8768 10.4295 11.8883 10.5192C11.8999 10.6089 11.9367 10.6934 11.9946 10.7629L14.2623 13.4822V16.6389H13.9628C13.8731 16.639 13.7843 16.6212 13.7015 16.5867C13.6187 16.5523 13.5436 16.5018 13.4804 16.4382C13.4172 16.3745 13.3672 16.299 13.3333 16.216C13.2994 16.1329 13.2823 16.044 13.283 15.9544C13.2774 15.4535 13.1561 14.9607 12.9285 14.5145C12.7009 14.0683 12.3731 13.6808 11.9708 13.3824C11.3247 12.8904 10.823 12.2334 10.5185 11.4805C10.214 10.7276 10.1179 9.90657 10.2403 9.1037ZM2.85246 10.0308C2.85305 9.96022 2.86777 9.89053 2.89575 9.82579C2.92374 9.76105 2.96442 9.70257 3.01538 9.65382C3.06635 9.60507 3.12658 9.56703 3.1925 9.54195C3.25842 9.51687 3.3287 9.50526 3.39918 9.5078C5.37055 9.56258 7.33345 9.78845 9.26574 10.1829C9.3203 10.9563 9.53989 11.7091 9.90973 12.3905C10.2796 13.072 10.7911 13.6663 11.4098 14.1335C11.6989 14.3434 11.9353 14.6175 12.1003 14.9343C12.2653 15.2511 12.3544 15.602 12.3607 15.9591C12.3606 16.3867 12.5285 16.7972 12.8281 17.1022C13.1278 17.4072 13.5353 17.5823 13.9628 17.5898H15.5126C15.7278 17.5891 15.9407 17.5461 16.1392 17.463C16.3377 17.3799 16.5178 17.2585 16.6693 17.1057C16.8208 16.9529 16.9407 16.7717 17.022 16.5725C17.1033 16.3733 17.1445 16.16 17.1433 15.9448C17.151 15.5907 17.2409 15.2431 17.4059 14.9296C17.5709 14.6161 17.8065 14.3452 18.0941 14.1383C18.7099 13.6683 19.2184 13.0724 19.5857 12.3903C19.9529 11.7083 20.1705 10.9557 20.2239 10.1829L21.0131 10.026C22.6857 9.72852 24.378 9.55531 26.0762 9.5078C26.1476 9.50413 26.2189 9.51581 26.2853 9.54206C26.3517 9.5683 26.4117 9.6085 26.4613 9.65993C26.5115 9.7087 26.5512 9.76712 26.5782 9.83167C26.6051 9.89622 26.6188 9.96556 26.6182 10.0355V25.1488C26.6183 25.2835 26.5665 25.413 26.4735 25.5104C26.3805 25.6078 26.2536 25.6656 26.119 25.6717C22.3876 25.7216 18.6948 26.4348 15.2131 27.7778V19.4914H15.6885C15.8146 19.4914 15.9355 19.4413 16.0247 19.3522C16.1138 19.263 16.1639 19.1421 16.1639 19.016C16.1639 18.8899 16.1138 18.769 16.0247 18.6798C15.9355 18.5907 15.8146 18.5406 15.6885 18.5406H13.7869C13.6608 18.5406 13.5399 18.5907 13.4507 18.6798C13.3616 18.769 13.3115 18.8899 13.3115 19.016C13.3115 19.1421 13.3616 19.263 13.4507 19.3522C13.5399 19.4413 13.6608 19.4914 13.7869 19.4914H14.2623V27.7826C10.7815 26.4359 7.0883 25.7211 3.35639 25.6717C3.22102 25.6668 3.09284 25.6095 2.99884 25.512C2.90485 25.4145 2.85237 25.2842 2.85246 25.1488V10.0308ZM0.95082 26.6226V13.3111C0.951647 13.0168 1.04347 12.73 1.21369 12.49C1.38392 12.25 1.62421 12.0685 1.90164 11.9704V25.1488C1.90381 25.5308 2.05331 25.8973 2.31901 26.1719C2.5847 26.4464 2.94609 26.6079 3.32787 26.6226C6.31256 26.6934 9.27344 27.1732 12.1277 28.0488H2.37705C1.99879 28.0488 1.63602 27.8985 1.36855 27.6311C1.10108 27.3636 0.95082 27.0008 0.95082 26.6226ZM28.5246 26.6226C28.5246 27.0008 28.3743 27.3636 28.1069 27.6311C27.8394 27.8985 27.4766 28.0488 27.0984 28.0488H17.343C20.1987 27.1728 23.1613 26.6929 26.1475 26.6226C26.5293 26.6079 26.8907 26.4464 27.1564 26.1719C27.4221 25.8973 27.5716 25.5308 27.5738 25.1488V11.9562C27.8535 12.0551 28.0954 12.2387 28.2658 12.4816C28.4363 12.7244 28.5267 13.0144 28.5246 13.3111V26.6226Z" fill="#FFAA00"/>
<path d="M4.72103 12.3589C5.34857 12.4017 5.98087 12.4588 6.5989 12.5348H6.65595C6.78204 12.5424 6.90596 12.4996 7.00047 12.4157C7.09498 12.3319 7.15232 12.214 7.15988 12.0879C7.16745 11.9619 7.12462 11.8379 7.04081 11.7434C6.957 11.6489 6.83909 11.5916 6.713 11.584C6.0807 11.5079 5.42939 11.4461 4.78759 11.4033C4.6615 11.3952 4.53732 11.4374 4.44237 11.5207C4.34742 11.6041 4.28947 11.7218 4.28128 11.8479C4.27308 11.9739 4.31531 12.0981 4.39867 12.1931C4.48203 12.288 4.5997 12.346 4.72579 12.3542L4.72103 12.3589Z" fill="#FFAA00"/>
<path d="M4.72103 14.3255C5.88082 14.4011 7.03599 14.536 8.18201 14.7296H8.26283C8.32527 14.7349 8.38813 14.7278 8.44784 14.7088C8.50755 14.6898 8.56294 14.6593 8.61084 14.6189C8.65873 14.5785 8.69821 14.5291 8.727 14.4734C8.7558 14.4178 8.77335 14.357 8.77865 14.2946C8.78396 14.2321 8.77692 14.1693 8.75793 14.1096C8.73894 14.0498 8.70838 13.9945 8.66798 13.9466C8.62759 13.8987 8.57816 13.8592 8.52251 13.8304C8.46686 13.8016 8.40609 13.784 8.34365 13.7787C7.16618 13.579 5.97928 13.4393 4.78759 13.3604C4.6615 13.3522 4.53732 13.3944 4.44237 13.4778C4.34742 13.5611 4.28947 13.6788 4.28128 13.8049C4.27308 13.931 4.31531 14.0552 4.39867 14.1501C4.48203 14.2451 4.5997 14.303 4.72579 14.3112L4.72103 14.3255Z" fill="#FFAA00"/>
<path d="M4.27827 17.1465C4.27044 17.2718 4.31255 17.3952 4.39539 17.4896C4.47823 17.584 4.59508 17.6418 4.7204 17.6504C7.26319 17.8062 9.77839 18.2642 12.2129 19.0148C12.3333 19.0526 12.4638 19.0411 12.5757 18.9827C12.6876 18.9243 12.7717 18.8238 12.8095 18.7034C12.8473 18.583 12.8358 18.4525 12.7774 18.3406C12.719 18.2287 12.6185 18.1446 12.4981 18.1068C9.99182 17.327 7.40164 16.8482 4.7822 16.6805C4.71821 16.6767 4.65409 16.6858 4.59371 16.7074C4.53333 16.7289 4.47794 16.7625 4.43087 16.806C4.38379 16.8495 4.346 16.9021 4.31978 16.9606C4.29355 17.0191 4.27943 17.0823 4.27827 17.1465Z" fill="#FFAA00"/>
<path d="M12.5035 20.4429C9.9972 19.6631 7.40702 19.1843 4.78759 19.0166C4.72516 19.0126 4.66254 19.0208 4.60331 19.041C4.54407 19.0611 4.48939 19.0927 4.44237 19.134C4.34742 19.2174 4.28947 19.3351 4.28128 19.4611C4.27308 19.5872 4.31531 19.7114 4.39867 19.8064C4.48203 19.9013 4.5997 19.9593 4.72579 19.9674C7.26876 20.1248 9.78396 20.5845 12.2182 21.3366C12.3297 21.353 12.4434 21.3292 12.539 21.2695C12.6346 21.2099 12.7059 21.1182 12.7402 21.0108C12.7744 20.9034 12.7695 20.7874 12.7261 20.6834C12.6828 20.5794 12.6039 20.4941 12.5035 20.4429Z" fill="#FFAA00"/>
<path d="M12.5035 22.8179C9.99721 22.0381 7.40703 21.5593 4.78759 21.3916C4.6615 21.3834 4.53732 21.4257 4.44237 21.509C4.34742 21.5924 4.28947 21.7101 4.28128 21.8361C4.27308 21.9622 4.31531 22.0864 4.39867 22.1814C4.48203 22.2763 4.5997 22.3343 4.72579 22.3424C7.26949 22.5187 9.78312 22.9975 12.2135 23.7687C12.3396 23.8071 12.4758 23.7939 12.5921 23.732C12.7085 23.67 12.7954 23.5644 12.8339 23.4383C12.8724 23.3122 12.8592 23.176 12.7972 23.0596C12.7352 22.9433 12.6296 22.8563 12.5035 22.8179Z" fill="#FFAA00"/>
<path d="M17.1145 19.0437C17.1618 19.0508 17.2099 19.0508 17.2572 19.0437C19.6914 18.2914 22.2066 17.8318 24.7496 17.6745C24.8757 17.6663 24.9934 17.6083 25.0767 17.5134C25.1601 17.4184 25.2023 17.2943 25.1941 17.1682C25.1859 17.0421 25.128 16.9244 25.033 16.8411C24.9381 16.7577 24.8139 16.7155 24.6878 16.7237C22.0684 16.8913 19.4782 17.3701 16.9719 18.1499C16.9095 18.1593 16.8495 18.1808 16.7954 18.2134C16.7413 18.2459 16.6942 18.2888 16.6566 18.3396C16.5809 18.4421 16.5489 18.5705 16.5678 18.6966C16.5867 18.8227 16.655 18.9361 16.7575 19.0119C16.86 19.0877 16.9885 19.1196 17.1145 19.1007V19.0437Z" fill="#FFAA00"/>
<path d="M17.1145 21.3604C17.1618 21.3676 17.2099 21.3676 17.2572 21.3604C19.6905 20.6002 22.2057 20.1326 24.7496 19.9674C24.8121 19.9634 24.8731 19.9471 24.9292 19.9194C24.9853 19.8918 25.0355 19.8534 25.0767 19.8064C25.118 19.7593 25.1496 19.7047 25.1698 19.6454C25.1899 19.5862 25.1982 19.5236 25.1941 19.4611C25.1901 19.3987 25.1738 19.3377 25.1461 19.2816C25.1185 19.2254 25.0801 19.1753 25.033 19.134C24.986 19.0927 24.9313 19.0611 24.8721 19.041C24.8129 19.0208 24.7503 19.0126 24.6878 19.0166C22.0684 19.1843 19.4782 19.6631 16.9719 20.4429C16.8458 20.4618 16.7324 20.53 16.6566 20.6325C16.5809 20.7351 16.5489 20.8635 16.5678 20.9896C16.5867 21.1157 16.655 21.2291 16.7575 21.3049C16.86 21.3806 16.9885 21.4126 17.1145 21.3937V21.3604Z" fill="#FFAA00"/>
<path d="M17.1145 23.7702C17.1618 23.7774 17.2099 23.7774 17.2572 23.7702C19.6914 23.018 22.2066 22.5584 24.7496 22.401C24.8757 22.3928 24.9934 22.3349 25.0767 22.2399C25.1601 22.145 25.2023 22.0208 25.1941 21.8947C25.1859 21.7686 25.128 21.651 25.033 21.5676C24.9381 21.4843 24.8139 21.442 24.6878 21.4502C22.0707 21.5993 19.4806 22.0589 16.9719 22.8194C16.8458 22.8383 16.7324 22.9065 16.6566 23.0091C16.5809 23.1116 16.5489 23.24 16.5678 23.3661C16.5867 23.4922 16.655 23.6056 16.7575 23.6814C16.86 23.7572 16.9885 23.7891 17.1145 23.7702Z" fill="#FFAA00"/>
<path d="M14.7381 2.85246C14.8642 2.85246 14.9851 2.80237 15.0743 2.71321C15.1634 2.62406 15.2135 2.50314 15.2135 2.37705V0.47541C15.2135 0.349323 15.1634 0.228401 15.0743 0.139244C14.9851 0.0500877 14.8642 0 14.7381 0C14.612 0 14.4911 0.0500877 14.4019 0.139244C14.3128 0.228401 14.2627 0.349323 14.2627 0.47541V2.37705C14.2627 2.50314 14.3128 2.62406 14.4019 2.71321C14.4911 2.80237 14.612 2.85246 14.7381 2.85246Z" fill="#FFAA00"/>
<path d="M18.0983 4.24448C18.1609 4.24485 18.2229 4.23285 18.2808 4.2092C18.3387 4.18554 18.3914 4.15068 18.4358 4.10662L19.7812 2.76121C19.8591 2.67026 19.8998 2.55327 19.8952 2.43362C19.8906 2.31397 19.841 2.20048 19.7563 2.11581C19.6716 2.03114 19.5581 1.98154 19.4385 1.97692C19.3188 1.9723 19.2019 2.01299 19.1109 2.09088L17.7608 3.43153C17.6937 3.49803 17.648 3.58299 17.6294 3.67557C17.6108 3.76816 17.6202 3.86417 17.6565 3.95139C17.6927 4.0386 17.754 4.11305 17.8327 4.16525C17.9114 4.21745 18.0039 4.24503 18.0983 4.24448Z" fill="#FFAA00"/>
<path d="M11.039 4.10746C11.1299 4.18535 11.2469 4.22605 11.3665 4.22142C11.4862 4.2168 11.5997 4.1672 11.6844 4.08254C11.769 3.99787 11.8186 3.88437 11.8232 3.76472C11.8279 3.64507 11.7872 3.52808 11.7093 3.43714L10.3686 2.08697C10.2777 2.00909 10.1607 1.96839 10.041 1.97301C9.9214 1.97763 9.8079 2.02723 9.72323 2.1119C9.63856 2.19657 9.58896 2.31007 9.58434 2.42972C9.57972 2.54937 9.62042 2.66635 9.6983 2.7573L11.039 4.10746Z" fill="#FFAA00"/>
</svg>
