<svg width="17" height="17" viewBox="0 0 17 17" fill="none" xmlns="http://www.w3.org/2000/svg">
<path d="M8.5 17C6.81886 17 5.17547 16.5015 3.77766 15.5675C2.37984 14.6335 1.29037 13.306 0.647028 11.7528C0.00368289 10.1996 -0.164645 8.49057 0.163329 6.84173C0.491303 5.1929 1.30085 3.67834 2.4896 2.4896C3.67834 1.30085 5.1929 0.491303 6.84173 0.163329C8.49057 -0.164645 10.1996 0.00368289 11.7528 0.647028C13.306 1.29037 14.6335 2.37984 15.5675 3.77766C16.5015 5.17547 17 6.81886 17 8.5C17 10.7543 16.1045 12.9164 14.5104 14.5104C12.9164 16.1045 10.7543 17 8.5 17ZM8.5 1.13157C7.04266 1.13157 5.61805 1.56372 4.40632 2.37337C3.19459 3.18303 2.25015 4.33382 1.69245 5.68022C1.13476 7.02663 0.988836 8.50818 1.27315 9.93751C1.55746 11.3668 2.25924 12.6798 3.28973 13.7103C4.32023 14.7408 5.63315 15.4425 7.06249 15.7269C8.49183 16.0112 9.97338 15.8652 11.3198 15.3075C12.6662 14.7498 13.817 13.8054 14.6266 12.5937C15.4363 11.382 15.8684 9.95734 15.8684 8.5C15.867 6.5462 15.0903 4.67283 13.7087 3.29129C12.3272 1.90974 10.4538 1.13297 8.5 1.13157Z" fill="#FFAA00"/>
<path d="M8.5004 13.3408C7.40196 13.34 6.33644 12.9656 5.47896 12.2791C4.62148 11.5926 4.02306 10.6348 3.78202 9.56308C3.54099 8.4914 3.67169 7.36961 4.15264 6.38205C4.63359 5.39449 5.43619 4.59991 6.42853 4.12891L6.90666 5.15422C6.1438 5.51608 5.52678 6.12676 5.15709 6.88586C4.78739 7.64495 4.68702 8.50725 4.87247 9.33097C5.05793 10.1547 5.51818 10.8908 6.17753 11.4182C6.83688 11.9456 7.65607 12.2329 8.5004 12.2329C9.34473 12.2329 10.1639 11.9456 10.8233 11.4182C11.4826 10.8908 11.9429 10.1547 12.1283 9.33097C12.3138 8.50725 12.2134 7.64495 11.8437 6.88586C11.474 6.12676 10.857 5.51608 10.0942 5.15422L10.5829 4.12891C11.5761 4.6003 12.3791 5.39579 12.86 6.38443C13.3408 7.37308 13.4707 8.49596 13.2283 9.56827C12.9858 10.6406 12.3856 11.5984 11.5263 12.2841C10.6669 12.9698 9.59976 13.3424 8.5004 13.3408Z" fill="#FFAA00"/>
<path d="M7.93164 3.00781H9.06319V6.66812H7.93164V3.00781Z" fill="#FFAA00"/>
</svg>
