<svg width="18" height="18" viewBox="0 0 18 18" fill="none" xmlns="http://www.w3.org/2000/svg">
<path d="M16.1228 1.4998H14.998V0.374949C14.998 0.1677 14.8303 0 14.623 0C14.4158 0 14.2481 0.1677 14.2481 0.374949V1.4998H11.2485V0.374949C11.2485 0.1677 11.0808 0 10.8735 0C10.6663 0 10.4986 0.1677 10.4986 0.374949V1.4998H7.49898V0.374949C7.49898 0.1677 7.33128 0 7.12403 0C6.91678 0 6.74908 0.1677 6.74908 0.374949V1.4998H3.74949V0.374949C3.74949 0.1677 3.58179 0 3.37454 0C3.16729 0 2.99959 0.1677 2.99959 0.374949V1.4998H1.87475C0.840704 1.4998 0 2.34087 0 3.37454V14.623C0 15.6567 0.840704 16.4978 1.87475 16.4978H9.13353C9.34078 16.4978 9.50848 16.3301 9.50848 16.1228C9.50848 15.9156 9.34078 15.7479 9.13353 15.7479H1.87475C1.25447 15.7479 0.749898 15.2433 0.749898 14.623V5.99919H17.2477V10.206C17.2477 10.4133 17.4154 10.581 17.6226 10.581C17.8299 10.581 17.9976 10.4133 17.9976 10.206V3.37454C17.9976 2.34087 17.1569 1.4998 16.1228 1.4998ZM17.2477 5.24929H0.749898V3.37454C0.749898 2.75426 1.25447 2.2497 1.87475 2.2497H2.99959V3.37454C2.99959 3.58179 3.16729 3.74949 3.37454 3.74949C3.58179 3.74949 3.74949 3.58179 3.74949 3.37454V2.2497H6.74908V3.37454C6.74908 3.58179 6.91678 3.74949 7.12403 3.74949C7.33128 3.74949 7.49898 3.58179 7.49898 3.37454V2.2497H10.4986V3.37454C10.4986 3.58179 10.6663 3.74949 10.8735 3.74949C11.0808 3.74949 11.2485 3.58179 11.2485 3.37454V2.2497H14.2481V3.37454C14.2481 3.58179 14.4158 3.74949 14.623 3.74949C14.8303 3.74949 14.998 3.58179 14.998 3.37454V2.2497H16.1228C16.7431 2.2497 17.2477 2.75426 17.2477 3.37454V5.24929Z" fill="#FFAA00"/>
<path d="M4.12493 10.5H2.62499C2.41772 10.5 2.25 10.6677 2.25 10.875C2.25 11.0823 2.41772 11.25 2.62499 11.25H4.12493C4.3322 11.25 4.49992 11.0823 4.49992 10.875C4.49992 10.6677 4.3322 10.5 4.12493 10.5Z" fill="#FFAA00"/>
<path d="M4.12493 12.75H2.62499C2.41772 12.75 2.25 12.9177 2.25 13.125C2.25 13.3323 2.41772 13.5 2.62499 13.5H4.12493C4.3322 13.5 4.49992 13.3323 4.49992 13.125C4.49992 12.9177 4.3322 12.75 4.12493 12.75Z" fill="#FFAA00"/>
<path d="M7.87493 8.25H6.37499C6.16772 8.25 6 8.41772 6 8.62499C6 8.83226 6.16772 8.99997 6.37499 8.99997H7.87493C8.0822 8.99997 8.24992 8.83226 8.24992 8.62499C8.24992 8.41772 8.0822 8.25 7.87493 8.25Z" fill="#FFAA00"/>
<path d="M7.87493 10.5H6.37499C6.16772 10.5 6 10.6677 6 10.875C6 11.0823 6.16772 11.25 6.37499 11.25H7.87493C8.0822 11.25 8.24992 11.0823 8.24992 10.875C8.24992 10.6677 8.0822 10.5 7.87493 10.5Z" fill="#FFAA00"/>
<path d="M7.87493 12.75H6.37499C6.16772 12.75 6 12.9177 6 13.125C6 13.3323 6.16772 13.5 6.37499 13.5H7.87493C8.0822 13.5 8.24992 13.3323 8.24992 13.125C8.24992 12.9177 8.0822 12.75 7.87493 12.75Z" fill="#FFAA00"/>
<path d="M13.8725 9.75C11.5986 9.75 9.74805 11.6002 9.74805 13.8744C9.74805 16.1487 11.5986 17.9989 13.8725 17.9989C16.1464 17.9989 17.9969 16.1487 17.9969 13.8744C17.9969 11.6002 16.1464 9.75 13.8725 9.75ZM13.8725 17.249C12.0117 17.249 10.4979 15.7353 10.4979 13.8744C10.4979 12.0136 12.0117 10.4999 13.8725 10.4999C15.7333 10.4999 17.247 12.0136 17.247 13.8744C17.247 15.7353 15.7333 17.249 13.8725 17.249Z" fill="#FFAA00"/>
<path d="M14.248 13.7197V12.375C14.248 12.1677 14.0803 12 13.873 12C13.6658 12 13.498 12.1677 13.498 12.375V13.8749C13.498 13.9745 13.5376 14.0698 13.6079 14.1401L14.3579 14.89C14.4311 14.9633 14.5271 14.9999 14.623 14.9999C14.719 14.9999 14.8149 14.9633 14.8881 14.89C15.0346 14.7436 15.0346 14.5063 14.8881 14.3598L14.248 13.7197Z" fill="#FFAA00"/>
</svg>
