<svg width="56" height="56" viewBox="0 0 56 56" fill="none" xmlns="http://www.w3.org/2000/svg">
<circle cx="28" cy="28" r="28" fill="#FFF2D9"/>
<g clip-path="url(#clip0_7559_11326)">
<path fill-rule="evenodd" clip-rule="evenodd" d="M37.1466 25.9853L30.5374 19.3752C28.8343 17.677 26.0783 17.677 24.3752 19.3752L17.7659 25.9853C17.2739 26.4742 16.998 27.1397 17 27.8334V36.3875C17 37.8312 18.1704 39.0016 19.6141 39.0016H35.2985C36.7422 39.0016 37.9125 37.8312 37.9125 36.3875V27.8334C37.9145 27.1397 37.6387 26.4742 37.1466 25.9853ZM24.8421 37.2654V33.8375C24.8421 32.3938 26.0125 31.2234 27.4562 31.2234C28.8999 31.2234 30.0703 32.3938 30.0703 33.8375V37.2654H24.8421ZM35.299 37.2599C35.7802 37.2599 36.1703 36.8698 36.1703 36.3885V27.831C36.1679 27.6022 36.0763 27.3833 35.915 27.221L29.3058 20.6109C28.2832 19.5931 26.6303 19.5931 25.6077 20.6109L18.9985 27.2184C18.8357 27.3822 18.744 27.6035 18.7432 27.8345V36.3885C18.7432 36.8698 19.1333 37.2599 19.6146 37.2599H23.1V33.832C23.1 31.4258 25.0506 29.4752 27.4568 29.4752C29.8629 29.4752 31.8135 31.4258 31.8135 33.832V37.2599H35.299Z" fill="#1B2651"/>
</g>
<defs>
<clipPath id="clip0_7559_11326">
<rect width="22" height="22" fill="white" transform="translate(17 17)"/>
</clipPath>
</defs>
</svg>
