<svg width="20" height="20" viewBox="0 0 20 20" fill="none" xmlns="http://www.w3.org/2000/svg">
<g clip-path="url(#clip0_8313_12840)">
<g clip-path="url(#clip1_8313_12840)">
<path d="M0 12.0007V18.0007C0 19.3137 2.0127 20.0007 3.99994 20.0007C5.98737 20.0007 8.00006 19.3137 8.00006 18.0007V12.0007C8.00006 9.37477 0 9.37477 0 12.0007ZM6.99994 16.0006C6.99994 16.3531 5.86139 17.0007 3.99994 17.0007C2.13867 17.0007 0.999939 16.3531 0.999939 16.0006V15.3528C1.93414 15.8043 2.96265 16.0264 3.99994 16.0006C5.03723 16.0264 6.06573 15.8043 6.99994 15.3528V16.0006ZM6.99994 14.0007C6.99994 14.3532 5.86139 15.0007 3.99994 15.0007C2.13867 15.0007 0.999939 14.3532 0.999939 14.0007V13.3527C1.93414 13.8045 2.96265 14.0266 3.99994 14.0007C5.03723 14.0266 6.06573 13.8045 6.99994 13.3527V14.0007ZM3.99994 11.0007C5.86139 11.0007 6.99994 11.6482 6.99994 12.0007C6.99994 12.3532 5.86139 13.0006 3.99994 13.0006C2.13867 13.0006 0.999939 12.3532 0.999939 12.0007C0.999939 11.6482 2.13867 11.0007 3.99994 11.0007ZM3.99994 19.0006C2.13867 19.0006 0.999939 18.3532 0.999939 18.0007V17.3529C1.93414 17.8044 2.96265 18.0265 3.99994 18.0007C5.03723 18.0265 6.06573 17.8044 6.99994 17.3529V18.0007C6.99994 18.3532 5.86139 19.0006 3.99994 19.0006Z" fill="#FFAA00"/>
<path d="M15.2372 3.37463L16.5594 0.723084C16.6367 0.568177 16.6283 0.384339 16.5371 0.237122C16.4461 0.0899051 16.2853 0.000183385 16.1123 2.79158e-07H10.1123C9.9387 -0.000182826 9.77775 0.0897219 9.68656 0.237305C9.59538 0.384888 9.58714 0.569092 9.66496 0.724182L10.974 3.33527C8.64744 4.08362 6.84001 6.08807 6.23631 8.81195C6.17661 9.08167 6.34654 9.34863 6.61607 9.40869C6.74571 9.43872 6.88194 9.41547 6.99418 9.34406C7.10642 9.27246 7.18534 9.15894 7.21281 9.02875C7.87876 6.02106 10.2049 3.99994 12.9999 3.99994C16.4765 3.99994 18.9999 6.94391 18.9999 11.0001V15.5001C18.9984 16.8801 17.88 17.9985 16.4999 18H9.49998C9.22386 18 8.99992 18.2239 8.99992 18.5001C8.99992 18.7762 9.22386 18.9999 9.49998 18.9999H16.4999C18.4319 18.9977 19.9976 17.432 20 15.5001V11.0001C20 7.2713 18.0931 4.36908 15.2372 3.37463ZM11.9712 3.09192L10.9218 0.999939H15.3046L14.2477 3.11884C13.8361 3.04175 13.4186 3.00201 12.9999 3C12.6551 3.00403 12.3112 3.03479 11.9712 3.09192Z" fill="#FFAA00"/>
<path d="M13.4999 12.9999H11.4999C11.2238 12.9999 11 13.2238 11 13.4999C11 13.7761 11.2238 14 11.4999 14H12.5V14.4999C12.5 14.776 12.7238 14.9999 12.9999 14.9999C13.276 14.9999 13.4999 14.776 13.4999 14.4999V14C14.3283 14 14.9999 13.3284 14.9999 12.5C14.9999 11.6714 14.3283 11 13.4999 11H12.5C12.2239 11 11.9999 10.7761 11.9999 10.4999C11.9999 10.2238 12.2239 9.99988 12.5 9.99988H14.4999C14.776 9.99988 14.9999 9.77612 14.9999 9.5C14.9999 9.22388 14.776 8.99994 14.4999 8.99994H13.4999V8.49988C13.4999 8.22375 13.276 8 12.9999 8C12.7238 8 12.5 8.22375 12.5 8.49988V8.99994C11.6714 8.99994 11 9.67157 11 10.4999C11 11.3283 11.6714 11.9999 12.5 11.9999H13.4999C13.7761 11.9999 14 12.2239 14 12.5C14 12.7761 13.7761 12.9999 13.4999 12.9999Z" fill="#FFAA00"/>
</g>
</g>
<defs>
<clipPath id="clip0_8313_12840">
<rect width="20" height="20" fill="white"/>
</clipPath>
<clipPath id="clip1_8313_12840">
<rect width="20" height="20" fill="white"/>
</clipPath>
</defs>
</svg>
