<svg width="17" height="13" viewBox="0 0 17 13" fill="none" xmlns="http://www.w3.org/2000/svg">
<path d="M0 12.9838V4.66571C0 2.09326 2.09326 0 4.66571 0H12.3332C14.9062 0 17 2.09326 17 4.66571V6.10045C17 8.6729 14.9067 10.7662 12.3343 10.7662H4.77388L0 12.9838ZM4.66571 1.04019C2.6666 1.04019 1.04019 2.6666 1.04019 4.66571V11.3535L4.54465 9.72542H12.3343C14.3334 9.72542 15.9598 8.099 15.9598 6.09989V4.66515C15.9598 2.66604 14.3328 1.03963 12.3332 1.03963H4.66571V1.04019ZM5.0087 4.58669C5.55514 4.58669 5.99789 5.02944 5.99789 5.57587C5.99789 6.12231 5.55514 6.56506 5.0087 6.56506C4.46227 6.56506 4.01952 6.12231 4.01952 5.57587C4.01952 5.02944 4.46227 4.58669 5.0087 4.58669ZM11.9907 4.58669C12.5372 4.58669 12.9799 5.02944 12.9799 5.57587C12.9799 6.12231 12.5372 6.56506 11.9907 6.56506C11.4443 6.56506 11.0015 6.12231 11.0015 5.57587C11.0015 5.02944 11.4443 4.58669 11.9907 4.58669ZM8.49916 4.58669C9.04559 4.58669 9.48835 5.02944 9.48835 5.57587C9.48835 6.12231 9.04559 6.56506 8.49916 6.56506C7.95272 6.56506 7.50997 6.12231 7.50997 5.57587C7.50997 5.02944 7.95272 4.58669 8.49916 4.58669Z" fill="#FFAA00"/>
</svg>
