<svg width="62" height="62" viewBox="0 0 62 62" fill="none" xmlns="http://www.w3.org/2000/svg">
<circle cx="31" cy="31" r="28" fill="#1B2651" stroke="#F1F3F7" stroke-width="5"/>
<g clip-path="url(#clip0_8728_9437)">
<path d="M35.3909 31.2197C35.6913 31.5125 35.6913 31.9874 35.3909 32.2803L31.5448 36.0303C31.2854 36.2831 30.8792 36.3224 30.5741 36.1241L28.2664 34.6241C27.913 34.3943 27.8174 33.9286 28.0531 33.584C28.2888 33.2393 28.7664 33.1462 29.1198 33.3759L30.9028 34.5349L34.3031 31.2197C34.6034 30.9268 35.0905 30.9268 35.3909 31.2197Z" fill="white"/>
<path fill-rule="evenodd" clip-rule="evenodd" d="M24.8462 19C22.722 19 21 20.6789 21 22.75V40.75C21 41.9927 22.0332 43 23.3077 43H38.6923C39.9668 43 41 41.9927 41 40.75V25.75C41 25.3358 40.6556 25 40.2308 25H24.8462C23.5717 25 22.5385 23.9926 22.5385 22.75C22.5385 21.5074 23.5717 20.5 24.8462 20.5H40.2308C40.6556 20.5 41 20.1642 41 19.75C41 19.3358 40.6556 19 40.2308 19H24.8462ZM22.5385 25.7503V40.75C22.5385 41.1642 22.8829 41.5 23.3077 41.5H38.6923C39.1172 41.5 39.4615 41.1642 39.4615 40.75V26.5H24.8462C23.9803 26.5 23.1813 26.221 22.5385 25.7503Z" fill="white"/>
<path d="M29.4606 22C29.0358 22 28.6914 22.3358 28.6914 22.75C28.6914 23.1642 29.0358 23.5 29.4606 23.5H40.2299C40.6547 23.5 40.9991 23.1642 40.9991 22.75C40.9991 22.3358 40.6547 22 40.2299 22H29.4606Z" fill="white"/>
</g>
<defs>
<clipPath id="clip0_8728_9437">
<rect width="20" height="24" fill="white" transform="translate(21 19)"/>
</clipPath>
</defs>
</svg>
