<svg width="34" height="34" viewBox="0 0 34 34" fill="none" xmlns="http://www.w3.org/2000/svg">
<g clip-path="url(#clip0_9365_10046)">
<path d="M29.07 4.88608C25.84 1.76375 21.59 0 17.0638 0C4.07292 0 -4.08425 14.0746 2.40267 25.2705L0 34L8.97458 31.6597C12.8846 33.7719 16.0877 33.5849 17.0723 33.7096C32.1357 33.7096 39.6341 15.4856 29.0487 4.94133L29.07 4.88608Z" fill="#ECEFF1"/>
<path d="M17.095 30.8145L17.0865 30.813H17.0638C12.556 30.813 9.67591 28.6781 9.39258 28.5549L4.08008 29.9361L5.50383 24.7724L5.16524 24.2411C3.76274 22.0085 3.01758 19.4372 3.01758 16.7895C3.01758 4.33271 18.2397 -1.89637 27.0485 6.90821C35.8361 15.6207 29.6665 30.8145 17.095 30.8145Z" fill="#4CAF50"/>
<path d="M24.8018 20.2691L24.789 20.3753C24.3626 20.1628 22.2858 19.1471 21.899 19.0068C21.0306 18.6852 21.2757 18.9558 19.6083 20.8655C19.3604 21.1417 19.1139 21.163 18.6931 20.9717C18.2681 20.7592 16.9039 20.313 15.2889 18.868C14.0309 17.7417 13.1865 16.3605 12.9372 15.9355C12.5221 15.2186 13.3905 15.1166 14.181 13.6206C14.3227 13.3231 14.2504 13.0894 14.1456 12.8783C14.0394 12.6658 13.1936 10.5833 12.8394 9.75314C12.4994 8.92581 12.1495 9.03064 11.8874 9.03064C11.0714 8.95981 10.475 8.97114 9.94944 9.51798C7.66294 12.0311 8.23953 14.6236 10.1959 17.3805C14.0408 22.4125 16.0893 23.339 19.8349 24.6253C20.8464 24.9469 21.7687 24.9016 22.4983 24.7967C23.3114 24.6678 25.0015 23.7753 25.3543 22.7766C25.7155 21.7778 25.7155 20.9491 25.6093 20.7578C25.5044 20.5666 25.2268 20.4603 24.8018 20.2691Z" fill="#FAFAFA"/>
</g>
<defs>
<clipPath id="clip0_9365_10046">
<rect width="34" height="34" fill="white"/>
</clipPath>
</defs>
</svg>
