<svg width="14" height="15" viewBox="0 0 14 15" fill="none" xmlns="http://www.w3.org/2000/svg">
<g id="unlock (1) 3">
<g id="group_8929000 1">
<path id="Vector" d="M0.7 14.3125H13.3C13.4857 14.3125 13.6637 14.2387 13.795 14.1075C13.9262 13.9762 14 13.7982 14 13.6125V13.1458C13.9988 12.7048 13.8591 12.2753 13.6006 11.918C13.3421 11.5606 12.9779 11.2935 12.5594 11.1543C12.8861 10.8103 13.0678 10.3536 13.0667 9.87917V9.17917C13.0661 8.68427 12.8693 8.2098 12.5193 7.85985C12.1694 7.5099 11.6949 7.31306 11.2 7.3125C10.7051 7.31318 10.2307 7.51006 9.88082 7.85998C9.5309 8.2099 9.33401 8.6843 9.33333 9.17917V9.87917C9.33354 10.353 9.51474 10.8089 9.8399 11.1536C9.56609 11.2435 9.31408 11.3896 9.1 11.5825C8.88509 11.39 8.63283 11.2439 8.35893 11.1532C8.68441 10.8088 8.86603 10.353 8.86667 9.87917V9.17917C8.86599 8.6843 8.6691 8.2099 8.31918 7.85998C7.96926 7.51006 7.49486 7.31318 7 7.3125C6.5051 7.31306 6.03063 7.5099 5.68068 7.85985C5.33073 8.2098 5.13389 8.68427 5.13333 9.17917V9.87917C5.13217 10.3536 5.31375 10.8102 5.64037 11.1543C5.36662 11.2449 5.11455 11.391 4.9 11.5837C4.6862 11.3903 4.43433 11.2439 4.16057 11.1536C4.48555 10.8089 4.66659 10.353 4.66667 9.87917V9.17917C4.66599 8.6843 4.4691 8.2099 4.11918 7.85998C3.76926 7.51006 3.29486 7.31318 2.8 7.3125C2.3051 7.31306 1.83063 7.5099 1.48068 7.85985C1.13073 8.2098 0.933889 8.68427 0.933333 9.17917V9.87917C0.932173 10.3536 1.11375 10.8102 1.44037 11.1543C1.02196 11.2936 0.657853 11.5608 0.399419 11.9181C0.140986 12.2754 0.00127505 12.7049 0 13.1458L0 13.6125C0 13.7982 0.0737498 13.9762 0.205025 14.1075C0.336301 14.2387 0.514348 14.3125 0.7 14.3125ZM13.5333 13.1458V13.6125C13.5333 13.6744 13.5087 13.7337 13.465 13.7775C13.4212 13.8213 13.3619 13.8458 13.3 13.8458H9.75707C9.7847 13.7711 9.79923 13.6922 9.8 13.6125V13.1458C9.79943 12.7106 9.66286 12.2864 9.4094 11.9325C9.66169 11.7032 9.98039 11.5601 10.3194 11.5239C10.5906 11.6693 10.8935 11.7453 11.2012 11.7453C11.5088 11.7453 11.8117 11.6693 12.0829 11.5239C12.4816 11.5693 12.8496 11.7596 13.117 12.0586C13.3845 12.3577 13.5326 12.7446 13.5333 13.1458ZM9.8 9.17917C9.80086 8.80813 9.94864 8.45253 10.211 8.19017C10.4734 7.92781 10.829 7.78003 11.2 7.77917C11.5712 7.77954 11.9271 7.92716 12.1895 8.18963C12.452 8.4521 12.5996 8.80798 12.6 9.17917V9.87917C12.5991 10.2502 12.4514 10.6058 12.189 10.8682C11.9266 11.1305 11.571 11.2783 11.2 11.2792C10.8288 11.2788 10.4729 11.1312 10.2105 10.8687C9.94799 10.6062 9.80037 10.2504 9.8 9.87917V9.17917ZM5.6 9.17917C5.60037 8.80798 5.74799 8.4521 6.01046 8.18963C6.27293 7.92716 6.62881 7.77954 7 7.77917C7.37104 7.78003 7.72663 7.92781 7.989 8.19017C8.25136 8.45253 8.39914 8.80813 8.4 9.17917V9.87917C8.39963 10.2504 8.25201 10.6062 7.98954 10.8687C7.72707 11.1312 7.37119 11.2788 7 11.2792C6.62896 11.2783 6.27337 11.1305 6.011 10.8682C5.74864 10.6058 5.60086 10.2502 5.6 9.87917V9.17917ZM6.1173 11.5249C6.38848 11.6702 6.69139 11.7463 6.99907 11.7463C7.30674 11.7463 7.60965 11.6702 7.88083 11.5249C8.2796 11.5699 8.64791 11.7599 8.91571 12.0588C9.18352 12.3577 9.33215 12.7445 9.33333 13.1458V13.6125C9.33333 13.6744 9.30875 13.7337 9.26499 13.7775C9.22123 13.8213 9.16188 13.8458 9.1 13.8458H4.9C4.83812 13.8458 4.77877 13.8213 4.73501 13.7775C4.69125 13.7337 4.66667 13.6744 4.66667 13.6125V13.1458C4.66759 12.7448 4.81589 12.358 5.08335 12.0592C5.35082 11.7603 5.71879 11.5701 6.1173 11.5249ZM1.4 9.17917C1.40037 8.80798 1.54799 8.4521 1.81046 8.18963C2.07293 7.92716 2.42881 7.77954 2.8 7.77917C3.17104 7.78003 3.52663 7.92781 3.789 8.19017C4.05136 8.45253 4.19914 8.80813 4.2 9.17917V9.87917C4.19963 10.2504 4.05201 10.6062 3.78954 10.8687C3.52707 11.1312 3.17119 11.2788 2.8 11.2792C2.42896 11.2783 2.07337 11.1305 1.811 10.8682C1.54864 10.6058 1.40086 10.2502 1.4 9.87917V9.17917ZM0.466667 13.1458C0.467595 12.7448 0.615891 12.358 0.883354 12.0592C1.15082 11.7603 1.51879 11.5701 1.9173 11.5249C2.18848 11.6702 2.49139 11.7463 2.79907 11.7463C3.10674 11.7463 3.40965 11.6702 3.68083 11.5249C4.01984 11.561 4.33855 11.7041 4.59083 11.9334C4.33746 12.287 4.20082 12.7109 4.2 13.1458V13.6125C4.20077 13.6922 4.2153 13.7711 4.24293 13.8458H0.7C0.638116 13.8458 0.578767 13.8213 0.535008 13.7775C0.49125 13.7337 0.466667 13.6744 0.466667 13.6125V13.1458Z" fill="#FFAA00"/>
<path id="Vector_2" d="M11.6668 4.66638C11.7287 4.66638 11.788 4.6418 11.8318 4.59804C11.8756 4.55428 11.9001 4.49493 11.9001 4.43305V2.60838L12.6053 2.43548C12.7358 2.40787 12.8528 2.33627 12.9368 2.23267C13.0207 2.12906 13.0666 1.99975 13.0666 1.86638C13.0666 1.73302 13.0207 1.6037 12.9368 1.5001C12.8528 1.39649 12.7358 1.32489 12.6053 1.29728L7.38537 0.0179137C7.28567 -0.00597124 7.18174 -0.00597124 7.08204 0.0179137L1.86167 1.29728C1.7312 1.32489 1.61417 1.39649 1.53019 1.5001C1.44622 1.6037 1.40039 1.73302 1.40039 1.86638C1.40039 1.99975 1.44622 2.12906 1.53019 2.23267C1.61417 2.33627 1.7312 2.40787 1.86167 2.43548L3.96681 2.95161V5.18648C3.96557 5.35636 4.01126 5.52329 4.09883 5.66887C4.1864 5.81445 4.31245 5.93303 4.46311 6.01155C4.92347 6.24931 5.77677 6.53305 7.23347 6.53305C8.69017 6.53305 9.54348 6.24931 10.0036 6.01178C10.1543 5.93326 10.2804 5.81465 10.368 5.66903C10.4557 5.5234 10.5014 5.35642 10.5001 5.18648V2.95161L11.4335 2.72271V4.43305C11.4335 4.49493 11.4581 4.55428 11.5018 4.59804C11.5456 4.6418 11.6049 4.66638 11.6668 4.66638ZM1.86681 1.86638C1.86704 1.83735 1.87794 1.80943 1.89743 1.78791C1.91692 1.7664 1.94364 1.7528 1.97251 1.74971L7.19171 0.47128C7.20539 0.468028 7.21941 0.466384 7.23347 0.46638C7.24739 0.466371 7.26125 0.468016 7.27477 0.47128L12.4947 1.74971C12.5228 1.7533 12.5487 1.76703 12.5675 1.78833C12.5863 1.80964 12.5966 1.83706 12.5966 1.86545C12.5966 1.89384 12.5863 1.92126 12.5675 1.94256C12.5487 1.96387 12.5228 1.9776 12.4947 1.98118L11.661 2.18558L7.26241 1.63491C7.20179 1.62879 7.14118 1.64662 7.09353 1.68459C7.04588 1.72256 7.01498 1.77767 7.00742 1.83812C6.99987 1.89858 7.01625 1.9596 7.05309 2.00813C7.08992 2.05666 7.14428 2.08886 7.20454 2.09785L10.3912 2.49755L7.27524 3.26148C7.24797 3.26825 7.21945 3.26825 7.19217 3.26148L1.97227 1.98305C1.94345 1.9799 1.91679 1.96628 1.89735 1.94478C1.8779 1.92327 1.86704 1.89537 1.86681 1.86638ZM10.0335 5.18648C10.0345 5.2708 10.0123 5.35377 9.96919 5.42624C9.92608 5.49871 9.86378 5.55785 9.78918 5.59715C9.37571 5.81111 8.59637 6.06638 7.23347 6.06638C5.87057 6.06638 5.09124 5.81111 4.67754 5.59691C4.603 5.55763 4.54076 5.49851 4.49769 5.42608C4.45462 5.35366 4.4324 5.27074 4.43347 5.18648V3.06595L7.08157 3.71485C7.18125 3.73896 7.28523 3.73896 7.38491 3.71485L10.0335 3.06595V5.18648Z" fill="#FFAA00"/>
</g>
</g>
</svg>
