<svg width="375" height="849" viewBox="0 0 375 849" fill="none" xmlns="http://www.w3.org/2000/svg">
<rect width="375" height="849" fill="white"/>
<path d="M82.959 590.889H84.9414L83.4238 602.4C83.2233 603.932 83.123 605.021 83.123 605.668C83.123 606.926 83.4831 607.896 84.2031 608.58C84.9232 609.255 85.9395 609.592 87.252 609.592C88.1725 609.592 88.9883 609.437 89.6992 609.127C90.4102 608.817 91.0117 608.366 91.5039 607.773C92.0052 607.181 92.3607 606.497 92.5703 605.723C92.9349 604.374 93.2493 602.669 93.5137 600.609L94.7715 590.889H96.7539L95.4141 601.047L95.0859 603.535C94.8945 604.693 94.6667 605.682 94.4023 606.502C94.138 607.313 93.7917 608.033 93.3633 608.662C92.9349 609.291 92.4473 609.806 91.9004 610.207C91.3535 610.608 90.6882 610.923 89.9043 611.15C89.1296 611.387 88.2591 611.506 87.293 611.506C85.3151 611.506 83.7884 611.005 82.7129 610.002C81.6374 608.999 81.0996 607.669 81.0996 606.01C81.0996 605.545 81.127 605.025 81.1816 604.451L81.4824 602.1L82.959 590.889ZM100.746 596.125H102.578L102.291 598.408C103.795 596.631 105.545 595.742 107.541 595.742C109.072 595.742 110.307 596.216 111.246 597.164C112.185 598.103 112.654 599.37 112.654 600.965C112.654 601.603 112.554 602.674 112.354 604.178L111.424 611H109.537L110.453 604.178C110.654 602.719 110.754 601.644 110.754 600.951C110.754 599.912 110.439 599.074 109.811 598.436C109.182 597.798 108.357 597.479 107.336 597.479C106.333 597.479 105.399 597.738 104.533 598.258C103.676 598.768 103.011 599.47 102.537 600.363C102.063 601.247 101.699 602.651 101.443 604.574L100.555 611H98.6816L100.746 596.125ZM118.287 590.383H120.16L117.289 611H115.402L118.287 590.383ZM130.113 595.742C131.38 595.742 132.542 596.048 133.6 596.658C134.657 597.26 135.482 598.103 136.074 599.188C136.667 600.263 136.963 601.484 136.963 602.852C136.963 604.41 136.585 605.859 135.828 607.199C135.072 608.53 134.055 609.56 132.779 610.289C131.503 611.018 130.059 611.383 128.445 611.383C126.449 611.383 124.804 610.731 123.51 609.428C122.225 608.115 121.582 606.447 121.582 604.424C121.582 602.838 121.96 601.375 122.717 600.035C123.473 598.695 124.508 597.647 125.82 596.891C127.142 596.125 128.573 595.742 130.113 595.742ZM130.072 597.561C128.887 597.561 127.771 597.857 126.723 598.449C125.684 599.042 124.882 599.857 124.316 600.896C123.76 601.926 123.482 603.066 123.482 604.314C123.482 605.882 123.965 607.158 124.932 608.143C125.898 609.118 127.146 609.605 128.678 609.605C129.872 609.605 130.952 609.323 131.918 608.758C132.893 608.184 133.668 607.359 134.242 606.283C134.816 605.208 135.104 604.055 135.104 602.824C135.104 601.794 134.889 600.883 134.461 600.09C134.033 599.288 133.426 598.668 132.643 598.23C131.859 597.784 131.002 597.561 130.072 597.561ZM155.543 599.338L153.971 600.254C152.868 598.467 151.182 597.574 148.912 597.574C147.6 597.574 146.401 597.866 145.316 598.449C144.232 599.033 143.384 599.844 142.773 600.883C142.163 601.922 141.857 603.034 141.857 604.219C141.857 605.267 142.085 606.206 142.541 607.035C142.997 607.865 143.635 608.503 144.455 608.949C145.285 609.396 146.26 609.619 147.381 609.619C148.529 609.619 149.623 609.391 150.662 608.936C151.71 608.48 152.526 607.892 153.109 607.172L154.682 608.279C153.697 609.355 152.626 610.143 151.469 610.645C150.32 611.137 148.985 611.383 147.463 611.383C145.111 611.383 143.275 610.745 141.953 609.469C140.641 608.184 139.984 606.475 139.984 604.342C139.984 601.972 140.846 599.949 142.568 598.271C144.3 596.585 146.419 595.742 148.926 595.742C150.43 595.742 151.756 596.061 152.904 596.699C154.053 597.328 154.932 598.208 155.543 599.338ZM160.738 590.383H162.598L161.025 601.635L168.189 596.125H171.17L162.529 602.77L170.145 611H167.602L160.738 603.617L159.74 611H157.826L160.738 590.383ZM128.814 630.889H130.838L128.418 649.113H137.113L136.881 651H126.162L128.814 630.889ZM154.326 643.945H141.064C141.037 645.714 141.497 647.104 142.445 648.115C143.393 649.127 144.656 649.633 146.232 649.633C147.281 649.633 148.251 649.419 149.145 648.99C150.038 648.562 150.776 647.96 151.359 647.186L152.781 648.348C152.061 649.268 151.118 650.007 149.951 650.562C148.794 651.109 147.54 651.383 146.191 651.383C143.858 651.383 142.104 650.663 140.928 649.223C139.761 647.773 139.178 646.146 139.178 644.342C139.178 642.865 139.57 641.443 140.354 640.076C141.146 638.709 142.204 637.647 143.525 636.891C144.847 636.125 146.278 635.742 147.818 635.742C149.723 635.742 151.3 636.389 152.549 637.684C153.798 638.969 154.422 640.609 154.422 642.605C154.422 642.97 154.39 643.417 154.326 643.945ZM152.576 642.291C152.521 640.887 152.043 639.753 151.141 638.887C150.238 638.012 149.104 637.574 147.736 637.574C146.251 637.574 144.938 637.993 143.799 638.832C142.669 639.671 141.867 640.824 141.393 642.291H152.576ZM171.922 651H169.994L170.281 648.758C168.559 650.508 166.585 651.383 164.361 651.383C162.338 651.383 160.674 650.731 159.371 649.428C158.068 648.124 157.416 646.447 157.416 644.396C157.416 642.027 158.259 639.994 159.945 638.299C161.641 636.594 163.632 635.742 165.92 635.742C167.16 635.742 168.244 636.002 169.174 636.521C170.113 637.041 170.915 637.852 171.58 638.955L171.922 636.125H173.904L171.922 651ZM164.566 649.633C165.797 649.633 166.918 649.346 167.93 648.771C168.941 648.188 169.743 647.354 170.336 646.27C170.928 645.185 171.225 644.005 171.225 642.729C171.225 641.188 170.737 639.935 169.762 638.969C168.786 638.003 167.52 637.52 165.961 637.52C164.129 637.52 162.561 638.18 161.258 639.502C159.954 640.824 159.303 642.446 159.303 644.369C159.303 645.946 159.79 647.217 160.766 648.184C161.741 649.15 163.008 649.633 164.566 649.633ZM177.555 636.125H179.455L179.209 637.998C179.719 637.287 180.335 636.736 181.055 636.344C181.775 635.943 182.513 635.742 183.27 635.742C183.807 635.742 184.368 635.87 184.951 636.125L184.049 637.875C183.575 637.684 183.178 637.588 182.859 637.588C182.194 637.588 181.533 637.82 180.877 638.285C180.23 638.75 179.701 639.429 179.291 640.322C178.89 641.206 178.548 642.665 178.266 644.697L177.391 651H175.531L177.555 636.125ZM186.783 636.125H188.615L188.328 638.408C189.832 636.631 191.582 635.742 193.578 635.742C195.109 635.742 196.344 636.216 197.283 637.164C198.222 638.103 198.691 639.37 198.691 640.965C198.691 641.603 198.591 642.674 198.391 644.178L197.461 651H195.574L196.49 644.178C196.691 642.719 196.791 641.644 196.791 640.951C196.791 639.912 196.477 639.074 195.848 638.436C195.219 637.798 194.394 637.479 193.373 637.479C192.37 637.479 191.436 637.738 190.57 638.258C189.714 638.768 189.048 639.47 188.574 640.363C188.1 641.247 187.736 642.651 187.48 644.574L186.592 651H184.719L186.783 636.125ZM204.994 630C205.413 630 205.773 630.15 206.074 630.451C206.375 630.752 206.525 631.112 206.525 631.531C206.525 631.96 206.375 632.324 206.074 632.625C205.773 632.917 205.413 633.062 204.994 633.062C204.566 633.062 204.201 632.917 203.9 632.625C203.609 632.324 203.463 631.96 203.463 631.531C203.463 631.112 203.609 630.752 203.9 630.451C204.201 630.15 204.566 630 204.994 630ZM203.49 636.125H205.309L203.326 651H201.439L203.49 636.125ZM209.479 636.125H211.311L211.023 638.408C212.527 636.631 214.277 635.742 216.273 635.742C217.805 635.742 219.04 636.216 219.979 637.164C220.917 638.103 221.387 639.37 221.387 640.965C221.387 641.603 221.286 642.674 221.086 644.178L220.156 651H218.27L219.186 644.178C219.386 642.719 219.486 641.644 219.486 640.951C219.486 639.912 219.172 639.074 218.543 638.436C217.914 637.798 217.089 637.479 216.068 637.479C215.066 637.479 214.132 637.738 213.266 638.258C212.409 638.768 211.743 639.47 211.27 640.363C210.796 641.247 210.431 642.651 210.176 644.574L209.287 651H207.414L209.479 636.125ZM239.16 636.125H241.033L239.324 648.717C239.051 650.749 238.718 652.171 238.326 652.982C237.788 654.104 236.895 655.024 235.646 655.744C234.398 656.464 232.921 656.824 231.217 656.824C229.54 656.824 228.109 656.482 226.924 655.799C225.748 655.115 224.855 654.126 224.244 652.832L225.953 652.217C226.992 654.104 228.747 655.047 231.217 655.047C232.52 655.047 233.646 654.783 234.594 654.254C235.551 653.725 236.234 653.046 236.645 652.217C236.891 651.715 237.141 650.626 237.396 648.949L237.479 648.361C235.865 650.12 233.901 651 231.586 651C229.535 651 227.885 650.376 226.637 649.127C225.388 647.869 224.764 646.238 224.764 644.232C224.764 642.756 225.142 641.37 225.898 640.076C226.664 638.773 227.712 637.725 229.043 636.932C230.383 636.139 231.741 635.742 233.117 635.742C234.266 635.742 235.314 636.002 236.262 636.521C237.21 637.032 238.053 637.843 238.791 638.955L239.16 636.125ZM233.486 637.561C232.238 637.561 231.076 637.861 230 638.463C228.934 639.055 228.104 639.862 227.512 640.883C226.928 641.904 226.637 643.048 226.637 644.314C226.637 645.773 227.102 646.949 228.031 647.842C228.961 648.735 230.21 649.182 231.777 649.182C233.673 649.182 235.245 648.562 236.494 647.322C237.752 646.083 238.381 644.52 238.381 642.633C238.381 640.974 237.87 639.716 236.85 638.859C235.829 637.993 234.708 637.561 233.486 637.561ZM245.271 648.047C245.736 648.047 246.128 648.211 246.447 648.539C246.775 648.867 246.939 649.259 246.939 649.715C246.939 650.171 246.775 650.562 246.447 650.891C246.128 651.219 245.736 651.383 245.271 651.383C244.807 651.383 244.41 651.219 244.082 650.891C243.763 650.562 243.604 650.171 243.604 649.715C243.604 649.259 243.763 648.867 244.082 648.539C244.41 648.211 244.807 648.047 245.271 648.047ZM101.58 670.889H103.686L107.992 680.021L115.252 670.889H117.686L108.771 682.086L107.555 691H105.586L106.803 681.977L101.58 670.889ZM126.312 675.742C127.579 675.742 128.742 676.048 129.799 676.658C130.856 677.26 131.681 678.103 132.273 679.188C132.866 680.263 133.162 681.484 133.162 682.852C133.162 684.41 132.784 685.859 132.027 687.199C131.271 688.53 130.255 689.56 128.979 690.289C127.702 691.018 126.258 691.383 124.645 691.383C122.648 691.383 121.003 690.731 119.709 689.428C118.424 688.115 117.781 686.447 117.781 684.424C117.781 682.838 118.16 681.375 118.916 680.035C119.673 678.695 120.707 677.647 122.02 676.891C123.341 676.125 124.772 675.742 126.312 675.742ZM126.271 677.561C125.087 677.561 123.97 677.857 122.922 678.449C121.883 679.042 121.081 679.857 120.516 680.896C119.96 681.926 119.682 683.066 119.682 684.314C119.682 685.882 120.165 687.158 121.131 688.143C122.097 689.118 123.346 689.605 124.877 689.605C126.071 689.605 127.151 689.323 128.117 688.758C129.092 688.184 129.867 687.359 130.441 686.283C131.016 685.208 131.303 684.055 131.303 682.824C131.303 681.794 131.089 680.883 130.66 680.09C130.232 679.288 129.626 678.668 128.842 678.23C128.058 677.784 127.201 677.561 126.271 677.561ZM137.934 676.125H139.848L138.986 682.346C138.749 684.105 138.631 685.235 138.631 685.736C138.631 686.876 139.009 687.805 139.766 688.525C140.531 689.245 141.538 689.605 142.787 689.605C143.826 689.605 144.729 689.332 145.494 688.785C146.26 688.238 146.807 687.523 147.135 686.639C147.299 686.192 147.495 685.167 147.723 683.562L148.789 676.125H150.662L149.896 681.758C149.532 684.447 149.145 686.361 148.734 687.5C148.324 688.63 147.59 689.56 146.533 690.289C145.485 691.018 144.204 691.383 142.691 691.383C140.969 691.383 139.556 690.859 138.453 689.811C137.359 688.753 136.812 687.436 136.812 685.859C136.812 685.23 136.863 684.497 136.963 683.658L137.1 682.346L137.168 681.785L137.934 676.125ZM154.217 676.125H156.117L155.871 677.998C156.382 677.287 156.997 676.736 157.717 676.344C158.437 675.943 159.175 675.742 159.932 675.742C160.469 675.742 161.03 675.87 161.613 676.125L160.711 677.875C160.237 677.684 159.84 677.588 159.521 677.588C158.856 677.588 158.195 677.82 157.539 678.285C156.892 678.75 156.363 679.429 155.953 680.322C155.552 681.206 155.21 682.665 154.928 684.697L154.053 691H152.193L154.217 676.125ZM264.549 687.309L266.395 688.184L263.619 693.352L262.266 692.777L264.549 687.309ZM126.75 710.889L133.49 731H131.426L129.225 724.424H120.707L116.947 731H114.705L126.285 710.889H126.75ZM126.107 715.1L121.814 722.51H128.596L126.107 715.1ZM138.453 716.125H140.285L139.998 718.408C141.502 716.631 143.252 715.742 145.248 715.742C146.779 715.742 148.014 716.216 148.953 717.164C149.892 718.103 150.361 719.37 150.361 720.965C150.361 721.603 150.261 722.674 150.061 724.178L149.131 731H147.244L148.16 724.178C148.361 722.719 148.461 721.644 148.461 720.951C148.461 719.912 148.146 719.074 147.518 718.436C146.889 717.798 146.064 717.479 145.043 717.479C144.04 717.479 143.106 717.738 142.24 718.258C141.383 718.768 140.718 719.47 140.244 720.363C139.77 721.247 139.406 722.651 139.15 724.574L138.262 731H136.389L138.453 716.125ZM153.561 716.125H155.529L159.385 727.104L165.756 716.125H167.875L156.09 736.441H153.943L158.154 729.182L153.561 716.125ZM168.887 716.125H170.787L173.85 726.625L179.441 716.125H179.77L183.16 726.734L188.629 716.125H190.68L182.996 731H182.613L179.168 720.5L173.576 731H173.221L168.887 716.125ZM194.59 710.383H196.449L195.355 718.381C196.887 716.622 198.637 715.742 200.605 715.742C202.109 715.742 203.335 716.212 204.283 717.15C205.24 718.089 205.719 719.311 205.719 720.814C205.719 721.644 205.618 722.76 205.418 724.164L204.488 731H202.602L203.531 724.164C203.723 722.788 203.818 721.694 203.818 720.883C203.818 719.862 203.499 719.037 202.861 718.408C202.223 717.779 201.385 717.465 200.346 717.465C199.38 717.465 198.464 717.725 197.598 718.244C196.741 718.764 196.076 719.465 195.602 720.35C195.137 721.234 194.772 722.637 194.508 724.561L193.619 731H191.76L194.59 710.383ZM224.23 723.945H210.969C210.941 725.714 211.402 727.104 212.35 728.115C213.298 729.127 214.56 729.633 216.137 729.633C217.185 729.633 218.156 729.419 219.049 728.99C219.942 728.562 220.68 727.96 221.264 727.186L222.686 728.348C221.965 729.268 221.022 730.007 219.855 730.562C218.698 731.109 217.445 731.383 216.096 731.383C213.762 731.383 212.008 730.663 210.832 729.223C209.665 727.773 209.082 726.146 209.082 724.342C209.082 722.865 209.474 721.443 210.258 720.076C211.051 718.709 212.108 717.647 213.43 716.891C214.751 716.125 216.182 715.742 217.723 715.742C219.628 715.742 221.204 716.389 222.453 717.684C223.702 718.969 224.326 720.609 224.326 722.605C224.326 722.97 224.294 723.417 224.23 723.945ZM222.48 722.291C222.426 720.887 221.947 719.753 221.045 718.887C220.143 718.012 219.008 717.574 217.641 717.574C216.155 717.574 214.842 717.993 213.703 718.832C212.573 719.671 211.771 720.824 211.297 722.291H222.48ZM228.318 716.125H230.219L229.973 717.998C230.483 717.287 231.098 716.736 231.818 716.344C232.538 715.943 233.277 715.742 234.033 715.742C234.571 715.742 235.132 715.87 235.715 716.125L234.812 717.875C234.339 717.684 233.942 717.588 233.623 717.588C232.958 717.588 232.297 717.82 231.641 718.285C230.993 718.75 230.465 719.429 230.055 720.322C229.654 721.206 229.312 722.665 229.029 724.697L228.154 731H226.295L228.318 716.125ZM250.863 723.945H237.602C237.574 725.714 238.035 727.104 238.982 728.115C239.93 729.127 241.193 729.633 242.77 729.633C243.818 729.633 244.788 729.419 245.682 728.99C246.575 728.562 247.313 727.96 247.896 727.186L249.318 728.348C248.598 729.268 247.655 730.007 246.488 730.562C245.331 731.109 244.077 731.383 242.729 731.383C240.395 731.383 238.641 730.663 237.465 729.223C236.298 727.773 235.715 726.146 235.715 724.342C235.715 722.865 236.107 721.443 236.891 720.076C237.684 718.709 238.741 717.647 240.062 716.891C241.384 716.125 242.815 715.742 244.355 715.742C246.26 715.742 247.837 716.389 249.086 717.684C250.335 718.969 250.959 720.609 250.959 722.605C250.959 722.97 250.927 723.417 250.863 723.945ZM249.113 722.291C249.059 720.887 248.58 719.753 247.678 718.887C246.775 718.012 245.641 717.574 244.273 717.574C242.788 717.574 241.475 717.993 240.336 718.832C239.206 719.671 238.404 720.824 237.93 722.291H249.113ZM255.621 728.047C256.086 728.047 256.478 728.211 256.797 728.539C257.125 728.867 257.289 729.259 257.289 729.715C257.289 730.171 257.125 730.562 256.797 730.891C256.478 731.219 256.086 731.383 255.621 731.383C255.156 731.383 254.76 731.219 254.432 730.891C254.113 730.562 253.953 730.171 253.953 729.715C253.953 729.259 254.113 728.867 254.432 728.539C254.76 728.211 255.156 728.047 255.621 728.047Z" fill="#1B2651"/>
<path d="M181.41 590.889H185.238V607.35H190.816V611H181.41V590.889ZM194.795 590C195.451 590 196.012 590.237 196.477 590.711C196.951 591.185 197.188 591.759 197.188 592.434C197.188 593.099 196.955 593.669 196.49 594.143C196.025 594.607 195.469 594.84 194.822 594.84C194.157 594.84 193.587 594.603 193.113 594.129C192.648 593.646 192.416 593.062 192.416 592.379C192.416 591.723 192.648 591.162 193.113 590.697C193.578 590.232 194.139 590 194.795 590ZM192.922 596.125H196.668V611H192.922V596.125ZM200.031 596.125H203.777V597.834C204.415 597.132 205.122 596.608 205.896 596.262C206.68 595.915 207.533 595.742 208.453 595.742C209.383 595.742 210.221 595.97 210.969 596.426C211.716 596.882 212.318 597.547 212.773 598.422C213.366 597.547 214.09 596.882 214.947 596.426C215.813 595.97 216.757 595.742 217.777 595.742C218.835 595.742 219.764 595.988 220.566 596.48C221.368 596.973 221.943 597.615 222.289 598.408C222.645 599.201 222.822 600.491 222.822 602.277V611H219.062V603.453C219.062 601.767 218.853 600.628 218.434 600.035C218.014 599.434 217.385 599.133 216.547 599.133C215.909 599.133 215.335 599.315 214.824 599.68C214.323 600.044 213.949 600.55 213.703 601.197C213.457 601.835 213.334 602.865 213.334 604.287V611H209.574V603.795C209.574 602.464 209.474 601.503 209.273 600.91C209.082 600.309 208.79 599.862 208.398 599.57C208.007 599.279 207.533 599.133 206.977 599.133C206.357 599.133 205.792 599.32 205.281 599.693C204.78 600.058 204.402 600.573 204.146 601.238C203.9 601.904 203.777 602.952 203.777 604.383V611H200.031V596.125ZM227.854 590C228.51 590 229.07 590.237 229.535 590.711C230.009 591.185 230.246 591.759 230.246 592.434C230.246 593.099 230.014 593.669 229.549 594.143C229.084 594.607 228.528 594.84 227.881 594.84C227.215 594.84 226.646 594.603 226.172 594.129C225.707 593.646 225.475 593.062 225.475 592.379C225.475 591.723 225.707 591.162 226.172 590.697C226.637 590.232 227.197 590 227.854 590ZM225.98 596.125H229.727V611H225.98V596.125ZM233.568 590.643H237.287V596.125H239.502V599.338H237.287V611H233.568V599.338H231.654V596.125H233.568V590.643ZM241.115 590.383H244.848V611H241.115V590.383ZM263.141 604.643H251.15C251.324 605.7 251.784 606.543 252.531 607.172C253.288 607.792 254.249 608.102 255.416 608.102C256.811 608.102 258.009 607.614 259.012 606.639L262.156 608.115C261.372 609.227 260.434 610.052 259.34 610.59C258.246 611.118 256.947 611.383 255.443 611.383C253.11 611.383 251.21 610.649 249.742 609.182C248.275 607.705 247.541 605.859 247.541 603.645C247.541 601.375 248.27 599.493 249.729 597.998C251.196 596.494 253.033 595.742 255.238 595.742C257.581 595.742 259.486 596.494 260.953 597.998C262.421 599.493 263.154 601.471 263.154 603.932L263.141 604.643ZM259.395 601.703C259.148 600.874 258.661 600.199 257.932 599.68C257.212 599.16 256.373 598.9 255.416 598.9C254.377 598.9 253.465 599.192 252.682 599.775C252.189 600.14 251.734 600.783 251.314 601.703H259.395ZM275.281 598.203L272.971 600.514C272.032 599.584 271.18 599.119 270.414 599.119C269.995 599.119 269.667 599.21 269.43 599.393C269.193 599.566 269.074 599.785 269.074 600.049C269.074 600.249 269.147 600.436 269.293 600.609C269.448 600.773 269.822 601.001 270.414 601.293L271.781 601.977C273.221 602.688 274.21 603.412 274.748 604.15C275.286 604.889 275.555 605.755 275.555 606.748C275.555 608.07 275.067 609.173 274.092 610.057C273.126 610.941 271.827 611.383 270.195 611.383C268.026 611.383 266.294 610.535 265 608.84L267.297 606.338C267.734 606.848 268.245 607.263 268.828 607.582C269.421 607.892 269.945 608.047 270.4 608.047C270.893 608.047 271.289 607.928 271.59 607.691C271.891 607.454 272.041 607.181 272.041 606.871C272.041 606.297 271.499 605.736 270.414 605.189L269.156 604.561C266.75 603.348 265.547 601.831 265.547 600.008C265.547 598.832 265.998 597.829 266.9 597C267.812 596.161 268.974 595.742 270.387 595.742C271.353 595.742 272.26 595.956 273.107 596.385C273.964 596.804 274.689 597.41 275.281 598.203ZM287.613 598.203L285.303 600.514C284.364 599.584 283.512 599.119 282.746 599.119C282.327 599.119 281.999 599.21 281.762 599.393C281.525 599.566 281.406 599.785 281.406 600.049C281.406 600.249 281.479 600.436 281.625 600.609C281.78 600.773 282.154 601.001 282.746 601.293L284.113 601.977C285.553 602.688 286.542 603.412 287.08 604.15C287.618 604.889 287.887 605.755 287.887 606.748C287.887 608.07 287.399 609.173 286.424 610.057C285.458 610.941 284.159 611.383 282.527 611.383C280.358 611.383 278.626 610.535 277.332 608.84L279.629 606.338C280.066 606.848 280.577 607.263 281.16 607.582C281.753 607.892 282.277 608.047 282.732 608.047C283.225 608.047 283.621 607.928 283.922 607.691C284.223 607.454 284.373 607.181 284.373 606.871C284.373 606.297 283.831 605.736 282.746 605.189L281.488 604.561C279.082 603.348 277.879 601.831 277.879 600.008C277.879 598.832 278.33 597.829 279.232 597C280.144 596.161 281.306 595.742 282.719 595.742C283.685 595.742 284.592 595.956 285.439 596.385C286.296 596.804 287.021 597.41 287.613 598.203ZM181.424 673.623L178.594 676.125C177.6 674.74 176.589 674.047 175.559 674.047C175.057 674.047 174.647 674.184 174.328 674.457C174.009 674.721 173.85 675.022 173.85 675.359C173.85 675.697 173.964 676.016 174.191 676.316C174.501 676.717 175.436 677.579 176.994 678.9C178.452 680.122 179.337 680.892 179.646 681.211C180.421 681.995 180.968 682.747 181.287 683.467C181.615 684.178 181.779 684.957 181.779 685.805C181.779 687.454 181.21 688.817 180.07 689.893C178.931 690.968 177.445 691.506 175.613 691.506C174.182 691.506 172.934 691.155 171.867 690.453C170.81 689.751 169.903 688.648 169.146 687.145L172.359 685.203C173.326 686.98 174.438 687.869 175.695 687.869C176.352 687.869 176.903 687.678 177.35 687.295C177.796 686.912 178.02 686.47 178.02 685.969C178.02 685.513 177.851 685.057 177.514 684.602C177.176 684.146 176.434 683.449 175.285 682.51C173.098 680.723 171.685 679.347 171.047 678.381C170.409 677.406 170.09 676.435 170.09 675.469C170.09 674.074 170.618 672.88 171.676 671.887C172.742 670.884 174.055 670.383 175.613 670.383C176.616 670.383 177.568 670.615 178.471 671.08C179.382 671.545 180.367 672.393 181.424 673.623ZM199.607 679.133L196.504 680.842C195.921 680.231 195.342 679.807 194.768 679.57C194.202 679.333 193.537 679.215 192.771 679.215C191.377 679.215 190.247 679.634 189.381 680.473C188.524 681.302 188.096 682.368 188.096 683.672C188.096 684.939 188.51 685.973 189.34 686.775C190.169 687.577 191.258 687.979 192.607 687.979C194.275 687.979 195.574 687.409 196.504 686.27L199.443 688.279C197.848 690.348 195.597 691.383 192.689 691.383C190.074 691.383 188.023 690.608 186.537 689.059C185.061 687.509 184.322 685.695 184.322 683.617C184.322 682.177 184.682 680.851 185.402 679.639C186.122 678.426 187.125 677.474 188.41 676.781C189.704 676.089 191.149 675.742 192.744 675.742C194.221 675.742 195.547 676.038 196.723 676.631C197.898 677.214 198.86 678.048 199.607 679.133ZM202.998 670.383H206.703V677.629C207.432 677 208.166 676.531 208.904 676.221C209.643 675.902 210.39 675.742 211.146 675.742C212.623 675.742 213.867 676.253 214.879 677.273C215.745 678.158 216.178 679.456 216.178 681.17V691H212.5V684.479C212.5 682.756 212.418 681.589 212.254 680.979C212.09 680.368 211.807 679.912 211.406 679.611C211.014 679.311 210.527 679.16 209.943 679.16C209.187 679.16 208.535 679.411 207.988 679.912C207.451 680.413 207.077 681.097 206.867 681.963C206.758 682.41 206.703 683.43 206.703 685.025V691H202.998V670.383ZM226.787 675.742C228.191 675.742 229.508 676.093 230.738 676.795C231.978 677.497 232.944 678.449 233.637 679.652C234.329 680.855 234.676 682.154 234.676 683.549C234.676 684.952 234.325 686.265 233.623 687.486C232.93 688.708 231.982 689.665 230.779 690.357C229.576 691.041 228.25 691.383 226.801 691.383C224.668 691.383 222.845 690.626 221.332 689.113C219.828 687.591 219.076 685.745 219.076 683.576C219.076 681.252 219.928 679.315 221.633 677.766C223.128 676.417 224.846 675.742 226.787 675.742ZM226.842 679.256C225.684 679.256 224.718 679.661 223.943 680.473C223.178 681.275 222.795 682.305 222.795 683.562C222.795 684.857 223.173 685.905 223.93 686.707C224.695 687.509 225.661 687.91 226.828 687.91C227.995 687.91 228.965 687.505 229.74 686.693C230.515 685.882 230.902 684.839 230.902 683.562C230.902 682.286 230.52 681.252 229.754 680.459C228.997 679.657 228.027 679.256 226.842 679.256ZM244.725 675.742C246.128 675.742 247.445 676.093 248.676 676.795C249.915 677.497 250.882 678.449 251.574 679.652C252.267 680.855 252.613 682.154 252.613 683.549C252.613 684.952 252.262 686.265 251.561 687.486C250.868 688.708 249.92 689.665 248.717 690.357C247.514 691.041 246.188 691.383 244.738 691.383C242.605 691.383 240.783 690.626 239.27 689.113C237.766 687.591 237.014 685.745 237.014 683.576C237.014 681.252 237.866 679.315 239.57 677.766C241.065 676.417 242.783 675.742 244.725 675.742ZM244.779 679.256C243.622 679.256 242.656 679.661 241.881 680.473C241.115 681.275 240.732 682.305 240.732 683.562C240.732 684.857 241.111 685.905 241.867 686.707C242.633 687.509 243.599 687.91 244.766 687.91C245.932 687.91 246.903 687.505 247.678 686.693C248.452 685.882 248.84 684.839 248.84 683.562C248.84 682.286 248.457 681.252 247.691 680.459C246.935 679.657 245.964 679.256 244.779 679.256ZM255.279 670.383H259.012V691H255.279V670.383Z" fill="#FFAA00"/>
<path d="M254 552.334C254.411 552.292 255.011 552.23 255.776 552.178C256.536 552.12 257.455 552.065 258.513 552.032C260.631 551.966 263.293 551.983 266.361 552.23C272.484 552.726 280.221 554.134 288.352 557.685C293.767 560.042 299.345 563.37 304.638 567.975C305.762 568.947 306.825 569.945 307.84 570.957C312.013 575.126 315.312 579.599 317.889 584.103C320.47 588.602 322.338 593.131 323.677 597.449C326.355 606.09 326.972 613.878 326.998 619.181C327.024 622.715 326.776 625.152 326.684 625.999L313.26 624.444C313.336 623.829 313.751 619.865 313.26 614.272C312.781 608.678 311.397 601.495 308.027 594.363C305.769 589.604 302.654 584.865 298.285 580.5C297.492 579.708 296.648 578.92 295.77 578.148C292.109 574.966 288.319 572.581 284.55 570.781C280.793 568.978 277.054 567.761 273.561 566.956C266.58 565.343 260.558 565.392 257.417 565.586C256.52 565.64 255.863 565.704 255.436 565.753L254 552.334Z" fill="#CD2028"/>
<path d="M143 776.665C142.589 776.707 141.989 776.769 141.224 776.821C140.463 776.88 139.544 776.934 138.486 776.967C136.368 777.033 133.707 777.016 130.639 776.769C124.515 776.273 116.778 774.865 108.647 771.314C103.232 768.957 97.6541 765.629 92.3617 761.024C91.2375 760.052 90.1748 759.054 89.1593 758.042C84.9863 753.873 81.6872 749.4 79.1106 744.896C76.5294 740.397 74.6613 735.868 73.3223 731.55C70.6442 722.909 70.0278 715.121 70.0019 709.818C69.9759 706.284 70.2239 703.847 70.316 703L83.7394 704.555C83.6638 705.17 83.2482 709.134 83.7394 714.727C84.2188 720.321 85.6027 727.505 88.9728 734.636C91.2305 739.395 94.3454 744.134 98.7144 748.499C99.5079 749.291 100.351 750.079 101.23 750.851C104.89 754.033 108.68 756.418 112.45 758.218C116.207 760.021 119.945 761.238 123.438 762.043C130.419 763.656 136.441 763.607 139.582 763.413C140.48 763.359 141.136 763.295 141.564 763.246L143 776.665Z" fill="#CD2028"/>
</svg>
