<svg width="37" height="29" viewBox="0 0 37 29" fill="none" xmlns="http://www.w3.org/2000/svg">
<path d="M0 28.6301V10.5259C0 4.92702 4.55593 0.371094 10.1548 0.371094H26.8428C32.4428 0.371094 37 4.92702 37 10.5259V13.6485C37 19.2474 32.4441 23.8033 26.8452 23.8033H10.3902L0 28.6301ZM10.1548 2.63503C5.80378 2.63503 2.26394 6.17487 2.26394 10.5259V25.0817L9.89131 21.5382H26.8452C31.1962 21.5382 34.7361 17.9983 34.7361 13.6473V10.5247C34.7361 6.17365 31.195 2.63381 26.8428 2.63381H10.1548V2.63503ZM10.9013 10.3539C12.0906 10.3539 13.0542 11.3175 13.0542 12.5068C13.0542 13.6961 12.0906 14.6598 10.9013 14.6598C9.712 14.6598 8.74836 13.6961 8.74836 12.5068C8.74836 11.3175 9.712 10.3539 10.9013 10.3539ZM26.0975 10.3539C27.2868 10.3539 28.2504 11.3175 28.2504 12.5068C28.2504 13.6961 27.2868 14.6598 26.0975 14.6598C24.9082 14.6598 23.9445 13.6961 23.9445 12.5068C23.9445 11.3175 24.9082 10.3539 26.0975 10.3539ZM18.4982 10.3539C19.6875 10.3539 20.6511 11.3175 20.6511 12.5068C20.6511 13.6961 19.6875 14.6598 18.4982 14.6598C17.3089 14.6598 16.3452 13.6961 16.3452 12.5068C16.3452 11.3175 17.3089 10.3539 18.4982 10.3539Z" fill="#1B2651"/>
</svg>
